G04 #@! TF.FileFunction,Copper,L1,Top,Signal*
%FSLAX46Y46*%
G04 Gerber Fmt 4.6, Leading zero omitted, Abs format (unit mm)*
G04 Created by KiCad (PCBNEW 4.0.6) date Tue Jul 25 23:33:38 2017*
%MOMM*%
%LPD*%
G01*
G04 APERTURE LIST*
%ADD10C,0.100000*%
%ADD11R,2.000000X2.000000*%
%ADD12R,1.524000X1.524000*%
%ADD13C,1.524000*%
%ADD14R,1.600000X1.500000*%
%ADD15R,1.500000X1.600000*%
%ADD16C,2.540000*%
%ADD17C,1.700000*%
%ADD18C,3.000000*%
%ADD19C,1.397000*%
%ADD20R,1.397000X1.397000*%
%ADD21R,0.900000X0.600000*%
%ADD22R,2.500000X0.300000*%
%ADD23C,0.635000*%
%ADD24C,0.250000*%
%ADD25C,0.152400*%
G04 APERTURE END LIST*
D10*
D11*
X133477000Y-97485000D03*
X133477000Y-94285000D03*
D12*
X132588000Y-72517000D03*
D13*
X130048000Y-72517000D03*
X127508000Y-72517000D03*
X124968000Y-72517000D03*
X122428000Y-72517000D03*
X119888000Y-72517000D03*
D14*
X127538000Y-82804000D03*
X124938000Y-82804000D03*
D15*
X133477000Y-102646000D03*
X133477000Y-100046000D03*
X127508000Y-97760000D03*
X127508000Y-100360000D03*
X124968000Y-97760000D03*
X124968000Y-100360000D03*
D16*
X133858000Y-79375000D03*
X118618000Y-79375000D03*
X126238000Y-79375000D03*
D15*
X131953000Y-85314000D03*
X131953000Y-87914000D03*
D17*
X133738000Y-113190000D03*
X126238000Y-113190000D03*
X118738000Y-113190000D03*
X131238000Y-110690000D03*
X121238000Y-110690000D03*
X128738000Y-123190000D03*
X123738000Y-123190000D03*
D18*
X133738000Y-118190000D03*
X118738000Y-118190000D03*
D19*
X127508000Y-107508040D03*
X124968000Y-107629960D03*
D20*
X130048000Y-107629960D03*
D19*
X122428000Y-107508040D03*
D15*
X120650000Y-87977500D03*
X120650000Y-85377500D03*
D21*
X127505000Y-93345000D03*
X130305000Y-92395000D03*
X130305000Y-94295000D03*
X122171000Y-92395000D03*
X122171000Y-94295000D03*
X124971000Y-93345000D03*
D22*
X129026500Y-87491000D03*
X129026500Y-86991000D03*
X129026500Y-86491000D03*
X129026500Y-85991000D03*
X123576500Y-85991000D03*
X123576500Y-86491000D03*
X123576500Y-86991000D03*
X123576500Y-87491000D03*
D23*
X126238000Y-81534000D03*
X130492500Y-95313500D03*
X120967500Y-92392500D03*
X119126000Y-85407500D03*
X133667500Y-87947500D03*
X133477000Y-92456000D03*
X123825000Y-90678000D03*
X131508500Y-97091500D03*
X123825000Y-93281500D03*
D24*
X127538000Y-82804000D02*
X127538000Y-81945000D01*
X127127000Y-81534000D02*
X126238000Y-81534000D01*
X127538000Y-81945000D02*
X127127000Y-81534000D01*
X129026500Y-86491000D02*
X127512000Y-86491000D01*
X126936500Y-85915500D02*
X126936500Y-83405500D01*
X127512000Y-86491000D02*
X126936500Y-85915500D01*
X126936500Y-83405500D02*
X127538000Y-82804000D01*
X126936500Y-83405500D02*
X127538000Y-82804000D01*
X129026500Y-86491000D02*
X130776000Y-86491000D01*
X130776000Y-86491000D02*
X131953000Y-85314000D01*
X130305000Y-94295000D02*
X130305000Y-95126000D01*
X130305000Y-95126000D02*
X130492500Y-95313500D01*
X122171000Y-92395000D02*
X120970000Y-92395000D01*
X120970000Y-92395000D02*
X120967500Y-92392500D01*
X120650000Y-85377500D02*
X119156000Y-85377500D01*
X119156000Y-85377500D02*
X119126000Y-85407500D01*
X129026500Y-86991000D02*
X131030000Y-86991000D01*
X131030000Y-86991000D02*
X131953000Y-87914000D01*
X131953000Y-87914000D02*
X133634000Y-87914000D01*
X133634000Y-87914000D02*
X133667500Y-87947500D01*
X133477000Y-94285000D02*
X133477000Y-92456000D01*
D25*
X123825000Y-90678000D02*
X121124500Y-87977500D01*
D24*
X121124500Y-87977500D02*
X120650000Y-87977500D01*
X123576500Y-86991000D02*
X121636500Y-86991000D01*
X121636500Y-86991000D02*
X120650000Y-87977500D01*
X133477000Y-102646000D02*
X131826000Y-102646000D01*
X131826000Y-102646000D02*
X131826000Y-102743000D01*
X130048000Y-107629960D02*
X131826000Y-107629960D01*
X131826000Y-107629960D02*
X131826000Y-107569000D01*
X131826000Y-104775000D02*
X131826000Y-102743000D01*
X131826000Y-102743000D02*
X131826000Y-97536000D01*
X131572000Y-97282000D02*
X131826000Y-97536000D01*
X131572000Y-97155000D02*
X131572000Y-97282000D01*
X131572000Y-97155000D02*
X131508500Y-97091500D01*
X131826000Y-105283000D02*
X131826000Y-104775000D01*
X131826000Y-107569000D02*
X131826000Y-105283000D01*
X131826000Y-110102000D02*
X131826000Y-107569000D01*
X131826000Y-110102000D02*
X131238000Y-110690000D01*
X133477000Y-97485000D02*
X133477000Y-100046000D01*
X133858000Y-79375000D02*
X133858000Y-78867000D01*
X133858000Y-78867000D02*
X132588000Y-77597000D01*
X132588000Y-77597000D02*
X132588000Y-72517000D01*
X129026500Y-85991000D02*
X129026500Y-84206500D01*
X129026500Y-84206500D02*
X133858000Y-79375000D01*
X118618000Y-79375000D02*
X122491500Y-79375000D01*
X123698000Y-73787000D02*
X124968000Y-72517000D01*
X123698000Y-78168500D02*
X123698000Y-73787000D01*
X122491500Y-79375000D02*
X123698000Y-78168500D01*
X118618000Y-79375000D02*
X118618000Y-78867000D01*
X123576500Y-85991000D02*
X123576500Y-84333500D01*
X123576500Y-84333500D02*
X118618000Y-79375000D01*
X127508000Y-107508040D02*
X127508000Y-100360000D01*
X118738000Y-113190000D02*
X123030000Y-113190000D01*
X127508000Y-108712000D02*
X127508000Y-107508040D01*
X123030000Y-113190000D02*
X127508000Y-108712000D01*
X118832000Y-113284000D02*
X118738000Y-113190000D01*
X127127000Y-100741000D02*
X127508000Y-100360000D01*
X124968000Y-100360000D02*
X124968000Y-107629960D01*
X121238000Y-110690000D02*
X122736000Y-110690000D01*
X122736000Y-110690000D02*
X124968000Y-108458000D01*
X124968000Y-108458000D02*
X124968000Y-107629960D01*
X121238000Y-110690000D02*
X120469000Y-110690000D01*
X125349000Y-100741000D02*
X124968000Y-100360000D01*
D25*
X123576500Y-86491000D02*
X121569114Y-86491000D01*
X123825000Y-91630500D02*
X123825000Y-93281500D01*
X123126500Y-90932000D02*
X123825000Y-91630500D01*
X120586500Y-90932000D02*
X123126500Y-90932000D01*
X119380000Y-89725500D02*
X120586500Y-90932000D01*
X119380000Y-86868000D02*
X119380000Y-89725500D01*
X119570500Y-86677500D02*
X119380000Y-86868000D01*
X121382614Y-86677500D02*
X119570500Y-86677500D01*
X121569114Y-86491000D02*
X121382614Y-86677500D01*
D24*
X123576500Y-86491000D02*
X125154500Y-86491000D01*
X125603000Y-86042500D02*
X125603000Y-83469000D01*
X125154500Y-86491000D02*
X125603000Y-86042500D01*
X125603000Y-83469000D02*
X124938000Y-82804000D01*
X127508000Y-72517000D02*
X127508000Y-75247500D01*
X124333000Y-76708000D02*
X124333000Y-82199000D01*
X124841000Y-76200000D02*
X124333000Y-76708000D01*
X126555500Y-76200000D02*
X124841000Y-76200000D01*
X127508000Y-75247500D02*
X126555500Y-76200000D01*
X124333000Y-82199000D02*
X124938000Y-82804000D01*
X124971000Y-93345000D02*
X124971000Y-90427000D01*
X123576500Y-89032500D02*
X123576500Y-87491000D01*
X124971000Y-90427000D02*
X123576500Y-89032500D01*
X124968000Y-97760000D02*
X124968000Y-93348000D01*
X124968000Y-93348000D02*
X124971000Y-93345000D01*
X127505000Y-93345000D02*
X127505000Y-90427000D01*
X129026500Y-88905500D02*
X129026500Y-87491000D01*
X127505000Y-90427000D02*
X129026500Y-88905500D01*
X127508000Y-97760000D02*
X127508000Y-93348000D01*
X127508000Y-93348000D02*
X127505000Y-93345000D01*
M02*
