G04 #@! TF.FileFunction,Legend,Top*
%FSLAX46Y46*%
G04 Gerber Fmt 4.6, Leading zero omitted, Abs format (unit mm)*
G04 Created by KiCad (PCBNEW no-vcs-found-product) date Fri 17 Jul 2015 01:59:30 PM CDT*
%MOMM*%
G01*
G04 APERTURE LIST*
%ADD10C,0.100000*%
%ADD11C,0.150000*%
G04 APERTURE END LIST*
D10*
D11*
X133757619Y-101313430D02*
X133710000Y-101408668D01*
X133614762Y-101503906D01*
X133471905Y-101646763D01*
X133424286Y-101742002D01*
X133424286Y-101837240D01*
X133662381Y-101789621D02*
X133614762Y-101884859D01*
X133519524Y-101980097D01*
X133329048Y-102027716D01*
X132995714Y-102027716D01*
X132805238Y-101980097D01*
X132710000Y-101884859D01*
X132662381Y-101789621D01*
X132662381Y-101599144D01*
X132710000Y-101503906D01*
X132805238Y-101408668D01*
X132995714Y-101361049D01*
X133329048Y-101361049D01*
X133519524Y-101408668D01*
X133614762Y-101503906D01*
X133662381Y-101599144D01*
X133662381Y-101789621D01*
X132995714Y-100503906D02*
X133662381Y-100503906D01*
X132995714Y-100932478D02*
X133519524Y-100932478D01*
X133614762Y-100884859D01*
X133662381Y-100789621D01*
X133662381Y-100646763D01*
X133614762Y-100551525D01*
X133567143Y-100503906D01*
X133662381Y-99599144D02*
X133138571Y-99599144D01*
X133043333Y-99646763D01*
X132995714Y-99742001D01*
X132995714Y-99932478D01*
X133043333Y-100027716D01*
X133614762Y-99599144D02*
X133662381Y-99694382D01*
X133662381Y-99932478D01*
X133614762Y-100027716D01*
X133519524Y-100075335D01*
X133424286Y-100075335D01*
X133329048Y-100027716D01*
X133281429Y-99932478D01*
X133281429Y-99694382D01*
X133233810Y-99599144D01*
X133662381Y-98694382D02*
X132662381Y-98694382D01*
X133614762Y-98694382D02*
X133662381Y-98789620D01*
X133662381Y-98980097D01*
X133614762Y-99075335D01*
X133567143Y-99122954D01*
X133471905Y-99170573D01*
X133186190Y-99170573D01*
X133090952Y-99122954D01*
X133043333Y-99075335D01*
X132995714Y-98980097D01*
X132995714Y-98789620D01*
X133043333Y-98694382D01*
X133662381Y-98218192D02*
X132995714Y-98218192D01*
X133186190Y-98218192D02*
X133090952Y-98170573D01*
X133043333Y-98122954D01*
X132995714Y-98027716D01*
X132995714Y-97932477D01*
X133662381Y-97170572D02*
X133138571Y-97170572D01*
X133043333Y-97218191D01*
X132995714Y-97313429D01*
X132995714Y-97503906D01*
X133043333Y-97599144D01*
X133614762Y-97170572D02*
X133662381Y-97265810D01*
X133662381Y-97503906D01*
X133614762Y-97599144D01*
X133519524Y-97646763D01*
X133424286Y-97646763D01*
X133329048Y-97599144D01*
X133281429Y-97503906D01*
X133281429Y-97265810D01*
X133233810Y-97170572D01*
X132995714Y-96837239D02*
X132995714Y-96456287D01*
X132662381Y-96694382D02*
X133519524Y-96694382D01*
X133614762Y-96646763D01*
X133662381Y-96551525D01*
X133662381Y-96456287D01*
X132995714Y-95694381D02*
X133662381Y-95694381D01*
X132995714Y-96122953D02*
X133519524Y-96122953D01*
X133614762Y-96075334D01*
X133662381Y-95980096D01*
X133662381Y-95837238D01*
X133614762Y-95742000D01*
X133567143Y-95694381D01*
X133662381Y-95218191D02*
X132995714Y-95218191D01*
X133186190Y-95218191D02*
X133090952Y-95170572D01*
X133043333Y-95122953D01*
X132995714Y-95027715D01*
X132995714Y-94932476D01*
X133614762Y-94218190D02*
X133662381Y-94313428D01*
X133662381Y-94503905D01*
X133614762Y-94599143D01*
X133519524Y-94646762D01*
X133138571Y-94646762D01*
X133043333Y-94599143D01*
X132995714Y-94503905D01*
X132995714Y-94313428D01*
X133043333Y-94218190D01*
X133138571Y-94170571D01*
X133233810Y-94170571D01*
X133329048Y-94646762D01*
X133138571Y-92980095D02*
X133138571Y-92646761D01*
X133662381Y-92503904D02*
X133662381Y-92980095D01*
X132662381Y-92980095D01*
X132662381Y-92503904D01*
X132995714Y-92075333D02*
X133662381Y-92075333D01*
X133090952Y-92075333D02*
X133043333Y-92027714D01*
X132995714Y-91932476D01*
X132995714Y-91789618D01*
X133043333Y-91694380D01*
X133138571Y-91646761D01*
X133662381Y-91646761D01*
X133614762Y-90741999D02*
X133662381Y-90837237D01*
X133662381Y-91027714D01*
X133614762Y-91122952D01*
X133567143Y-91170571D01*
X133471905Y-91218190D01*
X133186190Y-91218190D01*
X133090952Y-91170571D01*
X133043333Y-91122952D01*
X132995714Y-91027714D01*
X132995714Y-90837237D01*
X133043333Y-90741999D01*
X133662381Y-90170571D02*
X133614762Y-90265809D01*
X133567143Y-90313428D01*
X133471905Y-90361047D01*
X133186190Y-90361047D01*
X133090952Y-90313428D01*
X133043333Y-90265809D01*
X132995714Y-90170571D01*
X132995714Y-90027713D01*
X133043333Y-89932475D01*
X133090952Y-89884856D01*
X133186190Y-89837237D01*
X133471905Y-89837237D01*
X133567143Y-89884856D01*
X133614762Y-89932475D01*
X133662381Y-90027713D01*
X133662381Y-90170571D01*
X133662381Y-88980094D02*
X132662381Y-88980094D01*
X133614762Y-88980094D02*
X133662381Y-89075332D01*
X133662381Y-89265809D01*
X133614762Y-89361047D01*
X133567143Y-89408666D01*
X133471905Y-89456285D01*
X133186190Y-89456285D01*
X133090952Y-89408666D01*
X133043333Y-89361047D01*
X132995714Y-89265809D01*
X132995714Y-89075332D01*
X133043333Y-88980094D01*
X133614762Y-88122951D02*
X133662381Y-88218189D01*
X133662381Y-88408666D01*
X133614762Y-88503904D01*
X133519524Y-88551523D01*
X133138571Y-88551523D01*
X133043333Y-88503904D01*
X132995714Y-88408666D01*
X132995714Y-88218189D01*
X133043333Y-88122951D01*
X133138571Y-88075332D01*
X133233810Y-88075332D01*
X133329048Y-88551523D01*
X133662381Y-87646761D02*
X132995714Y-87646761D01*
X133186190Y-87646761D02*
X133090952Y-87599142D01*
X133043333Y-87551523D01*
X132995714Y-87456285D01*
X132995714Y-87361046D01*
X135212381Y-105099144D02*
X134212381Y-105099144D01*
X134212381Y-104718191D01*
X134260000Y-104622953D01*
X134307619Y-104575334D01*
X134402857Y-104527715D01*
X134545714Y-104527715D01*
X134640952Y-104575334D01*
X134688571Y-104622953D01*
X134736190Y-104718191D01*
X134736190Y-105099144D01*
X135212381Y-104099144D02*
X134212381Y-104099144D01*
X134926667Y-103765810D01*
X134212381Y-103432477D01*
X135212381Y-103432477D01*
X134212381Y-102765811D02*
X134212381Y-102575334D01*
X134260000Y-102480096D01*
X134355238Y-102384858D01*
X134545714Y-102337239D01*
X134879048Y-102337239D01*
X135069524Y-102384858D01*
X135164762Y-102480096D01*
X135212381Y-102575334D01*
X135212381Y-102765811D01*
X135164762Y-102861049D01*
X135069524Y-102956287D01*
X134879048Y-103003906D01*
X134545714Y-103003906D01*
X134355238Y-102956287D01*
X134260000Y-102861049D01*
X134212381Y-102765811D01*
X135212381Y-101908668D02*
X134212381Y-101908668D01*
X134212381Y-101670573D01*
X134260000Y-101527715D01*
X134355238Y-101432477D01*
X134450476Y-101384858D01*
X134640952Y-101337239D01*
X134783810Y-101337239D01*
X134974286Y-101384858D01*
X135069524Y-101432477D01*
X135164762Y-101527715D01*
X135212381Y-101670573D01*
X135212381Y-101908668D01*
X134831429Y-100908668D02*
X134831429Y-100146763D01*
X135117143Y-99099144D02*
X135164762Y-99146763D01*
X135212381Y-99289620D01*
X135212381Y-99384858D01*
X135164762Y-99527716D01*
X135069524Y-99622954D01*
X134974286Y-99670573D01*
X134783810Y-99718192D01*
X134640952Y-99718192D01*
X134450476Y-99670573D01*
X134355238Y-99622954D01*
X134260000Y-99527716D01*
X134212381Y-99384858D01*
X134212381Y-99289620D01*
X134260000Y-99146763D01*
X134307619Y-99099144D01*
X135212381Y-98527716D02*
X135164762Y-98622954D01*
X135117143Y-98670573D01*
X135021905Y-98718192D01*
X134736190Y-98718192D01*
X134640952Y-98670573D01*
X134593333Y-98622954D01*
X134545714Y-98527716D01*
X134545714Y-98384858D01*
X134593333Y-98289620D01*
X134640952Y-98242001D01*
X134736190Y-98194382D01*
X135021905Y-98194382D01*
X135117143Y-98242001D01*
X135164762Y-98289620D01*
X135212381Y-98384858D01*
X135212381Y-98527716D01*
X135212381Y-97765811D02*
X134545714Y-97765811D01*
X134640952Y-97765811D02*
X134593333Y-97718192D01*
X134545714Y-97622954D01*
X134545714Y-97480096D01*
X134593333Y-97384858D01*
X134688571Y-97337239D01*
X135212381Y-97337239D01*
X134688571Y-97337239D02*
X134593333Y-97289620D01*
X134545714Y-97194382D01*
X134545714Y-97051525D01*
X134593333Y-96956287D01*
X134688571Y-96908668D01*
X135212381Y-96908668D01*
X134545714Y-96432478D02*
X135545714Y-96432478D01*
X134593333Y-96432478D02*
X134545714Y-96337240D01*
X134545714Y-96146763D01*
X134593333Y-96051525D01*
X134640952Y-96003906D01*
X134736190Y-95956287D01*
X135021905Y-95956287D01*
X135117143Y-96003906D01*
X135164762Y-96051525D01*
X135212381Y-96146763D01*
X135212381Y-96337240D01*
X135164762Y-96432478D01*
X135212381Y-95099144D02*
X134688571Y-95099144D01*
X134593333Y-95146763D01*
X134545714Y-95242001D01*
X134545714Y-95432478D01*
X134593333Y-95527716D01*
X135164762Y-95099144D02*
X135212381Y-95194382D01*
X135212381Y-95432478D01*
X135164762Y-95527716D01*
X135069524Y-95575335D01*
X134974286Y-95575335D01*
X134879048Y-95527716D01*
X134831429Y-95432478D01*
X134831429Y-95194382D01*
X134783810Y-95099144D01*
X134545714Y-94765811D02*
X134545714Y-94384859D01*
X134212381Y-94622954D02*
X135069524Y-94622954D01*
X135164762Y-94575335D01*
X135212381Y-94480097D01*
X135212381Y-94384859D01*
X135212381Y-94051525D02*
X134545714Y-94051525D01*
X134212381Y-94051525D02*
X134260000Y-94099144D01*
X134307619Y-94051525D01*
X134260000Y-94003906D01*
X134212381Y-94051525D01*
X134307619Y-94051525D01*
X135212381Y-93575335D02*
X134212381Y-93575335D01*
X134593333Y-93575335D02*
X134545714Y-93480097D01*
X134545714Y-93289620D01*
X134593333Y-93194382D01*
X134640952Y-93146763D01*
X134736190Y-93099144D01*
X135021905Y-93099144D01*
X135117143Y-93146763D01*
X135164762Y-93194382D01*
X135212381Y-93289620D01*
X135212381Y-93480097D01*
X135164762Y-93575335D01*
X135212381Y-92527716D02*
X135164762Y-92622954D01*
X135069524Y-92670573D01*
X134212381Y-92670573D01*
X135164762Y-91765810D02*
X135212381Y-91861048D01*
X135212381Y-92051525D01*
X135164762Y-92146763D01*
X135069524Y-92194382D01*
X134688571Y-92194382D01*
X134593333Y-92146763D01*
X134545714Y-92051525D01*
X134545714Y-91861048D01*
X134593333Y-91765810D01*
X134688571Y-91718191D01*
X134783810Y-91718191D01*
X134879048Y-92194382D01*
X135212381Y-90527715D02*
X134212381Y-90527715D01*
X134545714Y-90051525D02*
X135212381Y-90051525D01*
X134640952Y-90051525D02*
X134593333Y-90003906D01*
X134545714Y-89908668D01*
X134545714Y-89765810D01*
X134593333Y-89670572D01*
X134688571Y-89622953D01*
X135212381Y-89622953D01*
X134545714Y-89289620D02*
X134545714Y-88908668D01*
X134212381Y-89146763D02*
X135069524Y-89146763D01*
X135164762Y-89099144D01*
X135212381Y-89003906D01*
X135212381Y-88908668D01*
X135164762Y-88194381D02*
X135212381Y-88289619D01*
X135212381Y-88480096D01*
X135164762Y-88575334D01*
X135069524Y-88622953D01*
X134688571Y-88622953D01*
X134593333Y-88575334D01*
X134545714Y-88480096D01*
X134545714Y-88289619D01*
X134593333Y-88194381D01*
X134688571Y-88146762D01*
X134783810Y-88146762D01*
X134879048Y-88622953D01*
X135212381Y-87718191D02*
X134545714Y-87718191D01*
X134736190Y-87718191D02*
X134640952Y-87670572D01*
X134593333Y-87622953D01*
X134545714Y-87527715D01*
X134545714Y-87432476D01*
X134545714Y-87242000D02*
X134545714Y-86861048D01*
X135212381Y-87099143D02*
X134355238Y-87099143D01*
X134260000Y-87051524D01*
X134212381Y-86956286D01*
X134212381Y-86861048D01*
X135212381Y-86099142D02*
X134688571Y-86099142D01*
X134593333Y-86146761D01*
X134545714Y-86241999D01*
X134545714Y-86432476D01*
X134593333Y-86527714D01*
X135164762Y-86099142D02*
X135212381Y-86194380D01*
X135212381Y-86432476D01*
X135164762Y-86527714D01*
X135069524Y-86575333D01*
X134974286Y-86575333D01*
X134879048Y-86527714D01*
X134831429Y-86432476D01*
X134831429Y-86194380D01*
X134783810Y-86099142D01*
X135164762Y-85194380D02*
X135212381Y-85289618D01*
X135212381Y-85480095D01*
X135164762Y-85575333D01*
X135117143Y-85622952D01*
X135021905Y-85670571D01*
X134736190Y-85670571D01*
X134640952Y-85622952D01*
X134593333Y-85575333D01*
X134545714Y-85480095D01*
X134545714Y-85289618D01*
X134593333Y-85194380D01*
X135164762Y-84384856D02*
X135212381Y-84480094D01*
X135212381Y-84670571D01*
X135164762Y-84765809D01*
X135069524Y-84813428D01*
X134688571Y-84813428D01*
X134593333Y-84765809D01*
X134545714Y-84670571D01*
X134545714Y-84480094D01*
X134593333Y-84384856D01*
X134688571Y-84337237D01*
X134783810Y-84337237D01*
X134879048Y-84813428D01*
X117729096Y-85352000D02*
X117633858Y-85304381D01*
X117491001Y-85304381D01*
X117348143Y-85352000D01*
X117252905Y-85447238D01*
X117205286Y-85542476D01*
X117157667Y-85732952D01*
X117157667Y-85875810D01*
X117205286Y-86066286D01*
X117252905Y-86161524D01*
X117348143Y-86256762D01*
X117491001Y-86304381D01*
X117586239Y-86304381D01*
X117729096Y-86256762D01*
X117776715Y-86209143D01*
X117776715Y-85875810D01*
X117586239Y-85875810D01*
X118205286Y-86304381D02*
X118205286Y-85304381D01*
X118776715Y-86304381D01*
X118776715Y-85304381D01*
X119252905Y-86304381D02*
X119252905Y-85304381D01*
X119491000Y-85304381D01*
X119633858Y-85352000D01*
X119729096Y-85447238D01*
X119776715Y-85542476D01*
X119824334Y-85732952D01*
X119824334Y-85875810D01*
X119776715Y-86066286D01*
X119729096Y-86161524D01*
X119633858Y-86256762D01*
X119491000Y-86304381D01*
X119252905Y-86304381D01*
X118689429Y-75366571D02*
X118832286Y-75414190D01*
X118879905Y-75461810D01*
X118927524Y-75557048D01*
X118927524Y-75699905D01*
X118879905Y-75795143D01*
X118832286Y-75842762D01*
X118737048Y-75890381D01*
X118356095Y-75890381D01*
X118356095Y-74890381D01*
X118689429Y-74890381D01*
X118784667Y-74938000D01*
X118832286Y-74985619D01*
X118879905Y-75080857D01*
X118879905Y-75176095D01*
X118832286Y-75271333D01*
X118784667Y-75318952D01*
X118689429Y-75366571D01*
X118356095Y-75366571D01*
X133619905Y-75731667D02*
X134096096Y-75731667D01*
X133524667Y-76017381D02*
X133858000Y-75017381D01*
X134191334Y-76017381D01*
X132126000Y-108042000D02*
X132126000Y-108142000D01*
X132126000Y-106742000D02*
X132126000Y-108042000D01*
X132126000Y-107442000D02*
X131426000Y-106642000D01*
X131426000Y-108242000D02*
X132126000Y-107442000D01*
X131426000Y-108242000D02*
X131426000Y-106642000D01*
X131318000Y-71247000D02*
X131318000Y-73787000D01*
X133858000Y-71247000D02*
X133858000Y-73787000D01*
X133858000Y-73787000D02*
X118618000Y-73787000D01*
X118618000Y-73787000D02*
X118618000Y-71247000D01*
X118618000Y-71247000D02*
X133858000Y-71247000D01*
X127919421Y-81934000D02*
G75*
G03X127919421Y-81934000I-141421J0D01*
G01*
X130278000Y-82334000D02*
X130278000Y-80734000D01*
X130278000Y-80734000D02*
X127278000Y-80734000D01*
X127278000Y-80734000D02*
X127278000Y-82334000D01*
X127278000Y-82334000D02*
X130278000Y-82334000D01*
X122839421Y-81934000D02*
G75*
G03X122839421Y-81934000I-141421J0D01*
G01*
X125198000Y-82334000D02*
X125198000Y-80734000D01*
X125198000Y-80734000D02*
X122198000Y-80734000D01*
X122198000Y-80734000D02*
X122198000Y-82334000D01*
X122198000Y-82334000D02*
X125198000Y-82334000D01*
X127438000Y-103108000D02*
G75*
G03X127438000Y-103108000I-200000J0D01*
G01*
X124738000Y-103608000D02*
X124738000Y-100608000D01*
X124738000Y-100608000D02*
X127738000Y-100608000D01*
X127738000Y-100608000D02*
X127738000Y-103608000D01*
X127738000Y-103608000D02*
X124738000Y-103608000D01*
X123338000Y-88805000D02*
X129138000Y-88805000D01*
X129138000Y-88805000D02*
X129138000Y-92805000D01*
X129138000Y-92805000D02*
X123338000Y-92805000D01*
X123338000Y-88805000D02*
X123338000Y-92805000D01*
X124061607Y-92305000D02*
G75*
G03X124061607Y-92305000I-223607J0D01*
G01*
X116238000Y-109890000D02*
X116238000Y-109390000D01*
X116238000Y-109390000D02*
X136238000Y-109390000D01*
X136238000Y-109390000D02*
X136238000Y-109890000D01*
X136238000Y-125690000D02*
X136238000Y-109890000D01*
X116238000Y-109890000D02*
X116238000Y-125690000D01*
X135338000Y-125690000D02*
X136238000Y-125690000D01*
X117138000Y-125690000D02*
X116238000Y-125690000D01*
X117138000Y-125690000D02*
X135338000Y-125690000D01*
X135707381Y-108180095D02*
X134707381Y-108180095D01*
X134707381Y-107942000D01*
X134755000Y-107799142D01*
X134850238Y-107703904D01*
X134945476Y-107656285D01*
X135135952Y-107608666D01*
X135278810Y-107608666D01*
X135469286Y-107656285D01*
X135564524Y-107703904D01*
X135659762Y-107799142D01*
X135707381Y-107942000D01*
X135707381Y-108180095D01*
X135707381Y-106656285D02*
X135707381Y-107227714D01*
X135707381Y-106942000D02*
X134707381Y-106942000D01*
X134850238Y-107037238D01*
X134945476Y-107132476D01*
X134993095Y-107227714D01*
X131492667Y-74255381D02*
X131492667Y-74969667D01*
X131445047Y-75112524D01*
X131349809Y-75207762D01*
X131206952Y-75255381D01*
X131111714Y-75255381D01*
X132492667Y-75255381D02*
X131921238Y-75255381D01*
X132206952Y-75255381D02*
X132206952Y-74255381D01*
X132111714Y-74398238D01*
X132016476Y-74493476D01*
X131921238Y-74541095D01*
X131611619Y-81629238D02*
X131564000Y-81724476D01*
X131468762Y-81819714D01*
X131325905Y-81962571D01*
X131278286Y-82057810D01*
X131278286Y-82153048D01*
X131516381Y-82105429D02*
X131468762Y-82200667D01*
X131373524Y-82295905D01*
X131183048Y-82343524D01*
X130849714Y-82343524D01*
X130659238Y-82295905D01*
X130564000Y-82200667D01*
X130516381Y-82105429D01*
X130516381Y-81914952D01*
X130564000Y-81819714D01*
X130659238Y-81724476D01*
X130849714Y-81676857D01*
X131183048Y-81676857D01*
X131373524Y-81724476D01*
X131468762Y-81819714D01*
X131516381Y-81914952D01*
X131516381Y-82105429D01*
X131516381Y-80724476D02*
X131516381Y-81295905D01*
X131516381Y-81010191D02*
X130516381Y-81010191D01*
X130659238Y-81105429D01*
X130754476Y-81200667D01*
X130802095Y-81295905D01*
X121745619Y-81629238D02*
X121698000Y-81724476D01*
X121602762Y-81819714D01*
X121459905Y-81962571D01*
X121412286Y-82057810D01*
X121412286Y-82153048D01*
X121650381Y-82105429D02*
X121602762Y-82200667D01*
X121507524Y-82295905D01*
X121317048Y-82343524D01*
X120983714Y-82343524D01*
X120793238Y-82295905D01*
X120698000Y-82200667D01*
X120650381Y-82105429D01*
X120650381Y-81914952D01*
X120698000Y-81819714D01*
X120793238Y-81724476D01*
X120983714Y-81676857D01*
X121317048Y-81676857D01*
X121507524Y-81724476D01*
X121602762Y-81819714D01*
X121650381Y-81914952D01*
X121650381Y-82105429D01*
X120745619Y-81295905D02*
X120698000Y-81248286D01*
X120650381Y-81153048D01*
X120650381Y-80914952D01*
X120698000Y-80819714D01*
X120745619Y-80772095D01*
X120840857Y-80724476D01*
X120936095Y-80724476D01*
X121078952Y-80772095D01*
X121650381Y-81343524D01*
X121650381Y-80724476D01*
X123642381Y-107608666D02*
X123166190Y-107942000D01*
X123642381Y-108180095D02*
X122642381Y-108180095D01*
X122642381Y-107799142D01*
X122690000Y-107703904D01*
X122737619Y-107656285D01*
X122832857Y-107608666D01*
X122975714Y-107608666D01*
X123070952Y-107656285D01*
X123118571Y-107703904D01*
X123166190Y-107799142D01*
X123166190Y-108180095D01*
X122737619Y-107227714D02*
X122690000Y-107180095D01*
X122642381Y-107084857D01*
X122642381Y-106846761D01*
X122690000Y-106751523D01*
X122737619Y-106703904D01*
X122832857Y-106656285D01*
X122928095Y-106656285D01*
X123070952Y-106703904D01*
X123642381Y-107275333D01*
X123642381Y-106656285D01*
X129611381Y-97829666D02*
X129135190Y-98163000D01*
X129611381Y-98401095D02*
X128611381Y-98401095D01*
X128611381Y-98020142D01*
X128659000Y-97924904D01*
X128706619Y-97877285D01*
X128801857Y-97829666D01*
X128944714Y-97829666D01*
X129039952Y-97877285D01*
X129087571Y-97924904D01*
X129135190Y-98020142D01*
X129135190Y-98401095D01*
X128611381Y-97496333D02*
X128611381Y-96877285D01*
X128992333Y-97210619D01*
X128992333Y-97067761D01*
X129039952Y-96972523D01*
X129087571Y-96924904D01*
X129182810Y-96877285D01*
X129420905Y-96877285D01*
X129516143Y-96924904D01*
X129563762Y-96972523D01*
X129611381Y-97067761D01*
X129611381Y-97353476D01*
X129563762Y-97448714D01*
X129516143Y-97496333D01*
X123896381Y-97829666D02*
X123420190Y-98163000D01*
X123896381Y-98401095D02*
X122896381Y-98401095D01*
X122896381Y-98020142D01*
X122944000Y-97924904D01*
X122991619Y-97877285D01*
X123086857Y-97829666D01*
X123229714Y-97829666D01*
X123324952Y-97877285D01*
X123372571Y-97924904D01*
X123420190Y-98020142D01*
X123420190Y-98401095D01*
X123229714Y-96972523D02*
X123896381Y-96972523D01*
X122848762Y-97210619D02*
X123563048Y-97448714D01*
X123563048Y-96829666D01*
X132278381Y-85256666D02*
X131802190Y-85590000D01*
X132278381Y-85828095D02*
X131278381Y-85828095D01*
X131278381Y-85447142D01*
X131326000Y-85351904D01*
X131373619Y-85304285D01*
X131468857Y-85256666D01*
X131611714Y-85256666D01*
X131706952Y-85304285D01*
X131754571Y-85351904D01*
X131802190Y-85447142D01*
X131802190Y-85828095D01*
X131278381Y-84351904D02*
X131278381Y-84828095D01*
X131754571Y-84875714D01*
X131706952Y-84828095D01*
X131659333Y-84732857D01*
X131659333Y-84494761D01*
X131706952Y-84399523D01*
X131754571Y-84351904D01*
X131849810Y-84304285D01*
X132087905Y-84304285D01*
X132183143Y-84351904D01*
X132230762Y-84399523D01*
X132278381Y-84494761D01*
X132278381Y-84732857D01*
X132230762Y-84828095D01*
X132183143Y-84875714D01*
X121102381Y-85256666D02*
X120626190Y-85590000D01*
X121102381Y-85828095D02*
X120102381Y-85828095D01*
X120102381Y-85447142D01*
X120150000Y-85351904D01*
X120197619Y-85304285D01*
X120292857Y-85256666D01*
X120435714Y-85256666D01*
X120530952Y-85304285D01*
X120578571Y-85351904D01*
X120626190Y-85447142D01*
X120626190Y-85828095D01*
X120102381Y-84399523D02*
X120102381Y-84590000D01*
X120150000Y-84685238D01*
X120197619Y-84732857D01*
X120340476Y-84828095D01*
X120530952Y-84875714D01*
X120911905Y-84875714D01*
X121007143Y-84828095D01*
X121054762Y-84780476D01*
X121102381Y-84685238D01*
X121102381Y-84494761D01*
X121054762Y-84399523D01*
X121007143Y-84351904D01*
X120911905Y-84304285D01*
X120673810Y-84304285D01*
X120578571Y-84351904D01*
X120530952Y-84399523D01*
X120483333Y-84494761D01*
X120483333Y-84685238D01*
X120530952Y-84780476D01*
X120578571Y-84828095D01*
X120673810Y-84875714D01*
X128611334Y-76906381D02*
X128278000Y-76430190D01*
X128039905Y-76906381D02*
X128039905Y-75906381D01*
X128420858Y-75906381D01*
X128516096Y-75954000D01*
X128563715Y-76001619D01*
X128611334Y-76096857D01*
X128611334Y-76239714D01*
X128563715Y-76334952D01*
X128516096Y-76382571D01*
X128420858Y-76430190D01*
X128039905Y-76430190D01*
X128944667Y-75906381D02*
X129611334Y-75906381D01*
X129182762Y-76906381D01*
X123531334Y-76906381D02*
X123198000Y-76430190D01*
X122959905Y-76906381D02*
X122959905Y-75906381D01*
X123340858Y-75906381D01*
X123436096Y-75954000D01*
X123483715Y-76001619D01*
X123531334Y-76096857D01*
X123531334Y-76239714D01*
X123483715Y-76334952D01*
X123436096Y-76382571D01*
X123340858Y-76430190D01*
X122959905Y-76430190D01*
X124102762Y-76334952D02*
X124007524Y-76287333D01*
X123959905Y-76239714D01*
X123912286Y-76144476D01*
X123912286Y-76096857D01*
X123959905Y-76001619D01*
X124007524Y-75954000D01*
X124102762Y-75906381D01*
X124293239Y-75906381D01*
X124388477Y-75954000D01*
X124436096Y-76001619D01*
X124483715Y-76096857D01*
X124483715Y-76144476D01*
X124436096Y-76239714D01*
X124388477Y-76287333D01*
X124293239Y-76334952D01*
X124102762Y-76334952D01*
X124007524Y-76382571D01*
X123959905Y-76430190D01*
X123912286Y-76525429D01*
X123912286Y-76715905D01*
X123959905Y-76811143D01*
X124007524Y-76858762D01*
X124102762Y-76906381D01*
X124293239Y-76906381D01*
X124388477Y-76858762D01*
X124436096Y-76811143D01*
X124483715Y-76715905D01*
X124483715Y-76525429D01*
X124436096Y-76430190D01*
X124388477Y-76382571D01*
X124293239Y-76334952D01*
X130770381Y-102869905D02*
X131579905Y-102869905D01*
X131675143Y-102822286D01*
X131722762Y-102774667D01*
X131770381Y-102679429D01*
X131770381Y-102488952D01*
X131722762Y-102393714D01*
X131675143Y-102346095D01*
X131579905Y-102298476D01*
X130770381Y-102298476D01*
X130865619Y-101869905D02*
X130818000Y-101822286D01*
X130770381Y-101727048D01*
X130770381Y-101488952D01*
X130818000Y-101393714D01*
X130865619Y-101346095D01*
X130960857Y-101298476D01*
X131056095Y-101298476D01*
X131198952Y-101346095D01*
X131770381Y-101917524D01*
X131770381Y-101298476D01*
X129490381Y-91566905D02*
X130299905Y-91566905D01*
X130395143Y-91519286D01*
X130442762Y-91471667D01*
X130490381Y-91376429D01*
X130490381Y-91185952D01*
X130442762Y-91090714D01*
X130395143Y-91043095D01*
X130299905Y-90995476D01*
X129490381Y-90995476D01*
X129490381Y-90614524D02*
X129490381Y-89995476D01*
X129871333Y-90328810D01*
X129871333Y-90185952D01*
X129918952Y-90090714D01*
X129966571Y-90043095D01*
X130061810Y-89995476D01*
X130299905Y-89995476D01*
X130395143Y-90043095D01*
X130442762Y-90090714D01*
X130490381Y-90185952D01*
X130490381Y-90471667D01*
X130442762Y-90566905D01*
X130395143Y-90614524D01*
X123547143Y-105195666D02*
X123594762Y-105243285D01*
X123642381Y-105386142D01*
X123642381Y-105481380D01*
X123594762Y-105624238D01*
X123499524Y-105719476D01*
X123404286Y-105767095D01*
X123213810Y-105814714D01*
X123070952Y-105814714D01*
X122880476Y-105767095D01*
X122785238Y-105719476D01*
X122690000Y-105624238D01*
X122642381Y-105481380D01*
X122642381Y-105386142D01*
X122690000Y-105243285D01*
X122737619Y-105195666D01*
X122642381Y-104862333D02*
X122642381Y-104195666D01*
X123642381Y-104624238D01*
X125499905Y-108642381D02*
X125499905Y-107642381D01*
X125880858Y-107642381D01*
X125976096Y-107690000D01*
X126023715Y-107737619D01*
X126071334Y-107832857D01*
X126071334Y-107975714D01*
X126023715Y-108070952D01*
X125976096Y-108118571D01*
X125880858Y-108166190D01*
X125499905Y-108166190D01*
X127023715Y-108642381D02*
X126452286Y-108642381D01*
X126738000Y-108642381D02*
X126738000Y-107642381D01*
X126642762Y-107785238D01*
X126547524Y-107880476D01*
X126452286Y-107928095D01*
M02*
