M48
;DRILL file {KiCad 4.0.6} date Tue Jul 25 23:33:41 2017
;FORMAT={2:4/ absolute / inch / keep zeros}
FMAT,2
INCH,TZ
T1C0.015
T2C0.030
T3C0.032
T4C0.051
T5C0.063
T6C0.094
%
G90
G05
M72
T1
X046900Y-033625
X047625Y-036375
X048750Y-035700
X048750Y-036725
X049700Y-032100
X051375Y-037525
X051775Y-038225
X052550Y-036400
X052625Y-034625
T2
X047200Y-028550
X048200Y-028550
X049200Y-028550
X050200Y-028550
X051200Y-028550
X052200Y-028550
T3
X048200Y-042326
X049200Y-042374
X050200Y-042326
X051200Y-042374
T4
X046747Y-044563
X047731Y-043579
X048716Y-048500
X049700Y-044563
X050684Y-048500
X051669Y-043579
X052653Y-044563
T5
X046700Y-031250
X049700Y-031250
X052700Y-031250
T6
X046747Y-046531
X052653Y-046531
T0
M30
