G04 #@! TF.FileFunction,Soldermask,Top*
%FSLAX46Y46*%
G04 Gerber Fmt 4.6, Leading zero omitted, Abs format (unit mm)*
G04 Created by KiCad (PCBNEW no-vcs-found-product) date Fri 17 Jul 2015 01:59:30 PM CDT*
%MOMM*%
G01*
G04 APERTURE LIST*
%ADD10C,0.100000*%
%ADD11R,2.000000X2.000000*%
%ADD12R,1.524000X1.524000*%
%ADD13C,1.524000*%
%ADD14R,0.600000X0.900000*%
%ADD15R,1.600000X1.500000*%
%ADD16R,1.500000X1.600000*%
%ADD17C,2.540000*%
%ADD18R,2.500000X0.450000*%
%ADD19R,0.700000X1.600000*%
%ADD20C,1.700000*%
%ADD21C,3.000000*%
G04 APERTURE END LIST*
D10*
D11*
X130226000Y-107442000D03*
X133426000Y-107442000D03*
D12*
X132588000Y-72517000D03*
D13*
X130048000Y-72517000D03*
X127508000Y-72517000D03*
X124968000Y-72517000D03*
X122428000Y-72517000D03*
X119888000Y-72517000D03*
D14*
X128778000Y-80134000D03*
X129728000Y-82934000D03*
X127828000Y-82934000D03*
X123698000Y-80134000D03*
X124648000Y-82934000D03*
X122748000Y-82934000D03*
D15*
X124811000Y-107442000D03*
X127411000Y-107442000D03*
D16*
X127508000Y-96363000D03*
X127508000Y-98963000D03*
X124968000Y-96363000D03*
X124968000Y-98963000D03*
D15*
X127478000Y-85090000D03*
X130078000Y-85090000D03*
X124998000Y-85090000D03*
X122398000Y-85090000D03*
X127478000Y-78105000D03*
X130078000Y-78105000D03*
X124998000Y-78105000D03*
X122398000Y-78105000D03*
D17*
X133858000Y-78105000D03*
X118618000Y-78105000D03*
X118745000Y-83185000D03*
D18*
X128963000Y-103083000D03*
X128963000Y-102433000D03*
X128963000Y-101783000D03*
X128963000Y-101133000D03*
X123513000Y-101133000D03*
X123513000Y-101783000D03*
X123513000Y-102433000D03*
X123513000Y-103083000D03*
D19*
X124333000Y-93905000D03*
X125603000Y-93905000D03*
X126873000Y-93905000D03*
X128143000Y-93905000D03*
X128143000Y-87705000D03*
X126873000Y-87705000D03*
X125603000Y-87705000D03*
X124333000Y-87705000D03*
D15*
X127411000Y-105029000D03*
X124811000Y-105029000D03*
D20*
X133738000Y-113190000D03*
X126238000Y-113190000D03*
X118738000Y-113190000D03*
X131238000Y-110690000D03*
X121238000Y-110690000D03*
X128738000Y-123190000D03*
X123738000Y-123190000D03*
D21*
X133738000Y-118190000D03*
X118738000Y-118190000D03*
M02*
