G04 #@! TF.FileFunction,Legend,Bot*
%FSLAX46Y46*%
G04 Gerber Fmt 4.6, Leading zero omitted, Abs format (unit mm)*
G04 Created by KiCad (PCBNEW no-vcs-found-product) date Fri 31 Jul 2015 10:51:20 PM CDT*
%MOMM*%
G01*
G04 APERTURE LIST*
%ADD10C,0.100000*%
%ADD11C,0.150000*%
G04 APERTURE END LIST*
D10*
D11*
X119194619Y-99742238D02*
X119670810Y-100075572D01*
X119194619Y-100313667D02*
X120194619Y-100313667D01*
X120194619Y-99932714D01*
X120147000Y-99837476D01*
X120099381Y-99789857D01*
X120004143Y-99742238D01*
X119861286Y-99742238D01*
X119766048Y-99789857D01*
X119718429Y-99837476D01*
X119670810Y-99932714D01*
X119670810Y-100313667D01*
X119242238Y-98932714D02*
X119194619Y-99027952D01*
X119194619Y-99218429D01*
X119242238Y-99313667D01*
X119337476Y-99361286D01*
X119718429Y-99361286D01*
X119813667Y-99313667D01*
X119861286Y-99218429D01*
X119861286Y-99027952D01*
X119813667Y-98932714D01*
X119718429Y-98885095D01*
X119623190Y-98885095D01*
X119527952Y-99361286D01*
X119861286Y-98551762D02*
X119194619Y-98313667D01*
X119861286Y-98075571D01*
X119194619Y-97694619D02*
X119861286Y-97694619D01*
X120194619Y-97694619D02*
X120147000Y-97742238D01*
X120099381Y-97694619D01*
X120147000Y-97647000D01*
X120194619Y-97694619D01*
X120099381Y-97694619D01*
X119242238Y-97266048D02*
X119194619Y-97170810D01*
X119194619Y-96980334D01*
X119242238Y-96885095D01*
X119337476Y-96837476D01*
X119385095Y-96837476D01*
X119480333Y-96885095D01*
X119527952Y-96980334D01*
X119527952Y-97123191D01*
X119575571Y-97218429D01*
X119670810Y-97266048D01*
X119718429Y-97266048D01*
X119813667Y-97218429D01*
X119861286Y-97123191D01*
X119861286Y-96980334D01*
X119813667Y-96885095D01*
X119194619Y-96408905D02*
X119861286Y-96408905D01*
X120194619Y-96408905D02*
X120147000Y-96456524D01*
X120099381Y-96408905D01*
X120147000Y-96361286D01*
X120194619Y-96408905D01*
X120099381Y-96408905D01*
X119194619Y-95789858D02*
X119242238Y-95885096D01*
X119289857Y-95932715D01*
X119385095Y-95980334D01*
X119670810Y-95980334D01*
X119766048Y-95932715D01*
X119813667Y-95885096D01*
X119861286Y-95789858D01*
X119861286Y-95647000D01*
X119813667Y-95551762D01*
X119766048Y-95504143D01*
X119670810Y-95456524D01*
X119385095Y-95456524D01*
X119289857Y-95504143D01*
X119242238Y-95551762D01*
X119194619Y-95647000D01*
X119194619Y-95789858D01*
X119861286Y-95027953D02*
X119194619Y-95027953D01*
X119766048Y-95027953D02*
X119813667Y-94980334D01*
X119861286Y-94885096D01*
X119861286Y-94742238D01*
X119813667Y-94647000D01*
X119718429Y-94599381D01*
X119194619Y-94599381D01*
X119480333Y-93408905D02*
X119480333Y-92932714D01*
X119194619Y-93504143D02*
X120194619Y-93170810D01*
X119194619Y-92837476D01*
X117644619Y-106813667D02*
X118644619Y-106813667D01*
X118644619Y-106575572D01*
X118597000Y-106432714D01*
X118501762Y-106337476D01*
X118406524Y-106289857D01*
X118216048Y-106242238D01*
X118073190Y-106242238D01*
X117882714Y-106289857D01*
X117787476Y-106337476D01*
X117692238Y-106432714D01*
X117644619Y-106575572D01*
X117644619Y-106813667D01*
X117692238Y-105432714D02*
X117644619Y-105527952D01*
X117644619Y-105718429D01*
X117692238Y-105813667D01*
X117787476Y-105861286D01*
X118168429Y-105861286D01*
X118263667Y-105813667D01*
X118311286Y-105718429D01*
X118311286Y-105527952D01*
X118263667Y-105432714D01*
X118168429Y-105385095D01*
X118073190Y-105385095D01*
X117977952Y-105861286D01*
X117692238Y-105004143D02*
X117644619Y-104908905D01*
X117644619Y-104718429D01*
X117692238Y-104623190D01*
X117787476Y-104575571D01*
X117835095Y-104575571D01*
X117930333Y-104623190D01*
X117977952Y-104718429D01*
X117977952Y-104861286D01*
X118025571Y-104956524D01*
X118120810Y-105004143D01*
X118168429Y-105004143D01*
X118263667Y-104956524D01*
X118311286Y-104861286D01*
X118311286Y-104718429D01*
X118263667Y-104623190D01*
X117644619Y-104147000D02*
X118311286Y-104147000D01*
X118644619Y-104147000D02*
X118597000Y-104194619D01*
X118549381Y-104147000D01*
X118597000Y-104099381D01*
X118644619Y-104147000D01*
X118549381Y-104147000D01*
X118311286Y-103242238D02*
X117501762Y-103242238D01*
X117406524Y-103289857D01*
X117358905Y-103337476D01*
X117311286Y-103432715D01*
X117311286Y-103575572D01*
X117358905Y-103670810D01*
X117692238Y-103242238D02*
X117644619Y-103337476D01*
X117644619Y-103527953D01*
X117692238Y-103623191D01*
X117739857Y-103670810D01*
X117835095Y-103718429D01*
X118120810Y-103718429D01*
X118216048Y-103670810D01*
X118263667Y-103623191D01*
X118311286Y-103527953D01*
X118311286Y-103337476D01*
X118263667Y-103242238D01*
X118311286Y-102766048D02*
X117644619Y-102766048D01*
X118216048Y-102766048D02*
X118263667Y-102718429D01*
X118311286Y-102623191D01*
X118311286Y-102480333D01*
X118263667Y-102385095D01*
X118168429Y-102337476D01*
X117644619Y-102337476D01*
X117692238Y-101480333D02*
X117644619Y-101575571D01*
X117644619Y-101766048D01*
X117692238Y-101861286D01*
X117787476Y-101908905D01*
X118168429Y-101908905D01*
X118263667Y-101861286D01*
X118311286Y-101766048D01*
X118311286Y-101575571D01*
X118263667Y-101480333D01*
X118168429Y-101432714D01*
X118073190Y-101432714D01*
X117977952Y-101908905D01*
X117644619Y-100575571D02*
X118644619Y-100575571D01*
X117692238Y-100575571D02*
X117644619Y-100670809D01*
X117644619Y-100861286D01*
X117692238Y-100956524D01*
X117739857Y-101004143D01*
X117835095Y-101051762D01*
X118120810Y-101051762D01*
X118216048Y-101004143D01*
X118263667Y-100956524D01*
X118311286Y-100861286D01*
X118311286Y-100670809D01*
X118263667Y-100575571D01*
X117644619Y-99337476D02*
X118644619Y-99337476D01*
X118263667Y-99337476D02*
X118311286Y-99242238D01*
X118311286Y-99051761D01*
X118263667Y-98956523D01*
X118216048Y-98908904D01*
X118120810Y-98861285D01*
X117835095Y-98861285D01*
X117739857Y-98908904D01*
X117692238Y-98956523D01*
X117644619Y-99051761D01*
X117644619Y-99242238D01*
X117692238Y-99337476D01*
X118311286Y-98527952D02*
X117644619Y-98289857D01*
X118311286Y-98051761D02*
X117644619Y-98289857D01*
X117406524Y-98385095D01*
X117358905Y-98432714D01*
X117311286Y-98527952D01*
X117739857Y-97670809D02*
X117692238Y-97623190D01*
X117644619Y-97670809D01*
X117692238Y-97718428D01*
X117739857Y-97670809D01*
X117644619Y-97670809D01*
X118263667Y-97670809D02*
X118216048Y-97623190D01*
X118168429Y-97670809D01*
X118216048Y-97718428D01*
X118263667Y-97670809D01*
X118168429Y-97670809D01*
X117644619Y-96432714D02*
X118644619Y-96432714D01*
X117644619Y-95527952D02*
X118168429Y-95527952D01*
X118263667Y-95575571D01*
X118311286Y-95670809D01*
X118311286Y-95861286D01*
X118263667Y-95956524D01*
X117692238Y-95527952D02*
X117644619Y-95623190D01*
X117644619Y-95861286D01*
X117692238Y-95956524D01*
X117787476Y-96004143D01*
X117882714Y-96004143D01*
X117977952Y-95956524D01*
X118025571Y-95861286D01*
X118025571Y-95623190D01*
X118073190Y-95527952D01*
X118311286Y-95051762D02*
X117644619Y-95051762D01*
X118216048Y-95051762D02*
X118263667Y-95004143D01*
X118311286Y-94908905D01*
X118311286Y-94766047D01*
X118263667Y-94670809D01*
X118168429Y-94623190D01*
X117644619Y-94623190D01*
X117644619Y-93385095D02*
X118644619Y-93385095D01*
X117930333Y-93051761D01*
X118644619Y-92718428D01*
X117644619Y-92718428D01*
X117692238Y-91813666D02*
X117644619Y-91908904D01*
X117644619Y-92099381D01*
X117692238Y-92194619D01*
X117739857Y-92242238D01*
X117835095Y-92289857D01*
X118120810Y-92289857D01*
X118216048Y-92242238D01*
X118263667Y-92194619D01*
X118311286Y-92099381D01*
X118311286Y-91908904D01*
X118263667Y-91813666D01*
X117644619Y-91385095D02*
X118644619Y-91385095D01*
X118311286Y-90908905D02*
X117644619Y-90908905D01*
X118216048Y-90908905D02*
X118263667Y-90861286D01*
X118311286Y-90766048D01*
X118311286Y-90623190D01*
X118263667Y-90527952D01*
X118168429Y-90480333D01*
X117644619Y-90480333D01*
X117692238Y-89623190D02*
X117644619Y-89718428D01*
X117644619Y-89908905D01*
X117692238Y-90004143D01*
X117787476Y-90051762D01*
X118168429Y-90051762D01*
X118263667Y-90004143D01*
X118311286Y-89908905D01*
X118311286Y-89718428D01*
X118263667Y-89623190D01*
X118168429Y-89575571D01*
X118073190Y-89575571D01*
X117977952Y-90051762D01*
X117644619Y-89147000D02*
X118311286Y-89147000D01*
X118120810Y-89147000D02*
X118216048Y-89099381D01*
X118263667Y-89051762D01*
X118311286Y-88956524D01*
X118311286Y-88861285D01*
X118311286Y-88527952D02*
X117644619Y-88527952D01*
X118216048Y-88527952D02*
X118263667Y-88480333D01*
X118311286Y-88385095D01*
X118311286Y-88242237D01*
X118263667Y-88146999D01*
X118168429Y-88099380D01*
X117644619Y-88099380D01*
X117692238Y-87242237D02*
X117644619Y-87337475D01*
X117644619Y-87527952D01*
X117692238Y-87623190D01*
X117787476Y-87670809D01*
X118168429Y-87670809D01*
X118263667Y-87623190D01*
X118311286Y-87527952D01*
X118311286Y-87337475D01*
X118263667Y-87242237D01*
X118168429Y-87194618D01*
X118073190Y-87194618D01*
X117977952Y-87670809D01*
X118311286Y-86861285D02*
X117644619Y-86623190D01*
X118311286Y-86385094D02*
X117644619Y-86623190D01*
X117406524Y-86718428D01*
X117358905Y-86766047D01*
X117311286Y-86861285D01*
X129365000Y-93448000D02*
G75*
G03X129365000Y-93448000I-200000J0D01*
G01*
X129665000Y-89648000D02*
X123065000Y-89648000D01*
X123065000Y-89648000D02*
X123065000Y-94248000D01*
X123065000Y-94248000D02*
X129665000Y-94248000D01*
X129665000Y-94248000D02*
X129665000Y-89648000D01*
X122658143Y-99655334D02*
X122705762Y-99607715D01*
X122753381Y-99464858D01*
X122753381Y-99369620D01*
X122705762Y-99226762D01*
X122610524Y-99131524D01*
X122515286Y-99083905D01*
X122324810Y-99036286D01*
X122181952Y-99036286D01*
X121991476Y-99083905D01*
X121896238Y-99131524D01*
X121801000Y-99226762D01*
X121753381Y-99369620D01*
X121753381Y-99464858D01*
X121801000Y-99607715D01*
X121848619Y-99655334D01*
X122753381Y-100607715D02*
X122753381Y-100036286D01*
X122753381Y-100322000D02*
X121753381Y-100322000D01*
X121896238Y-100226762D01*
X121991476Y-100131524D01*
X122039095Y-100036286D01*
X122785143Y-84034334D02*
X122832762Y-83986715D01*
X122880381Y-83843858D01*
X122880381Y-83748620D01*
X122832762Y-83605762D01*
X122737524Y-83510524D01*
X122642286Y-83462905D01*
X122451810Y-83415286D01*
X122308952Y-83415286D01*
X122118476Y-83462905D01*
X122023238Y-83510524D01*
X121928000Y-83605762D01*
X121880381Y-83748620D01*
X121880381Y-83843858D01*
X121928000Y-83986715D01*
X121975619Y-84034334D01*
X121975619Y-84415286D02*
X121928000Y-84462905D01*
X121880381Y-84558143D01*
X121880381Y-84796239D01*
X121928000Y-84891477D01*
X121975619Y-84939096D01*
X122070857Y-84986715D01*
X122166095Y-84986715D01*
X122308952Y-84939096D01*
X122880381Y-84367667D01*
X122880381Y-84986715D01*
X122785143Y-97115334D02*
X122832762Y-97067715D01*
X122880381Y-96924858D01*
X122880381Y-96829620D01*
X122832762Y-96686762D01*
X122737524Y-96591524D01*
X122642286Y-96543905D01*
X122451810Y-96496286D01*
X122308952Y-96496286D01*
X122118476Y-96543905D01*
X122023238Y-96591524D01*
X121928000Y-96686762D01*
X121880381Y-96829620D01*
X121880381Y-96924858D01*
X121928000Y-97067715D01*
X121975619Y-97115334D01*
X121880381Y-97448667D02*
X121880381Y-98067715D01*
X122261333Y-97734381D01*
X122261333Y-97877239D01*
X122308952Y-97972477D01*
X122356571Y-98020096D01*
X122451810Y-98067715D01*
X122689905Y-98067715D01*
X122785143Y-98020096D01*
X122832762Y-97972477D01*
X122880381Y-97877239D01*
X122880381Y-97591524D01*
X122832762Y-97496286D01*
X122785143Y-97448667D01*
X122785143Y-86574334D02*
X122832762Y-86526715D01*
X122880381Y-86383858D01*
X122880381Y-86288620D01*
X122832762Y-86145762D01*
X122737524Y-86050524D01*
X122642286Y-86002905D01*
X122451810Y-85955286D01*
X122308952Y-85955286D01*
X122118476Y-86002905D01*
X122023238Y-86050524D01*
X121928000Y-86145762D01*
X121880381Y-86288620D01*
X121880381Y-86383858D01*
X121928000Y-86526715D01*
X121975619Y-86574334D01*
X122213714Y-87431477D02*
X122880381Y-87431477D01*
X121832762Y-87193381D02*
X122547048Y-86955286D01*
X122547048Y-87574334D01*
X130913143Y-85304334D02*
X130960762Y-85256715D01*
X131008381Y-85113858D01*
X131008381Y-85018620D01*
X130960762Y-84875762D01*
X130865524Y-84780524D01*
X130770286Y-84732905D01*
X130579810Y-84685286D01*
X130436952Y-84685286D01*
X130246476Y-84732905D01*
X130151238Y-84780524D01*
X130056000Y-84875762D01*
X130008381Y-85018620D01*
X130008381Y-85113858D01*
X130056000Y-85256715D01*
X130103619Y-85304334D01*
X130008381Y-86209096D02*
X130008381Y-85732905D01*
X130484571Y-85685286D01*
X130436952Y-85732905D01*
X130389333Y-85828143D01*
X130389333Y-86066239D01*
X130436952Y-86161477D01*
X130484571Y-86209096D01*
X130579810Y-86256715D01*
X130817905Y-86256715D01*
X130913143Y-86209096D01*
X130960762Y-86161477D01*
X131008381Y-86066239D01*
X131008381Y-85828143D01*
X130960762Y-85732905D01*
X130913143Y-85685286D01*
X121229381Y-74890334D02*
X120753190Y-74557000D01*
X121229381Y-74318905D02*
X120229381Y-74318905D01*
X120229381Y-74699858D01*
X120277000Y-74795096D01*
X120324619Y-74842715D01*
X120419857Y-74890334D01*
X120562714Y-74890334D01*
X120657952Y-74842715D01*
X120705571Y-74795096D01*
X120753190Y-74699858D01*
X120753190Y-74318905D01*
X121229381Y-75842715D02*
X121229381Y-75271286D01*
X121229381Y-75557000D02*
X120229381Y-75557000D01*
X120372238Y-75461762D01*
X120467476Y-75366524D01*
X120515095Y-75271286D01*
X129881381Y-91186095D02*
X130690905Y-91186095D01*
X130786143Y-91233714D01*
X130833762Y-91281333D01*
X130881381Y-91376571D01*
X130881381Y-91567048D01*
X130833762Y-91662286D01*
X130786143Y-91709905D01*
X130690905Y-91757524D01*
X129881381Y-91757524D01*
X130881381Y-92757524D02*
X130881381Y-92186095D01*
X130881381Y-92471809D02*
X129881381Y-92471809D01*
X130024238Y-92376571D01*
X130119476Y-92281333D01*
X130167095Y-92186095D01*
X130913143Y-98385334D02*
X130960762Y-98337715D01*
X131008381Y-98194858D01*
X131008381Y-98099620D01*
X130960762Y-97956762D01*
X130865524Y-97861524D01*
X130770286Y-97813905D01*
X130579810Y-97766286D01*
X130436952Y-97766286D01*
X130246476Y-97813905D01*
X130151238Y-97861524D01*
X130056000Y-97956762D01*
X130008381Y-98099620D01*
X130008381Y-98194858D01*
X130056000Y-98337715D01*
X130103619Y-98385334D01*
X130008381Y-99242477D02*
X130008381Y-99052000D01*
X130056000Y-98956762D01*
X130103619Y-98909143D01*
X130246476Y-98813905D01*
X130436952Y-98766286D01*
X130817905Y-98766286D01*
X130913143Y-98813905D01*
X130960762Y-98861524D01*
X131008381Y-98956762D01*
X131008381Y-99147239D01*
X130960762Y-99242477D01*
X130913143Y-99290096D01*
X130817905Y-99337715D01*
X130579810Y-99337715D01*
X130484571Y-99290096D01*
X130436952Y-99242477D01*
X130389333Y-99147239D01*
X130389333Y-98956762D01*
X130436952Y-98861524D01*
X130484571Y-98813905D01*
X130579810Y-98766286D01*
M02*
