G04 #@! TF.FileFunction,Copper,L1,Top,Signal*
%FSLAX46Y46*%
G04 Gerber Fmt 4.6, Leading zero omitted, Abs format (unit mm)*
G04 Created by KiCad (PCBNEW 4.0.6) date Mon Oct  9 23:18:08 2017*
%MOMM*%
%LPD*%
G01*
G04 APERTURE LIST*
%ADD10C,0.100000*%
%ADD11R,2.000000X2.000000*%
%ADD12R,1.600000X1.500000*%
%ADD13R,1.500000X1.600000*%
%ADD14C,2.540000*%
%ADD15C,1.700000*%
%ADD16C,3.000000*%
%ADD17C,1.397000*%
%ADD18R,1.397000X1.397000*%
%ADD19R,0.900000X0.600000*%
%ADD20R,1.701800X1.701800*%
%ADD21C,1.778000*%
%ADD22C,0.635000*%
%ADD23C,0.250000*%
%ADD24C,0.152400*%
G04 APERTURE END LIST*
D10*
D11*
X133477000Y-97485000D03*
X133477000Y-94285000D03*
D12*
X127538000Y-82677000D03*
X124938000Y-82677000D03*
D13*
X133477000Y-102646000D03*
X133477000Y-100046000D03*
X127508000Y-97760000D03*
X127508000Y-100360000D03*
X124968000Y-97760000D03*
X124968000Y-100360000D03*
D14*
X133858000Y-79375000D03*
X118618000Y-79375000D03*
X126238000Y-79375000D03*
D13*
X133921500Y-84933000D03*
X133921500Y-87533000D03*
D15*
X133738000Y-113190000D03*
X126238000Y-113190000D03*
X118738000Y-113190000D03*
X131238000Y-110690000D03*
X121238000Y-110690000D03*
X128738000Y-123190000D03*
X123738000Y-123190000D03*
D16*
X133738000Y-118190000D03*
X118738000Y-118190000D03*
D17*
X127508000Y-107508040D03*
X124968000Y-107629960D03*
D18*
X130048000Y-107629960D03*
D17*
X122428000Y-107508040D03*
D13*
X127317500Y-84996500D03*
X127317500Y-87596500D03*
D19*
X127505000Y-93345000D03*
X130305000Y-92395000D03*
X130305000Y-94295000D03*
X122171000Y-92395000D03*
X122171000Y-94295000D03*
X124971000Y-93345000D03*
D20*
X132588000Y-72517000D03*
D21*
X130048000Y-72517000D03*
X127508000Y-72517000D03*
X124968000Y-72517000D03*
X122428000Y-72517000D03*
X119888000Y-72517000D03*
D19*
X131956000Y-87183000D03*
X129156000Y-86233000D03*
X131956000Y-85283000D03*
X129156000Y-87183000D03*
X129156000Y-85283000D03*
X131956000Y-86233000D03*
X123320000Y-87183000D03*
X120520000Y-86233000D03*
X123320000Y-85283000D03*
X120520000Y-87183000D03*
X120520000Y-85283000D03*
X123320000Y-86233000D03*
D13*
X125158500Y-84996500D03*
X125158500Y-87596500D03*
X118681500Y-84933000D03*
X118681500Y-87533000D03*
D22*
X121348500Y-85407500D03*
X127538000Y-82677000D03*
X127317500Y-84996500D03*
X130302000Y-93345000D03*
X118681500Y-89090500D03*
X135318500Y-87503000D03*
X120967500Y-92392500D03*
X133477000Y-92456000D03*
X130175000Y-86868000D03*
X131508500Y-97091500D03*
X131956000Y-86233000D03*
X130619500Y-95948500D03*
X131956000Y-84204000D03*
D23*
X121224000Y-85283000D02*
X120520000Y-85283000D01*
X121348500Y-85407500D02*
X121224000Y-85283000D01*
X127476250Y-82615250D02*
X127538000Y-82677000D01*
X127538000Y-84776000D02*
X127317500Y-84996500D01*
X129156000Y-85283000D02*
X127604000Y-85283000D01*
X127604000Y-85283000D02*
X127317500Y-84996500D01*
X120520000Y-85283000D02*
X119031500Y-85283000D01*
X119031500Y-85283000D02*
X118681500Y-84933000D01*
X130305000Y-94295000D02*
X130305000Y-93348000D01*
X130305000Y-93348000D02*
X130302000Y-93345000D01*
X120520000Y-86233000D02*
X121158000Y-86233000D01*
X122618500Y-88265000D02*
X124490000Y-88265000D01*
X121539000Y-87185500D02*
X122618500Y-88265000D01*
X121539000Y-86614000D02*
X121539000Y-87185500D01*
X121158000Y-86233000D02*
X121539000Y-86614000D01*
X124490000Y-88265000D02*
X125158500Y-87596500D01*
X118681500Y-87533000D02*
X118681500Y-89090500D01*
X133921500Y-87533000D02*
X135288500Y-87533000D01*
X135288500Y-87533000D02*
X135318500Y-87503000D01*
X120520000Y-86233000D02*
X118872000Y-86233000D01*
X118681500Y-86423500D02*
X118681500Y-87533000D01*
X118872000Y-86233000D02*
X118681500Y-86423500D01*
X129156000Y-86233000D02*
X127571500Y-86233000D01*
X127317500Y-86487000D02*
X127317500Y-87596500D01*
X127571500Y-86233000D02*
X127317500Y-86487000D01*
X125158500Y-87596500D02*
X127317500Y-87596500D01*
X122171000Y-92395000D02*
X120970000Y-92395000D01*
X120970000Y-92395000D02*
X120967500Y-92392500D01*
X133477000Y-94285000D02*
X133477000Y-92456000D01*
X131956000Y-85283000D02*
X131193500Y-85283000D01*
X130968750Y-85058250D02*
X131000500Y-85058250D01*
X131193500Y-85283000D02*
X130968750Y-85058250D01*
X130175000Y-85915500D02*
X130175000Y-85852000D01*
X130175000Y-85852000D02*
X131000500Y-85026500D01*
X130175000Y-86868000D02*
X130175000Y-85915500D01*
X131000500Y-85058250D02*
X131000500Y-85026500D01*
X125730000Y-83820000D02*
X130429000Y-83820000D01*
X131000500Y-84391500D02*
X131000500Y-85058250D01*
X125158500Y-84391500D02*
X125730000Y-83820000D01*
X130429000Y-83820000D02*
X131000500Y-84391500D01*
X125158500Y-84996500D02*
X125158500Y-84391500D01*
X131956000Y-85283000D02*
X133571500Y-85283000D01*
X133571500Y-85283000D02*
X133921500Y-84933000D01*
X123320000Y-85283000D02*
X124872000Y-85283000D01*
X124872000Y-85283000D02*
X125158500Y-84996500D01*
X133477000Y-102646000D02*
X131826000Y-102646000D01*
X131826000Y-102646000D02*
X131826000Y-102743000D01*
X130048000Y-107629960D02*
X131826000Y-107629960D01*
X131826000Y-107629960D02*
X131826000Y-107569000D01*
X131826000Y-104775000D02*
X131826000Y-102743000D01*
X131826000Y-102743000D02*
X131826000Y-97536000D01*
X131572000Y-97282000D02*
X131826000Y-97536000D01*
X131572000Y-97155000D02*
X131572000Y-97282000D01*
X131572000Y-97155000D02*
X131508500Y-97091500D01*
X131826000Y-105283000D02*
X131826000Y-104775000D01*
X131826000Y-107569000D02*
X131826000Y-105283000D01*
X131826000Y-110102000D02*
X131826000Y-107569000D01*
X131826000Y-110102000D02*
X131238000Y-110690000D01*
X133477000Y-97485000D02*
X133477000Y-100046000D01*
X131956000Y-87183000D02*
X132717500Y-87183000D01*
X135191500Y-80708500D02*
X133858000Y-79375000D01*
X135191500Y-86106000D02*
X135191500Y-80708500D01*
X135064500Y-86233000D02*
X135191500Y-86106000D01*
X132905500Y-86233000D02*
X135064500Y-86233000D01*
X132778500Y-86360000D02*
X132905500Y-86233000D01*
X132778500Y-87122000D02*
X132778500Y-86360000D01*
X132717500Y-87183000D02*
X132778500Y-87122000D01*
X133858000Y-79375000D02*
X133858000Y-78867000D01*
X133858000Y-78867000D02*
X132588000Y-77597000D01*
X132588000Y-77597000D02*
X132588000Y-72517000D01*
X122047000Y-79819500D02*
X119062500Y-79819500D01*
X119062500Y-79819500D02*
X118618000Y-79375000D01*
X123320000Y-87183000D02*
X122298500Y-87183000D01*
X122047000Y-79819500D02*
X122491500Y-79375000D01*
X122047000Y-86931500D02*
X122047000Y-79819500D01*
X122298500Y-87183000D02*
X122047000Y-86931500D01*
X123698000Y-73787000D02*
X124968000Y-72517000D01*
X123698000Y-78168500D02*
X123698000Y-73787000D01*
X122491500Y-79375000D02*
X123698000Y-78168500D01*
X118618000Y-79375000D02*
X118618000Y-78867000D01*
X127508000Y-107508040D02*
X127508000Y-100360000D01*
X118738000Y-113190000D02*
X123030000Y-113190000D01*
X127508000Y-108712000D02*
X127508000Y-107508040D01*
X123030000Y-113190000D02*
X127508000Y-108712000D01*
X118832000Y-113284000D02*
X118738000Y-113190000D01*
X127127000Y-100741000D02*
X127508000Y-100360000D01*
X124968000Y-100360000D02*
X124968000Y-107629960D01*
X121238000Y-110690000D02*
X122736000Y-110690000D01*
X122736000Y-110690000D02*
X124968000Y-108458000D01*
X124968000Y-108458000D02*
X124968000Y-107629960D01*
X121238000Y-110690000D02*
X120469000Y-110690000D01*
X125349000Y-100741000D02*
X124968000Y-100360000D01*
D24*
X131956000Y-86233000D02*
X131254500Y-86233000D01*
X131254500Y-95313500D02*
X130619500Y-95948500D01*
X131254500Y-88011000D02*
X131254500Y-95313500D01*
X131000500Y-87757000D02*
X131254500Y-88011000D01*
X131000500Y-86487000D02*
X131000500Y-87757000D01*
X131254500Y-86233000D02*
X131000500Y-86487000D01*
X124523500Y-81407000D02*
X124333000Y-81597500D01*
X124396500Y-81470500D02*
X124333000Y-81470500D01*
X124333000Y-81534000D02*
X124396500Y-81470500D01*
X124333000Y-81597500D02*
X124333000Y-81534000D01*
X131956000Y-82743500D02*
X131956000Y-82108500D01*
X131956000Y-84204000D02*
X131956000Y-82743500D01*
X124523500Y-81407000D02*
X124333000Y-81216500D01*
X131254500Y-81407000D02*
X124523500Y-81407000D01*
X131956000Y-82108500D02*
X131254500Y-81407000D01*
X131956000Y-84204000D02*
X131953000Y-84201000D01*
X123320000Y-86233000D02*
X122682000Y-86233000D01*
X123063000Y-82677000D02*
X124938000Y-82677000D01*
X122555000Y-83185000D02*
X123063000Y-82677000D01*
X122555000Y-86106000D02*
X122555000Y-83185000D01*
X122682000Y-86233000D02*
X122555000Y-86106000D01*
X124333000Y-81724500D02*
X124333000Y-82072000D01*
X124333000Y-82072000D02*
X124938000Y-82677000D01*
D23*
X127508000Y-72517000D02*
X127508000Y-75247500D01*
X127508000Y-75247500D02*
X126555500Y-76200000D01*
X126555500Y-76200000D02*
X124841000Y-76200000D01*
X124841000Y-76200000D02*
X124333000Y-76708000D01*
X124333000Y-76708000D02*
X124333000Y-81216500D01*
X124333000Y-81216500D02*
X124333000Y-81470500D01*
X124333000Y-81470500D02*
X124333000Y-81724500D01*
X124333000Y-81724500D02*
X124333000Y-82199000D01*
X124333000Y-82199000D02*
X124938000Y-82804000D01*
X127505000Y-93345000D02*
X127505000Y-92141500D01*
X129156000Y-90490500D02*
X129156000Y-87183000D01*
X127505000Y-92141500D02*
X129156000Y-90490500D01*
X127508000Y-97760000D02*
X127508000Y-93348000D01*
X127508000Y-93348000D02*
X127505000Y-93345000D01*
X124971000Y-93345000D02*
X124971000Y-92141500D01*
X120520000Y-89659000D02*
X120520000Y-87183000D01*
X121221500Y-90360500D02*
X120520000Y-89659000D01*
X123190000Y-90360500D02*
X121221500Y-90360500D01*
X124971000Y-92141500D02*
X123190000Y-90360500D01*
X124968000Y-97760000D02*
X124968000Y-93348000D01*
X124968000Y-93348000D02*
X124971000Y-93345000D01*
M02*
