M48
;DRILL file {KiCad 4.0.6} date Mon Oct  9 23:18:10 2017
;FORMAT={2:4/ absolute / inch / keep zeros}
FMAT,2
INCH,TZ
T1C0.015
T2C0.032
T3C0.039
T4C0.051
T5C0.063
T6C0.094
%
G90
G05
M72
T1
X046725Y-035075
X047625Y-036375
X047775Y-033625
X050125Y-033463
X050212Y-032550
X051250Y-034200
X051300Y-036750
X051425Y-037775
X051775Y-038225
X051951Y-033151
X051951Y-033950
X052550Y-036400
X053275Y-034450
T2
X048200Y-042326
X049200Y-042374
X050200Y-042326
X051200Y-042374
T3
X047200Y-028550
X048200Y-028550
X049200Y-028550
X050200Y-028550
X051200Y-028550
X052200Y-028550
T4
X046747Y-044563
X047731Y-043579
X048716Y-048500
X049700Y-044563
X050684Y-048500
X051669Y-043579
X052653Y-044563
T5
X046700Y-031250
X049700Y-031250
X052700Y-031250
T6
X046747Y-046531
X052653Y-046531
T0
M30
