G04 #@! TF.FileFunction,Copper,L2,Bot,Signal*
%FSLAX46Y46*%
G04 Gerber Fmt 4.6, Leading zero omitted, Abs format (unit mm)*
G04 Created by KiCad (PCBNEW 4.0.6) date Tue Oct 10 10:25:47 2017*
%MOMM*%
%LPD*%
G01*
G04 APERTURE LIST*
%ADD10C,0.100000*%
%ADD11R,1.600000X1.500000*%
%ADD12R,1.500000X1.600000*%
%ADD13C,2.540000*%
%ADD14C,1.700000*%
%ADD15C,3.000000*%
%ADD16C,1.397000*%
%ADD17R,1.397000X1.397000*%
%ADD18R,0.400000X1.600000*%
%ADD19R,3.380000X2.400000*%
%ADD20R,1.701800X1.701800*%
%ADD21C,1.778000*%
%ADD22C,0.635000*%
%ADD23C,0.250000*%
%ADD24C,0.152400*%
%ADD25C,0.254000*%
G04 APERTURE END LIST*
D10*
D11*
X126649000Y-99822000D03*
X124049000Y-99822000D03*
X126649000Y-84201000D03*
X124049000Y-84201000D03*
X126649000Y-97282000D03*
X124049000Y-97282000D03*
X126649000Y-86741000D03*
X124049000Y-86741000D03*
D12*
X128905000Y-86771000D03*
X128905000Y-84171000D03*
D13*
X133858000Y-79375000D03*
X118618000Y-79375000D03*
X126238000Y-79375000D03*
D12*
X128905000Y-97252000D03*
X128905000Y-99852000D03*
D14*
X133738000Y-113190000D03*
X126238000Y-113190000D03*
X118738000Y-113190000D03*
X131238000Y-110690000D03*
X121238000Y-110690000D03*
X128738000Y-123190000D03*
X123738000Y-123190000D03*
D15*
X133738000Y-118190000D03*
X118738000Y-118190000D03*
D16*
X127508000Y-107508040D03*
X124968000Y-107629960D03*
D17*
X130048000Y-107629960D03*
D16*
X122428000Y-107508040D03*
D18*
X129290000Y-94748000D03*
X128640000Y-94748000D03*
X127990000Y-94748000D03*
X127340000Y-94748000D03*
X126690000Y-94748000D03*
X126040000Y-94748000D03*
X125390000Y-94748000D03*
X124740000Y-94748000D03*
X124090000Y-94748000D03*
X123440000Y-94748000D03*
X123440000Y-89148000D03*
X124090000Y-89148000D03*
X124740000Y-89148000D03*
X125390000Y-89148000D03*
X126040000Y-89148000D03*
X126690000Y-89148000D03*
X127340000Y-89148000D03*
X127990000Y-89148000D03*
X128640000Y-89148000D03*
X129290000Y-89148000D03*
D19*
X126365000Y-91948000D03*
D20*
X132588000Y-72517000D03*
D21*
X130048000Y-72517000D03*
X127508000Y-72517000D03*
X124968000Y-72517000D03*
X122428000Y-72517000D03*
X119888000Y-72517000D03*
D22*
X127190500Y-85471000D03*
X121348500Y-85407500D03*
X127538000Y-82677000D03*
X130302000Y-93345000D03*
X118681500Y-89090500D03*
X135318500Y-87503000D03*
X120967500Y-92392500D03*
X133477000Y-92456000D03*
X130175000Y-86868000D03*
X131508500Y-97091500D03*
X131956000Y-86233000D03*
X130619500Y-95948500D03*
X131956000Y-84204000D03*
D23*
X125603000Y-85471000D02*
X121412000Y-85471000D01*
X121412000Y-85471000D02*
X121348500Y-85407500D01*
X126649000Y-82964500D02*
X126649000Y-84201000D01*
X126936500Y-82677000D02*
X126649000Y-82964500D01*
X127538000Y-82677000D02*
X126936500Y-82677000D01*
X131699000Y-98552000D02*
X131762500Y-98552000D01*
X131762500Y-98552000D02*
X132207000Y-98107500D01*
X132207000Y-98107500D02*
X132207000Y-89281000D01*
X132207000Y-89281000D02*
X130873500Y-87947500D01*
X130873500Y-87947500D02*
X130873500Y-86423500D01*
X130873500Y-86423500D02*
X129921000Y-85471000D01*
X129921000Y-85471000D02*
X127317500Y-85471000D01*
X126111000Y-98552000D02*
X130302000Y-98552000D01*
X131699000Y-98552000D02*
X130302000Y-98552000D01*
X126873000Y-85471000D02*
X126649000Y-85247000D01*
X127317500Y-85471000D02*
X127190500Y-85471000D01*
X127190500Y-85471000D02*
X126873000Y-85471000D01*
X126649000Y-85247000D02*
X126649000Y-85314000D01*
X126649000Y-85314000D02*
X126492000Y-85471000D01*
X126492000Y-85471000D02*
X125603000Y-85471000D01*
X125603000Y-85471000D02*
X125390000Y-85684000D01*
X125390000Y-85684000D02*
X125390000Y-89148000D01*
X126649000Y-85247000D02*
X126649000Y-84201000D01*
X125390000Y-94748000D02*
X125390000Y-98212000D01*
X125390000Y-98212000D02*
X125730000Y-98552000D01*
X126649000Y-99822000D02*
X126649000Y-99090000D01*
X126649000Y-99090000D02*
X126111000Y-98552000D01*
X126111000Y-98552000D02*
X125730000Y-98552000D01*
X119888000Y-72517000D02*
X119888000Y-76327000D01*
X119888000Y-76327000D02*
X125095000Y-81534000D01*
X125095000Y-81534000D02*
X126238000Y-82677000D01*
X126649000Y-83088000D02*
X126649000Y-84201000D01*
X126238000Y-82677000D02*
X126649000Y-83088000D01*
X126649000Y-99822000D02*
X126649000Y-99344000D01*
X123440000Y-89148000D02*
X123440000Y-90864500D01*
X123440000Y-90864500D02*
X123444000Y-90868500D01*
X124090000Y-89148000D02*
X124090000Y-90730500D01*
X124090000Y-90730500D02*
X124079000Y-90741500D01*
X128640000Y-89148000D02*
X128640000Y-90794000D01*
X128640000Y-90794000D02*
X128651000Y-90805000D01*
X124090000Y-94748000D02*
X124090000Y-93292500D01*
X124090000Y-93292500D02*
X124079000Y-93281500D01*
X123440000Y-94748000D02*
X123440000Y-93158500D01*
X123440000Y-93158500D02*
X123444000Y-93154500D01*
X124090000Y-89148000D02*
X123440000Y-89148000D01*
X124090000Y-94748000D02*
X123440000Y-94748000D01*
X129290000Y-89148000D02*
X129290000Y-90547000D01*
X129290000Y-90547000D02*
X129286000Y-90551000D01*
X129290000Y-94748000D02*
X129290000Y-93222000D01*
X129290000Y-93222000D02*
X129286000Y-93218000D01*
X128640000Y-94748000D02*
X128640000Y-93102000D01*
X128640000Y-93102000D02*
X128651000Y-93091000D01*
X128640000Y-94748000D02*
X129290000Y-94748000D01*
X128640000Y-89148000D02*
X129290000Y-89148000D01*
X126649000Y-97282000D02*
X126649000Y-96677000D01*
X126649000Y-96677000D02*
X126040000Y-96068000D01*
X126040000Y-96068000D02*
X126040000Y-94748000D01*
X124049000Y-97282000D02*
X124049000Y-96677000D01*
X124049000Y-96677000D02*
X124740000Y-95986000D01*
X124740000Y-95986000D02*
X124740000Y-94748000D01*
X130238500Y-86931500D02*
X130238500Y-86995000D01*
X130238500Y-86931500D02*
X130175000Y-86868000D01*
X131508500Y-97091500D02*
X131508500Y-89281000D01*
X131508500Y-89281000D02*
X130238500Y-88011000D01*
X130238500Y-88011000D02*
X130238500Y-86995000D01*
X130014500Y-86771000D02*
X128905000Y-86771000D01*
X130238500Y-86995000D02*
X130014500Y-86771000D01*
X126690000Y-89148000D02*
X126690000Y-88194000D01*
X127919000Y-88011000D02*
X129032000Y-86898000D01*
X126873000Y-88011000D02*
X127919000Y-88011000D01*
X126690000Y-88194000D02*
X126873000Y-88011000D01*
X128905000Y-97252000D02*
X131348000Y-97252000D01*
X131348000Y-97252000D02*
X131508500Y-97091500D01*
X127340000Y-95687000D02*
X128905000Y-97252000D01*
X127340000Y-94748000D02*
X127340000Y-95687000D01*
X126690000Y-94748000D02*
X127340000Y-94748000D01*
X126649000Y-86868000D02*
X126649000Y-87473000D01*
X126649000Y-87473000D02*
X126040000Y-88082000D01*
X126649000Y-86868000D02*
X126649000Y-87219000D01*
X126040000Y-88082000D02*
X126040000Y-89148000D01*
X124049000Y-86868000D02*
X124049000Y-87346000D01*
X124049000Y-87346000D02*
X124740000Y-88037000D01*
X124740000Y-88037000D02*
X124740000Y-89148000D01*
D24*
X131953000Y-86233000D02*
X131956000Y-86233000D01*
X131956000Y-86233000D02*
X131956000Y-84204000D01*
X127990000Y-95668500D02*
X127990000Y-94748000D01*
X128333500Y-96012000D02*
X127990000Y-95668500D01*
X130556000Y-96012000D02*
X128333500Y-96012000D01*
X130619500Y-95948500D02*
X130556000Y-96012000D01*
X131956000Y-84204000D02*
X131953000Y-84201000D01*
D25*
G36*
X135713000Y-78875927D02*
X135473922Y-78297314D01*
X134938505Y-77760961D01*
X134238590Y-77470332D01*
X133480735Y-77469670D01*
X132780314Y-77759078D01*
X132243961Y-78294495D01*
X131953332Y-78994410D01*
X131952670Y-79752265D01*
X132242078Y-80452686D01*
X132777495Y-80989039D01*
X133477410Y-81279668D01*
X134235265Y-81280330D01*
X134935686Y-80990922D01*
X135472039Y-80455505D01*
X135713000Y-79875204D01*
X135713000Y-117379061D01*
X135549020Y-116982200D01*
X134948959Y-116381091D01*
X134164541Y-116055372D01*
X133315185Y-116054630D01*
X132530200Y-116378980D01*
X131929091Y-116979041D01*
X131603372Y-117763459D01*
X131602630Y-118612815D01*
X131926980Y-119397800D01*
X132527041Y-119998909D01*
X133311459Y-120324628D01*
X134160815Y-120325370D01*
X134945800Y-120001020D01*
X135546909Y-119400959D01*
X135713000Y-119000968D01*
X135713000Y-125172000D01*
X116763000Y-125172000D01*
X116763000Y-124233958D01*
X122873647Y-124233958D01*
X122953920Y-124485259D01*
X123509279Y-124686718D01*
X124099458Y-124660315D01*
X124522080Y-124485259D01*
X124602353Y-124233958D01*
X127873647Y-124233958D01*
X127953920Y-124485259D01*
X128509279Y-124686718D01*
X129099458Y-124660315D01*
X129522080Y-124485259D01*
X129602353Y-124233958D01*
X128738000Y-123369605D01*
X127873647Y-124233958D01*
X124602353Y-124233958D01*
X123738000Y-123369605D01*
X122873647Y-124233958D01*
X116763000Y-124233958D01*
X116763000Y-122961279D01*
X122241282Y-122961279D01*
X122267685Y-123551458D01*
X122442741Y-123974080D01*
X122694042Y-124054353D01*
X123558395Y-123190000D01*
X123917605Y-123190000D01*
X124781958Y-124054353D01*
X125033259Y-123974080D01*
X125234718Y-123418721D01*
X125214254Y-122961279D01*
X127241282Y-122961279D01*
X127267685Y-123551458D01*
X127442741Y-123974080D01*
X127694042Y-124054353D01*
X128558395Y-123190000D01*
X128917605Y-123190000D01*
X129781958Y-124054353D01*
X130033259Y-123974080D01*
X130234718Y-123418721D01*
X130208315Y-122828542D01*
X130033259Y-122405920D01*
X129781958Y-122325647D01*
X128917605Y-123190000D01*
X128558395Y-123190000D01*
X127694042Y-122325647D01*
X127442741Y-122405920D01*
X127241282Y-122961279D01*
X125214254Y-122961279D01*
X125208315Y-122828542D01*
X125033259Y-122405920D01*
X124781958Y-122325647D01*
X123917605Y-123190000D01*
X123558395Y-123190000D01*
X122694042Y-122325647D01*
X122442741Y-122405920D01*
X122241282Y-122961279D01*
X116763000Y-122961279D01*
X116763000Y-122146042D01*
X122873647Y-122146042D01*
X123738000Y-123010395D01*
X124602353Y-122146042D01*
X127873647Y-122146042D01*
X128738000Y-123010395D01*
X129602353Y-122146042D01*
X129522080Y-121894741D01*
X128966721Y-121693282D01*
X128376542Y-121719685D01*
X127953920Y-121894741D01*
X127873647Y-122146042D01*
X124602353Y-122146042D01*
X124522080Y-121894741D01*
X123966721Y-121693282D01*
X123376542Y-121719685D01*
X122953920Y-121894741D01*
X122873647Y-122146042D01*
X116763000Y-122146042D01*
X116763000Y-119000939D01*
X116926980Y-119397800D01*
X117527041Y-119998909D01*
X118311459Y-120324628D01*
X119160815Y-120325370D01*
X119945800Y-120001020D01*
X120546909Y-119400959D01*
X120872628Y-118616541D01*
X120873370Y-117767185D01*
X120549020Y-116982200D01*
X119948959Y-116381091D01*
X119164541Y-116055372D01*
X118315185Y-116054630D01*
X117530200Y-116378980D01*
X116929091Y-116979041D01*
X116763000Y-117379032D01*
X116763000Y-113484089D01*
X117252743Y-113484089D01*
X117478344Y-114030086D01*
X117895717Y-114448188D01*
X118441319Y-114674742D01*
X119032089Y-114675257D01*
X119578086Y-114449656D01*
X119996188Y-114032283D01*
X120222742Y-113486681D01*
X120222744Y-113484089D01*
X124752743Y-113484089D01*
X124978344Y-114030086D01*
X125395717Y-114448188D01*
X125941319Y-114674742D01*
X126532089Y-114675257D01*
X127078086Y-114449656D01*
X127294160Y-114233958D01*
X132873647Y-114233958D01*
X132953920Y-114485259D01*
X133509279Y-114686718D01*
X134099458Y-114660315D01*
X134522080Y-114485259D01*
X134602353Y-114233958D01*
X133738000Y-113369605D01*
X132873647Y-114233958D01*
X127294160Y-114233958D01*
X127496188Y-114032283D01*
X127722742Y-113486681D01*
X127723200Y-112961279D01*
X132241282Y-112961279D01*
X132267685Y-113551458D01*
X132442741Y-113974080D01*
X132694042Y-114054353D01*
X133558395Y-113190000D01*
X133917605Y-113190000D01*
X134781958Y-114054353D01*
X135033259Y-113974080D01*
X135234718Y-113418721D01*
X135208315Y-112828542D01*
X135033259Y-112405920D01*
X134781958Y-112325647D01*
X133917605Y-113190000D01*
X133558395Y-113190000D01*
X132694042Y-112325647D01*
X132442741Y-112405920D01*
X132241282Y-112961279D01*
X127723200Y-112961279D01*
X127723257Y-112895911D01*
X127497656Y-112349914D01*
X127080283Y-111931812D01*
X126534681Y-111705258D01*
X125943911Y-111704743D01*
X125397914Y-111930344D01*
X124979812Y-112347717D01*
X124753258Y-112893319D01*
X124752743Y-113484089D01*
X120222744Y-113484089D01*
X120223257Y-112895911D01*
X119997656Y-112349914D01*
X119580283Y-111931812D01*
X119034681Y-111705258D01*
X118443911Y-111704743D01*
X117897914Y-111930344D01*
X117479812Y-112347717D01*
X117253258Y-112893319D01*
X117252743Y-113484089D01*
X116763000Y-113484089D01*
X116763000Y-110984089D01*
X119752743Y-110984089D01*
X119978344Y-111530086D01*
X120395717Y-111948188D01*
X120941319Y-112174742D01*
X121532089Y-112175257D01*
X122078086Y-111949656D01*
X122496188Y-111532283D01*
X122722742Y-110986681D01*
X122722744Y-110984089D01*
X129752743Y-110984089D01*
X129978344Y-111530086D01*
X130395717Y-111948188D01*
X130941319Y-112174742D01*
X131532089Y-112175257D01*
X131602794Y-112146042D01*
X132873647Y-112146042D01*
X133738000Y-113010395D01*
X134602353Y-112146042D01*
X134522080Y-111894741D01*
X133966721Y-111693282D01*
X133376542Y-111719685D01*
X132953920Y-111894741D01*
X132873647Y-112146042D01*
X131602794Y-112146042D01*
X132078086Y-111949656D01*
X132496188Y-111532283D01*
X132722742Y-110986681D01*
X132723257Y-110395911D01*
X132497656Y-109849914D01*
X132080283Y-109431812D01*
X131534681Y-109205258D01*
X130943911Y-109204743D01*
X130397914Y-109430344D01*
X129979812Y-109847717D01*
X129753258Y-110393319D01*
X129752743Y-110984089D01*
X122722744Y-110984089D01*
X122723257Y-110395911D01*
X122497656Y-109849914D01*
X122080283Y-109431812D01*
X121534681Y-109205258D01*
X120943911Y-109204743D01*
X120397914Y-109430344D01*
X119979812Y-109847717D01*
X119753258Y-110393319D01*
X119752743Y-110984089D01*
X116763000Y-110984089D01*
X116763000Y-108442228D01*
X121673417Y-108442228D01*
X121735071Y-108677840D01*
X122235480Y-108853967D01*
X122765199Y-108825188D01*
X123120929Y-108677840D01*
X123182583Y-108442228D01*
X122428000Y-107687645D01*
X121673417Y-108442228D01*
X116763000Y-108442228D01*
X116763000Y-107315520D01*
X121082073Y-107315520D01*
X121110852Y-107845239D01*
X121258200Y-108200969D01*
X121493812Y-108262623D01*
X122248395Y-107508040D01*
X122607605Y-107508040D01*
X123362188Y-108262623D01*
X123597800Y-108200969D01*
X123672911Y-107987566D01*
X123836854Y-108384340D01*
X124211647Y-108759787D01*
X124701587Y-108963228D01*
X125232086Y-108963691D01*
X125722380Y-108761106D01*
X126097827Y-108386313D01*
X126263344Y-107987704D01*
X126376854Y-108262420D01*
X126751647Y-108637867D01*
X127241587Y-108841308D01*
X127772086Y-108841771D01*
X128262380Y-108639186D01*
X128637827Y-108264393D01*
X128702060Y-108109703D01*
X128702060Y-108328460D01*
X128746338Y-108563777D01*
X128885410Y-108779901D01*
X129097610Y-108924891D01*
X129349500Y-108975900D01*
X130746500Y-108975900D01*
X130981817Y-108931622D01*
X131197941Y-108792550D01*
X131342931Y-108580350D01*
X131393940Y-108328460D01*
X131393940Y-106931460D01*
X131349662Y-106696143D01*
X131210590Y-106480019D01*
X130998390Y-106335029D01*
X130746500Y-106284020D01*
X129349500Y-106284020D01*
X129114183Y-106328298D01*
X128898059Y-106467370D01*
X128753069Y-106679570D01*
X128705530Y-106914323D01*
X128639146Y-106753660D01*
X128264353Y-106378213D01*
X127774413Y-106174772D01*
X127243914Y-106174309D01*
X126753620Y-106376894D01*
X126378173Y-106751687D01*
X126212656Y-107150296D01*
X126099146Y-106875580D01*
X125724353Y-106500133D01*
X125234413Y-106296692D01*
X124703914Y-106296229D01*
X124213620Y-106498814D01*
X123838173Y-106873607D01*
X123729968Y-107134193D01*
X123597800Y-106815111D01*
X123362188Y-106753457D01*
X122607605Y-107508040D01*
X122248395Y-107508040D01*
X121493812Y-106753457D01*
X121258200Y-106815111D01*
X121082073Y-107315520D01*
X116763000Y-107315520D01*
X116763000Y-106573852D01*
X121673417Y-106573852D01*
X122428000Y-107328435D01*
X123182583Y-106573852D01*
X123120929Y-106338240D01*
X122620520Y-106162113D01*
X122090801Y-106190892D01*
X121735071Y-106338240D01*
X121673417Y-106573852D01*
X116763000Y-106573852D01*
X116763000Y-100107750D01*
X122614000Y-100107750D01*
X122614000Y-100698309D01*
X122710673Y-100931698D01*
X122889301Y-101110327D01*
X123122690Y-101207000D01*
X123763250Y-101207000D01*
X123922000Y-101048250D01*
X123922000Y-99949000D01*
X122772750Y-99949000D01*
X122614000Y-100107750D01*
X116763000Y-100107750D01*
X116763000Y-83324691D01*
X122614000Y-83324691D01*
X122614000Y-83915250D01*
X122772750Y-84074000D01*
X123922000Y-84074000D01*
X123922000Y-82974750D01*
X123763250Y-82816000D01*
X123122690Y-82816000D01*
X122889301Y-82912673D01*
X122710673Y-83091302D01*
X122614000Y-83324691D01*
X116763000Y-83324691D01*
X116763000Y-79874073D01*
X117002078Y-80452686D01*
X117537495Y-80989039D01*
X118237410Y-81279668D01*
X118995265Y-81280330D01*
X119695686Y-80990922D01*
X120232039Y-80455505D01*
X120522668Y-79755590D01*
X120523330Y-78997735D01*
X120233922Y-78297314D01*
X119698505Y-77760961D01*
X118998590Y-77470332D01*
X118240735Y-77469670D01*
X117540314Y-77759078D01*
X117003961Y-78294495D01*
X116763000Y-78874796D01*
X116763000Y-72818812D01*
X118363736Y-72818812D01*
X118595262Y-73379149D01*
X119023596Y-73808231D01*
X119128000Y-73851583D01*
X119128000Y-76327000D01*
X119185852Y-76617839D01*
X119350599Y-76864401D01*
X125443528Y-82957330D01*
X125397559Y-82986910D01*
X125351031Y-83055006D01*
X125208699Y-82912673D01*
X124975310Y-82816000D01*
X124334750Y-82816000D01*
X124176000Y-82974750D01*
X124176000Y-84074000D01*
X124196000Y-84074000D01*
X124196000Y-84328000D01*
X124176000Y-84328000D01*
X124176000Y-84348000D01*
X123922000Y-84348000D01*
X123922000Y-84328000D01*
X122772750Y-84328000D01*
X122614000Y-84486750D01*
X122614000Y-84711000D01*
X121999080Y-84711000D01*
X121888753Y-84600480D01*
X121538795Y-84455165D01*
X121159867Y-84454835D01*
X120809657Y-84599539D01*
X120541480Y-84867247D01*
X120396165Y-85217205D01*
X120395835Y-85596133D01*
X120540539Y-85946343D01*
X120808247Y-86214520D01*
X121158205Y-86359835D01*
X121537133Y-86360165D01*
X121849736Y-86231000D01*
X122601560Y-86231000D01*
X122601560Y-87491000D01*
X122645838Y-87726317D01*
X122770276Y-87919699D01*
X122701673Y-87988301D01*
X122605000Y-88221690D01*
X122605000Y-88862250D01*
X122763750Y-89021000D01*
X123340000Y-89021000D01*
X123340000Y-89001000D01*
X123393750Y-89001000D01*
X123413750Y-89021000D01*
X123587000Y-89021000D01*
X123587000Y-89275000D01*
X123413750Y-89275000D01*
X123340000Y-89348750D01*
X123340000Y-89275000D01*
X122763750Y-89275000D01*
X122605000Y-89433750D01*
X122605000Y-90074310D01*
X122701673Y-90307699D01*
X122880302Y-90486327D01*
X123113691Y-90583000D01*
X123181250Y-90583000D01*
X123340000Y-90424250D01*
X123340000Y-90279518D01*
X123351673Y-90307699D01*
X123530302Y-90486327D01*
X123652830Y-90537080D01*
X123698750Y-90583000D01*
X123831250Y-90583000D01*
X123877170Y-90537080D01*
X123999698Y-90486327D01*
X124082252Y-90403774D01*
X124288110Y-90544431D01*
X124315785Y-90550035D01*
X124348750Y-90583000D01*
X124416309Y-90583000D01*
X124436753Y-90574532D01*
X124540000Y-90595440D01*
X124940000Y-90595440D01*
X125069589Y-90571056D01*
X125190000Y-90595440D01*
X125590000Y-90595440D01*
X125719589Y-90571056D01*
X125840000Y-90595440D01*
X126240000Y-90595440D01*
X126369589Y-90571056D01*
X126490000Y-90595440D01*
X126890000Y-90595440D01*
X127019589Y-90571056D01*
X127140000Y-90595440D01*
X127540000Y-90595440D01*
X127669589Y-90571056D01*
X127790000Y-90595440D01*
X128190000Y-90595440D01*
X128295705Y-90575550D01*
X128313691Y-90583000D01*
X128381250Y-90583000D01*
X128410254Y-90553996D01*
X128425317Y-90551162D01*
X128641441Y-90412090D01*
X128647377Y-90403402D01*
X128730302Y-90486327D01*
X128852830Y-90537080D01*
X128898750Y-90583000D01*
X129031250Y-90583000D01*
X129077170Y-90537080D01*
X129199698Y-90486327D01*
X129378327Y-90307699D01*
X129390000Y-90279518D01*
X129390000Y-90424250D01*
X129548750Y-90583000D01*
X129616309Y-90583000D01*
X129849698Y-90486327D01*
X130028327Y-90307699D01*
X130125000Y-90074310D01*
X130125000Y-89433750D01*
X129966250Y-89275000D01*
X129390000Y-89275000D01*
X129390000Y-89348750D01*
X129316250Y-89275000D01*
X129143000Y-89275000D01*
X129143000Y-89021000D01*
X129316250Y-89021000D01*
X129336250Y-89001000D01*
X129390000Y-89001000D01*
X129390000Y-89021000D01*
X129966250Y-89021000D01*
X130069974Y-88917276D01*
X130748500Y-89595802D01*
X130748500Y-94996112D01*
X130430867Y-94995835D01*
X130125000Y-95122217D01*
X130125000Y-95033750D01*
X129966250Y-94875000D01*
X129390000Y-94875000D01*
X129390000Y-94895000D01*
X129336250Y-94895000D01*
X129316250Y-94875000D01*
X129143000Y-94875000D01*
X129143000Y-94621000D01*
X129316250Y-94621000D01*
X129390000Y-94547250D01*
X129390000Y-94621000D01*
X129966250Y-94621000D01*
X130125000Y-94462250D01*
X130125000Y-93821690D01*
X130028327Y-93588301D01*
X129849698Y-93409673D01*
X129616309Y-93313000D01*
X129548750Y-93313000D01*
X129390000Y-93471750D01*
X129390000Y-93616482D01*
X129378327Y-93588301D01*
X129199698Y-93409673D01*
X129077170Y-93358920D01*
X129031250Y-93313000D01*
X128898750Y-93313000D01*
X128852830Y-93358920D01*
X128730302Y-93409673D01*
X128647748Y-93492226D01*
X128441890Y-93351569D01*
X128414215Y-93345965D01*
X128381250Y-93313000D01*
X128313691Y-93313000D01*
X128293247Y-93321468D01*
X128190000Y-93300560D01*
X127790000Y-93300560D01*
X127660411Y-93324944D01*
X127540000Y-93300560D01*
X127140000Y-93300560D01*
X127010411Y-93324944D01*
X126890000Y-93300560D01*
X126490000Y-93300560D01*
X126360411Y-93324944D01*
X126240000Y-93300560D01*
X125840000Y-93300560D01*
X125710411Y-93324944D01*
X125590000Y-93300560D01*
X125190000Y-93300560D01*
X125060411Y-93324944D01*
X124940000Y-93300560D01*
X124540000Y-93300560D01*
X124434295Y-93320450D01*
X124416309Y-93313000D01*
X124348750Y-93313000D01*
X124319746Y-93342004D01*
X124304683Y-93344838D01*
X124088559Y-93483910D01*
X124082623Y-93492598D01*
X123999698Y-93409673D01*
X123877170Y-93358920D01*
X123831250Y-93313000D01*
X123698750Y-93313000D01*
X123652830Y-93358920D01*
X123530302Y-93409673D01*
X123351673Y-93588301D01*
X123340000Y-93616482D01*
X123340000Y-93471750D01*
X123181250Y-93313000D01*
X123113691Y-93313000D01*
X122880302Y-93409673D01*
X122701673Y-93588301D01*
X122605000Y-93821690D01*
X122605000Y-94462250D01*
X122763750Y-94621000D01*
X123340000Y-94621000D01*
X123340000Y-94547250D01*
X123413750Y-94621000D01*
X123587000Y-94621000D01*
X123587000Y-94875000D01*
X123413750Y-94875000D01*
X123393750Y-94895000D01*
X123340000Y-94895000D01*
X123340000Y-94875000D01*
X122763750Y-94875000D01*
X122605000Y-95033750D01*
X122605000Y-95674310D01*
X122701673Y-95907699D01*
X122836699Y-96042724D01*
X122797559Y-96067910D01*
X122652569Y-96280110D01*
X122601560Y-96532000D01*
X122601560Y-98032000D01*
X122645838Y-98267317D01*
X122784910Y-98483441D01*
X122876769Y-98546205D01*
X122710673Y-98712302D01*
X122614000Y-98945691D01*
X122614000Y-99536250D01*
X122772750Y-99695000D01*
X123922000Y-99695000D01*
X123922000Y-99675000D01*
X124176000Y-99675000D01*
X124176000Y-99695000D01*
X124196000Y-99695000D01*
X124196000Y-99949000D01*
X124176000Y-99949000D01*
X124176000Y-101048250D01*
X124334750Y-101207000D01*
X124975310Y-101207000D01*
X125208699Y-101110327D01*
X125349936Y-100969089D01*
X125384910Y-101023441D01*
X125597110Y-101168431D01*
X125849000Y-101219440D01*
X127449000Y-101219440D01*
X127684317Y-101175162D01*
X127742620Y-101137645D01*
X127795302Y-101190327D01*
X128028691Y-101287000D01*
X128619250Y-101287000D01*
X128778000Y-101128250D01*
X128778000Y-99979000D01*
X129032000Y-99979000D01*
X129032000Y-101128250D01*
X129190750Y-101287000D01*
X129781309Y-101287000D01*
X130014698Y-101190327D01*
X130193327Y-101011699D01*
X130290000Y-100778310D01*
X130290000Y-100137750D01*
X130131250Y-99979000D01*
X129032000Y-99979000D01*
X128778000Y-99979000D01*
X128758000Y-99979000D01*
X128758000Y-99725000D01*
X128778000Y-99725000D01*
X128778000Y-99705000D01*
X129032000Y-99705000D01*
X129032000Y-99725000D01*
X130131250Y-99725000D01*
X130290000Y-99566250D01*
X130290000Y-99312000D01*
X131762500Y-99312000D01*
X132053339Y-99254148D01*
X132299901Y-99089401D01*
X132744401Y-98644901D01*
X132909148Y-98398339D01*
X132967000Y-98107500D01*
X132967000Y-89281000D01*
X132909148Y-88990161D01*
X132744401Y-88743599D01*
X131633500Y-87632698D01*
X131633500Y-87130439D01*
X131765705Y-87185335D01*
X132144633Y-87185665D01*
X132494843Y-87040961D01*
X132763020Y-86773253D01*
X132908335Y-86423295D01*
X132908665Y-86044367D01*
X132763961Y-85694157D01*
X132667200Y-85597226D01*
X132667200Y-84839905D01*
X132763020Y-84744253D01*
X132908335Y-84394295D01*
X132908665Y-84015367D01*
X132763961Y-83665157D01*
X132496253Y-83396980D01*
X132146295Y-83251665D01*
X131767367Y-83251335D01*
X131417157Y-83396039D01*
X131148980Y-83663747D01*
X131003665Y-84013705D01*
X131003335Y-84392633D01*
X131148039Y-84742843D01*
X131244800Y-84839774D01*
X131244800Y-85597095D01*
X131183295Y-85658493D01*
X130458401Y-84933599D01*
X130290000Y-84821077D01*
X130290000Y-84456750D01*
X130131250Y-84298000D01*
X129032000Y-84298000D01*
X129032000Y-84318000D01*
X128778000Y-84318000D01*
X128778000Y-84298000D01*
X128758000Y-84298000D01*
X128758000Y-84044000D01*
X128778000Y-84044000D01*
X128778000Y-82894750D01*
X129032000Y-82894750D01*
X129032000Y-84044000D01*
X130131250Y-84044000D01*
X130290000Y-83885250D01*
X130290000Y-83244690D01*
X130193327Y-83011301D01*
X130014698Y-82832673D01*
X129781309Y-82736000D01*
X129190750Y-82736000D01*
X129032000Y-82894750D01*
X128778000Y-82894750D01*
X128619250Y-82736000D01*
X128490449Y-82736000D01*
X128490665Y-82488367D01*
X128345961Y-82138157D01*
X128078253Y-81869980D01*
X127728295Y-81724665D01*
X127349367Y-81724335D01*
X126999157Y-81869039D01*
X126951112Y-81917000D01*
X126936500Y-81917000D01*
X126645660Y-81974852D01*
X126624675Y-81988873D01*
X125924654Y-81288852D01*
X126666632Y-81269436D01*
X127274480Y-81017657D01*
X127406172Y-80722777D01*
X126238000Y-79554605D01*
X126223858Y-79568748D01*
X126044253Y-79389143D01*
X126058395Y-79375000D01*
X126417605Y-79375000D01*
X127585777Y-80543172D01*
X127880657Y-80411480D01*
X128152261Y-79703964D01*
X128132436Y-78946368D01*
X127880657Y-78338520D01*
X127585777Y-78206828D01*
X126417605Y-79375000D01*
X126058395Y-79375000D01*
X124890223Y-78206828D01*
X124595343Y-78338520D01*
X124323739Y-79046036D01*
X124340988Y-79705186D01*
X122663025Y-78027223D01*
X125069828Y-78027223D01*
X126238000Y-79195395D01*
X127406172Y-78027223D01*
X127274480Y-77732343D01*
X126566964Y-77460739D01*
X125809368Y-77480564D01*
X125201520Y-77732343D01*
X125069828Y-78027223D01*
X122663025Y-78027223D01*
X120648000Y-76012198D01*
X120648000Y-73851945D01*
X120750149Y-73809738D01*
X120971076Y-73589196D01*
X121535409Y-73589196D01*
X121620467Y-73844539D01*
X122189965Y-74052516D01*
X122795700Y-74026723D01*
X123235533Y-73844539D01*
X123320591Y-73589196D01*
X122428000Y-72696605D01*
X121535409Y-73589196D01*
X120971076Y-73589196D01*
X121179231Y-73381404D01*
X121190405Y-73354494D01*
X121355804Y-73409591D01*
X122248395Y-72517000D01*
X122607605Y-72517000D01*
X123500196Y-73409591D01*
X123665138Y-73354647D01*
X123675262Y-73379149D01*
X124103596Y-73808231D01*
X124663528Y-74040735D01*
X125269812Y-74041264D01*
X125830149Y-73809738D01*
X126238336Y-73402263D01*
X126643596Y-73808231D01*
X127203528Y-74040735D01*
X127809812Y-74041264D01*
X128370149Y-73809738D01*
X128778336Y-73402263D01*
X129183596Y-73808231D01*
X129743528Y-74040735D01*
X130349812Y-74041264D01*
X130910149Y-73809738D01*
X131131264Y-73589008D01*
X131133938Y-73603217D01*
X131273010Y-73819341D01*
X131485210Y-73964331D01*
X131737100Y-74015340D01*
X133438900Y-74015340D01*
X133674217Y-73971062D01*
X133890341Y-73831990D01*
X134035331Y-73619790D01*
X134086340Y-73367900D01*
X134086340Y-71666100D01*
X134042062Y-71430783D01*
X133902990Y-71214659D01*
X133690790Y-71069669D01*
X133438900Y-71018660D01*
X131737100Y-71018660D01*
X131501783Y-71062938D01*
X131285659Y-71202010D01*
X131140669Y-71414210D01*
X131133897Y-71447649D01*
X130912404Y-71225769D01*
X130352472Y-70993265D01*
X129746188Y-70992736D01*
X129185851Y-71224262D01*
X128777664Y-71631737D01*
X128372404Y-71225769D01*
X127812472Y-70993265D01*
X127206188Y-70992736D01*
X126645851Y-71224262D01*
X126237664Y-71631737D01*
X125832404Y-71225769D01*
X125272472Y-70993265D01*
X124666188Y-70992736D01*
X124105851Y-71224262D01*
X123676769Y-71652596D01*
X123665595Y-71679506D01*
X123500196Y-71624409D01*
X122607605Y-72517000D01*
X122248395Y-72517000D01*
X121355804Y-71624409D01*
X121190862Y-71679353D01*
X121180738Y-71654851D01*
X120971058Y-71444804D01*
X121535409Y-71444804D01*
X122428000Y-72337395D01*
X123320591Y-71444804D01*
X123235533Y-71189461D01*
X122666035Y-70981484D01*
X122060300Y-71007277D01*
X121620467Y-71189461D01*
X121535409Y-71444804D01*
X120971058Y-71444804D01*
X120752404Y-71225769D01*
X120192472Y-70993265D01*
X119586188Y-70992736D01*
X119025851Y-71224262D01*
X118596769Y-71652596D01*
X118364265Y-72212528D01*
X118363736Y-72818812D01*
X116763000Y-72818812D01*
X116763000Y-69392000D01*
X135713000Y-69392000D01*
X135713000Y-78875927D01*
X135713000Y-78875927D01*
G37*
X135713000Y-78875927D02*
X135473922Y-78297314D01*
X134938505Y-77760961D01*
X134238590Y-77470332D01*
X133480735Y-77469670D01*
X132780314Y-77759078D01*
X132243961Y-78294495D01*
X131953332Y-78994410D01*
X131952670Y-79752265D01*
X132242078Y-80452686D01*
X132777495Y-80989039D01*
X133477410Y-81279668D01*
X134235265Y-81280330D01*
X134935686Y-80990922D01*
X135472039Y-80455505D01*
X135713000Y-79875204D01*
X135713000Y-117379061D01*
X135549020Y-116982200D01*
X134948959Y-116381091D01*
X134164541Y-116055372D01*
X133315185Y-116054630D01*
X132530200Y-116378980D01*
X131929091Y-116979041D01*
X131603372Y-117763459D01*
X131602630Y-118612815D01*
X131926980Y-119397800D01*
X132527041Y-119998909D01*
X133311459Y-120324628D01*
X134160815Y-120325370D01*
X134945800Y-120001020D01*
X135546909Y-119400959D01*
X135713000Y-119000968D01*
X135713000Y-125172000D01*
X116763000Y-125172000D01*
X116763000Y-124233958D01*
X122873647Y-124233958D01*
X122953920Y-124485259D01*
X123509279Y-124686718D01*
X124099458Y-124660315D01*
X124522080Y-124485259D01*
X124602353Y-124233958D01*
X127873647Y-124233958D01*
X127953920Y-124485259D01*
X128509279Y-124686718D01*
X129099458Y-124660315D01*
X129522080Y-124485259D01*
X129602353Y-124233958D01*
X128738000Y-123369605D01*
X127873647Y-124233958D01*
X124602353Y-124233958D01*
X123738000Y-123369605D01*
X122873647Y-124233958D01*
X116763000Y-124233958D01*
X116763000Y-122961279D01*
X122241282Y-122961279D01*
X122267685Y-123551458D01*
X122442741Y-123974080D01*
X122694042Y-124054353D01*
X123558395Y-123190000D01*
X123917605Y-123190000D01*
X124781958Y-124054353D01*
X125033259Y-123974080D01*
X125234718Y-123418721D01*
X125214254Y-122961279D01*
X127241282Y-122961279D01*
X127267685Y-123551458D01*
X127442741Y-123974080D01*
X127694042Y-124054353D01*
X128558395Y-123190000D01*
X128917605Y-123190000D01*
X129781958Y-124054353D01*
X130033259Y-123974080D01*
X130234718Y-123418721D01*
X130208315Y-122828542D01*
X130033259Y-122405920D01*
X129781958Y-122325647D01*
X128917605Y-123190000D01*
X128558395Y-123190000D01*
X127694042Y-122325647D01*
X127442741Y-122405920D01*
X127241282Y-122961279D01*
X125214254Y-122961279D01*
X125208315Y-122828542D01*
X125033259Y-122405920D01*
X124781958Y-122325647D01*
X123917605Y-123190000D01*
X123558395Y-123190000D01*
X122694042Y-122325647D01*
X122442741Y-122405920D01*
X122241282Y-122961279D01*
X116763000Y-122961279D01*
X116763000Y-122146042D01*
X122873647Y-122146042D01*
X123738000Y-123010395D01*
X124602353Y-122146042D01*
X127873647Y-122146042D01*
X128738000Y-123010395D01*
X129602353Y-122146042D01*
X129522080Y-121894741D01*
X128966721Y-121693282D01*
X128376542Y-121719685D01*
X127953920Y-121894741D01*
X127873647Y-122146042D01*
X124602353Y-122146042D01*
X124522080Y-121894741D01*
X123966721Y-121693282D01*
X123376542Y-121719685D01*
X122953920Y-121894741D01*
X122873647Y-122146042D01*
X116763000Y-122146042D01*
X116763000Y-119000939D01*
X116926980Y-119397800D01*
X117527041Y-119998909D01*
X118311459Y-120324628D01*
X119160815Y-120325370D01*
X119945800Y-120001020D01*
X120546909Y-119400959D01*
X120872628Y-118616541D01*
X120873370Y-117767185D01*
X120549020Y-116982200D01*
X119948959Y-116381091D01*
X119164541Y-116055372D01*
X118315185Y-116054630D01*
X117530200Y-116378980D01*
X116929091Y-116979041D01*
X116763000Y-117379032D01*
X116763000Y-113484089D01*
X117252743Y-113484089D01*
X117478344Y-114030086D01*
X117895717Y-114448188D01*
X118441319Y-114674742D01*
X119032089Y-114675257D01*
X119578086Y-114449656D01*
X119996188Y-114032283D01*
X120222742Y-113486681D01*
X120222744Y-113484089D01*
X124752743Y-113484089D01*
X124978344Y-114030086D01*
X125395717Y-114448188D01*
X125941319Y-114674742D01*
X126532089Y-114675257D01*
X127078086Y-114449656D01*
X127294160Y-114233958D01*
X132873647Y-114233958D01*
X132953920Y-114485259D01*
X133509279Y-114686718D01*
X134099458Y-114660315D01*
X134522080Y-114485259D01*
X134602353Y-114233958D01*
X133738000Y-113369605D01*
X132873647Y-114233958D01*
X127294160Y-114233958D01*
X127496188Y-114032283D01*
X127722742Y-113486681D01*
X127723200Y-112961279D01*
X132241282Y-112961279D01*
X132267685Y-113551458D01*
X132442741Y-113974080D01*
X132694042Y-114054353D01*
X133558395Y-113190000D01*
X133917605Y-113190000D01*
X134781958Y-114054353D01*
X135033259Y-113974080D01*
X135234718Y-113418721D01*
X135208315Y-112828542D01*
X135033259Y-112405920D01*
X134781958Y-112325647D01*
X133917605Y-113190000D01*
X133558395Y-113190000D01*
X132694042Y-112325647D01*
X132442741Y-112405920D01*
X132241282Y-112961279D01*
X127723200Y-112961279D01*
X127723257Y-112895911D01*
X127497656Y-112349914D01*
X127080283Y-111931812D01*
X126534681Y-111705258D01*
X125943911Y-111704743D01*
X125397914Y-111930344D01*
X124979812Y-112347717D01*
X124753258Y-112893319D01*
X124752743Y-113484089D01*
X120222744Y-113484089D01*
X120223257Y-112895911D01*
X119997656Y-112349914D01*
X119580283Y-111931812D01*
X119034681Y-111705258D01*
X118443911Y-111704743D01*
X117897914Y-111930344D01*
X117479812Y-112347717D01*
X117253258Y-112893319D01*
X117252743Y-113484089D01*
X116763000Y-113484089D01*
X116763000Y-110984089D01*
X119752743Y-110984089D01*
X119978344Y-111530086D01*
X120395717Y-111948188D01*
X120941319Y-112174742D01*
X121532089Y-112175257D01*
X122078086Y-111949656D01*
X122496188Y-111532283D01*
X122722742Y-110986681D01*
X122722744Y-110984089D01*
X129752743Y-110984089D01*
X129978344Y-111530086D01*
X130395717Y-111948188D01*
X130941319Y-112174742D01*
X131532089Y-112175257D01*
X131602794Y-112146042D01*
X132873647Y-112146042D01*
X133738000Y-113010395D01*
X134602353Y-112146042D01*
X134522080Y-111894741D01*
X133966721Y-111693282D01*
X133376542Y-111719685D01*
X132953920Y-111894741D01*
X132873647Y-112146042D01*
X131602794Y-112146042D01*
X132078086Y-111949656D01*
X132496188Y-111532283D01*
X132722742Y-110986681D01*
X132723257Y-110395911D01*
X132497656Y-109849914D01*
X132080283Y-109431812D01*
X131534681Y-109205258D01*
X130943911Y-109204743D01*
X130397914Y-109430344D01*
X129979812Y-109847717D01*
X129753258Y-110393319D01*
X129752743Y-110984089D01*
X122722744Y-110984089D01*
X122723257Y-110395911D01*
X122497656Y-109849914D01*
X122080283Y-109431812D01*
X121534681Y-109205258D01*
X120943911Y-109204743D01*
X120397914Y-109430344D01*
X119979812Y-109847717D01*
X119753258Y-110393319D01*
X119752743Y-110984089D01*
X116763000Y-110984089D01*
X116763000Y-108442228D01*
X121673417Y-108442228D01*
X121735071Y-108677840D01*
X122235480Y-108853967D01*
X122765199Y-108825188D01*
X123120929Y-108677840D01*
X123182583Y-108442228D01*
X122428000Y-107687645D01*
X121673417Y-108442228D01*
X116763000Y-108442228D01*
X116763000Y-107315520D01*
X121082073Y-107315520D01*
X121110852Y-107845239D01*
X121258200Y-108200969D01*
X121493812Y-108262623D01*
X122248395Y-107508040D01*
X122607605Y-107508040D01*
X123362188Y-108262623D01*
X123597800Y-108200969D01*
X123672911Y-107987566D01*
X123836854Y-108384340D01*
X124211647Y-108759787D01*
X124701587Y-108963228D01*
X125232086Y-108963691D01*
X125722380Y-108761106D01*
X126097827Y-108386313D01*
X126263344Y-107987704D01*
X126376854Y-108262420D01*
X126751647Y-108637867D01*
X127241587Y-108841308D01*
X127772086Y-108841771D01*
X128262380Y-108639186D01*
X128637827Y-108264393D01*
X128702060Y-108109703D01*
X128702060Y-108328460D01*
X128746338Y-108563777D01*
X128885410Y-108779901D01*
X129097610Y-108924891D01*
X129349500Y-108975900D01*
X130746500Y-108975900D01*
X130981817Y-108931622D01*
X131197941Y-108792550D01*
X131342931Y-108580350D01*
X131393940Y-108328460D01*
X131393940Y-106931460D01*
X131349662Y-106696143D01*
X131210590Y-106480019D01*
X130998390Y-106335029D01*
X130746500Y-106284020D01*
X129349500Y-106284020D01*
X129114183Y-106328298D01*
X128898059Y-106467370D01*
X128753069Y-106679570D01*
X128705530Y-106914323D01*
X128639146Y-106753660D01*
X128264353Y-106378213D01*
X127774413Y-106174772D01*
X127243914Y-106174309D01*
X126753620Y-106376894D01*
X126378173Y-106751687D01*
X126212656Y-107150296D01*
X126099146Y-106875580D01*
X125724353Y-106500133D01*
X125234413Y-106296692D01*
X124703914Y-106296229D01*
X124213620Y-106498814D01*
X123838173Y-106873607D01*
X123729968Y-107134193D01*
X123597800Y-106815111D01*
X123362188Y-106753457D01*
X122607605Y-107508040D01*
X122248395Y-107508040D01*
X121493812Y-106753457D01*
X121258200Y-106815111D01*
X121082073Y-107315520D01*
X116763000Y-107315520D01*
X116763000Y-106573852D01*
X121673417Y-106573852D01*
X122428000Y-107328435D01*
X123182583Y-106573852D01*
X123120929Y-106338240D01*
X122620520Y-106162113D01*
X122090801Y-106190892D01*
X121735071Y-106338240D01*
X121673417Y-106573852D01*
X116763000Y-106573852D01*
X116763000Y-100107750D01*
X122614000Y-100107750D01*
X122614000Y-100698309D01*
X122710673Y-100931698D01*
X122889301Y-101110327D01*
X123122690Y-101207000D01*
X123763250Y-101207000D01*
X123922000Y-101048250D01*
X123922000Y-99949000D01*
X122772750Y-99949000D01*
X122614000Y-100107750D01*
X116763000Y-100107750D01*
X116763000Y-83324691D01*
X122614000Y-83324691D01*
X122614000Y-83915250D01*
X122772750Y-84074000D01*
X123922000Y-84074000D01*
X123922000Y-82974750D01*
X123763250Y-82816000D01*
X123122690Y-82816000D01*
X122889301Y-82912673D01*
X122710673Y-83091302D01*
X122614000Y-83324691D01*
X116763000Y-83324691D01*
X116763000Y-79874073D01*
X117002078Y-80452686D01*
X117537495Y-80989039D01*
X118237410Y-81279668D01*
X118995265Y-81280330D01*
X119695686Y-80990922D01*
X120232039Y-80455505D01*
X120522668Y-79755590D01*
X120523330Y-78997735D01*
X120233922Y-78297314D01*
X119698505Y-77760961D01*
X118998590Y-77470332D01*
X118240735Y-77469670D01*
X117540314Y-77759078D01*
X117003961Y-78294495D01*
X116763000Y-78874796D01*
X116763000Y-72818812D01*
X118363736Y-72818812D01*
X118595262Y-73379149D01*
X119023596Y-73808231D01*
X119128000Y-73851583D01*
X119128000Y-76327000D01*
X119185852Y-76617839D01*
X119350599Y-76864401D01*
X125443528Y-82957330D01*
X125397559Y-82986910D01*
X125351031Y-83055006D01*
X125208699Y-82912673D01*
X124975310Y-82816000D01*
X124334750Y-82816000D01*
X124176000Y-82974750D01*
X124176000Y-84074000D01*
X124196000Y-84074000D01*
X124196000Y-84328000D01*
X124176000Y-84328000D01*
X124176000Y-84348000D01*
X123922000Y-84348000D01*
X123922000Y-84328000D01*
X122772750Y-84328000D01*
X122614000Y-84486750D01*
X122614000Y-84711000D01*
X121999080Y-84711000D01*
X121888753Y-84600480D01*
X121538795Y-84455165D01*
X121159867Y-84454835D01*
X120809657Y-84599539D01*
X120541480Y-84867247D01*
X120396165Y-85217205D01*
X120395835Y-85596133D01*
X120540539Y-85946343D01*
X120808247Y-86214520D01*
X121158205Y-86359835D01*
X121537133Y-86360165D01*
X121849736Y-86231000D01*
X122601560Y-86231000D01*
X122601560Y-87491000D01*
X122645838Y-87726317D01*
X122770276Y-87919699D01*
X122701673Y-87988301D01*
X122605000Y-88221690D01*
X122605000Y-88862250D01*
X122763750Y-89021000D01*
X123340000Y-89021000D01*
X123340000Y-89001000D01*
X123393750Y-89001000D01*
X123413750Y-89021000D01*
X123587000Y-89021000D01*
X123587000Y-89275000D01*
X123413750Y-89275000D01*
X123340000Y-89348750D01*
X123340000Y-89275000D01*
X122763750Y-89275000D01*
X122605000Y-89433750D01*
X122605000Y-90074310D01*
X122701673Y-90307699D01*
X122880302Y-90486327D01*
X123113691Y-90583000D01*
X123181250Y-90583000D01*
X123340000Y-90424250D01*
X123340000Y-90279518D01*
X123351673Y-90307699D01*
X123530302Y-90486327D01*
X123652830Y-90537080D01*
X123698750Y-90583000D01*
X123831250Y-90583000D01*
X123877170Y-90537080D01*
X123999698Y-90486327D01*
X124082252Y-90403774D01*
X124288110Y-90544431D01*
X124315785Y-90550035D01*
X124348750Y-90583000D01*
X124416309Y-90583000D01*
X124436753Y-90574532D01*
X124540000Y-90595440D01*
X124940000Y-90595440D01*
X125069589Y-90571056D01*
X125190000Y-90595440D01*
X125590000Y-90595440D01*
X125719589Y-90571056D01*
X125840000Y-90595440D01*
X126240000Y-90595440D01*
X126369589Y-90571056D01*
X126490000Y-90595440D01*
X126890000Y-90595440D01*
X127019589Y-90571056D01*
X127140000Y-90595440D01*
X127540000Y-90595440D01*
X127669589Y-90571056D01*
X127790000Y-90595440D01*
X128190000Y-90595440D01*
X128295705Y-90575550D01*
X128313691Y-90583000D01*
X128381250Y-90583000D01*
X128410254Y-90553996D01*
X128425317Y-90551162D01*
X128641441Y-90412090D01*
X128647377Y-90403402D01*
X128730302Y-90486327D01*
X128852830Y-90537080D01*
X128898750Y-90583000D01*
X129031250Y-90583000D01*
X129077170Y-90537080D01*
X129199698Y-90486327D01*
X129378327Y-90307699D01*
X129390000Y-90279518D01*
X129390000Y-90424250D01*
X129548750Y-90583000D01*
X129616309Y-90583000D01*
X129849698Y-90486327D01*
X130028327Y-90307699D01*
X130125000Y-90074310D01*
X130125000Y-89433750D01*
X129966250Y-89275000D01*
X129390000Y-89275000D01*
X129390000Y-89348750D01*
X129316250Y-89275000D01*
X129143000Y-89275000D01*
X129143000Y-89021000D01*
X129316250Y-89021000D01*
X129336250Y-89001000D01*
X129390000Y-89001000D01*
X129390000Y-89021000D01*
X129966250Y-89021000D01*
X130069974Y-88917276D01*
X130748500Y-89595802D01*
X130748500Y-94996112D01*
X130430867Y-94995835D01*
X130125000Y-95122217D01*
X130125000Y-95033750D01*
X129966250Y-94875000D01*
X129390000Y-94875000D01*
X129390000Y-94895000D01*
X129336250Y-94895000D01*
X129316250Y-94875000D01*
X129143000Y-94875000D01*
X129143000Y-94621000D01*
X129316250Y-94621000D01*
X129390000Y-94547250D01*
X129390000Y-94621000D01*
X129966250Y-94621000D01*
X130125000Y-94462250D01*
X130125000Y-93821690D01*
X130028327Y-93588301D01*
X129849698Y-93409673D01*
X129616309Y-93313000D01*
X129548750Y-93313000D01*
X129390000Y-93471750D01*
X129390000Y-93616482D01*
X129378327Y-93588301D01*
X129199698Y-93409673D01*
X129077170Y-93358920D01*
X129031250Y-93313000D01*
X128898750Y-93313000D01*
X128852830Y-93358920D01*
X128730302Y-93409673D01*
X128647748Y-93492226D01*
X128441890Y-93351569D01*
X128414215Y-93345965D01*
X128381250Y-93313000D01*
X128313691Y-93313000D01*
X128293247Y-93321468D01*
X128190000Y-93300560D01*
X127790000Y-93300560D01*
X127660411Y-93324944D01*
X127540000Y-93300560D01*
X127140000Y-93300560D01*
X127010411Y-93324944D01*
X126890000Y-93300560D01*
X126490000Y-93300560D01*
X126360411Y-93324944D01*
X126240000Y-93300560D01*
X125840000Y-93300560D01*
X125710411Y-93324944D01*
X125590000Y-93300560D01*
X125190000Y-93300560D01*
X125060411Y-93324944D01*
X124940000Y-93300560D01*
X124540000Y-93300560D01*
X124434295Y-93320450D01*
X124416309Y-93313000D01*
X124348750Y-93313000D01*
X124319746Y-93342004D01*
X124304683Y-93344838D01*
X124088559Y-93483910D01*
X124082623Y-93492598D01*
X123999698Y-93409673D01*
X123877170Y-93358920D01*
X123831250Y-93313000D01*
X123698750Y-93313000D01*
X123652830Y-93358920D01*
X123530302Y-93409673D01*
X123351673Y-93588301D01*
X123340000Y-93616482D01*
X123340000Y-93471750D01*
X123181250Y-93313000D01*
X123113691Y-93313000D01*
X122880302Y-93409673D01*
X122701673Y-93588301D01*
X122605000Y-93821690D01*
X122605000Y-94462250D01*
X122763750Y-94621000D01*
X123340000Y-94621000D01*
X123340000Y-94547250D01*
X123413750Y-94621000D01*
X123587000Y-94621000D01*
X123587000Y-94875000D01*
X123413750Y-94875000D01*
X123393750Y-94895000D01*
X123340000Y-94895000D01*
X123340000Y-94875000D01*
X122763750Y-94875000D01*
X122605000Y-95033750D01*
X122605000Y-95674310D01*
X122701673Y-95907699D01*
X122836699Y-96042724D01*
X122797559Y-96067910D01*
X122652569Y-96280110D01*
X122601560Y-96532000D01*
X122601560Y-98032000D01*
X122645838Y-98267317D01*
X122784910Y-98483441D01*
X122876769Y-98546205D01*
X122710673Y-98712302D01*
X122614000Y-98945691D01*
X122614000Y-99536250D01*
X122772750Y-99695000D01*
X123922000Y-99695000D01*
X123922000Y-99675000D01*
X124176000Y-99675000D01*
X124176000Y-99695000D01*
X124196000Y-99695000D01*
X124196000Y-99949000D01*
X124176000Y-99949000D01*
X124176000Y-101048250D01*
X124334750Y-101207000D01*
X124975310Y-101207000D01*
X125208699Y-101110327D01*
X125349936Y-100969089D01*
X125384910Y-101023441D01*
X125597110Y-101168431D01*
X125849000Y-101219440D01*
X127449000Y-101219440D01*
X127684317Y-101175162D01*
X127742620Y-101137645D01*
X127795302Y-101190327D01*
X128028691Y-101287000D01*
X128619250Y-101287000D01*
X128778000Y-101128250D01*
X128778000Y-99979000D01*
X129032000Y-99979000D01*
X129032000Y-101128250D01*
X129190750Y-101287000D01*
X129781309Y-101287000D01*
X130014698Y-101190327D01*
X130193327Y-101011699D01*
X130290000Y-100778310D01*
X130290000Y-100137750D01*
X130131250Y-99979000D01*
X129032000Y-99979000D01*
X128778000Y-99979000D01*
X128758000Y-99979000D01*
X128758000Y-99725000D01*
X128778000Y-99725000D01*
X128778000Y-99705000D01*
X129032000Y-99705000D01*
X129032000Y-99725000D01*
X130131250Y-99725000D01*
X130290000Y-99566250D01*
X130290000Y-99312000D01*
X131762500Y-99312000D01*
X132053339Y-99254148D01*
X132299901Y-99089401D01*
X132744401Y-98644901D01*
X132909148Y-98398339D01*
X132967000Y-98107500D01*
X132967000Y-89281000D01*
X132909148Y-88990161D01*
X132744401Y-88743599D01*
X131633500Y-87632698D01*
X131633500Y-87130439D01*
X131765705Y-87185335D01*
X132144633Y-87185665D01*
X132494843Y-87040961D01*
X132763020Y-86773253D01*
X132908335Y-86423295D01*
X132908665Y-86044367D01*
X132763961Y-85694157D01*
X132667200Y-85597226D01*
X132667200Y-84839905D01*
X132763020Y-84744253D01*
X132908335Y-84394295D01*
X132908665Y-84015367D01*
X132763961Y-83665157D01*
X132496253Y-83396980D01*
X132146295Y-83251665D01*
X131767367Y-83251335D01*
X131417157Y-83396039D01*
X131148980Y-83663747D01*
X131003665Y-84013705D01*
X131003335Y-84392633D01*
X131148039Y-84742843D01*
X131244800Y-84839774D01*
X131244800Y-85597095D01*
X131183295Y-85658493D01*
X130458401Y-84933599D01*
X130290000Y-84821077D01*
X130290000Y-84456750D01*
X130131250Y-84298000D01*
X129032000Y-84298000D01*
X129032000Y-84318000D01*
X128778000Y-84318000D01*
X128778000Y-84298000D01*
X128758000Y-84298000D01*
X128758000Y-84044000D01*
X128778000Y-84044000D01*
X128778000Y-82894750D01*
X129032000Y-82894750D01*
X129032000Y-84044000D01*
X130131250Y-84044000D01*
X130290000Y-83885250D01*
X130290000Y-83244690D01*
X130193327Y-83011301D01*
X130014698Y-82832673D01*
X129781309Y-82736000D01*
X129190750Y-82736000D01*
X129032000Y-82894750D01*
X128778000Y-82894750D01*
X128619250Y-82736000D01*
X128490449Y-82736000D01*
X128490665Y-82488367D01*
X128345961Y-82138157D01*
X128078253Y-81869980D01*
X127728295Y-81724665D01*
X127349367Y-81724335D01*
X126999157Y-81869039D01*
X126951112Y-81917000D01*
X126936500Y-81917000D01*
X126645660Y-81974852D01*
X126624675Y-81988873D01*
X125924654Y-81288852D01*
X126666632Y-81269436D01*
X127274480Y-81017657D01*
X127406172Y-80722777D01*
X126238000Y-79554605D01*
X126223858Y-79568748D01*
X126044253Y-79389143D01*
X126058395Y-79375000D01*
X126417605Y-79375000D01*
X127585777Y-80543172D01*
X127880657Y-80411480D01*
X128152261Y-79703964D01*
X128132436Y-78946368D01*
X127880657Y-78338520D01*
X127585777Y-78206828D01*
X126417605Y-79375000D01*
X126058395Y-79375000D01*
X124890223Y-78206828D01*
X124595343Y-78338520D01*
X124323739Y-79046036D01*
X124340988Y-79705186D01*
X122663025Y-78027223D01*
X125069828Y-78027223D01*
X126238000Y-79195395D01*
X127406172Y-78027223D01*
X127274480Y-77732343D01*
X126566964Y-77460739D01*
X125809368Y-77480564D01*
X125201520Y-77732343D01*
X125069828Y-78027223D01*
X122663025Y-78027223D01*
X120648000Y-76012198D01*
X120648000Y-73851945D01*
X120750149Y-73809738D01*
X120971076Y-73589196D01*
X121535409Y-73589196D01*
X121620467Y-73844539D01*
X122189965Y-74052516D01*
X122795700Y-74026723D01*
X123235533Y-73844539D01*
X123320591Y-73589196D01*
X122428000Y-72696605D01*
X121535409Y-73589196D01*
X120971076Y-73589196D01*
X121179231Y-73381404D01*
X121190405Y-73354494D01*
X121355804Y-73409591D01*
X122248395Y-72517000D01*
X122607605Y-72517000D01*
X123500196Y-73409591D01*
X123665138Y-73354647D01*
X123675262Y-73379149D01*
X124103596Y-73808231D01*
X124663528Y-74040735D01*
X125269812Y-74041264D01*
X125830149Y-73809738D01*
X126238336Y-73402263D01*
X126643596Y-73808231D01*
X127203528Y-74040735D01*
X127809812Y-74041264D01*
X128370149Y-73809738D01*
X128778336Y-73402263D01*
X129183596Y-73808231D01*
X129743528Y-74040735D01*
X130349812Y-74041264D01*
X130910149Y-73809738D01*
X131131264Y-73589008D01*
X131133938Y-73603217D01*
X131273010Y-73819341D01*
X131485210Y-73964331D01*
X131737100Y-74015340D01*
X133438900Y-74015340D01*
X133674217Y-73971062D01*
X133890341Y-73831990D01*
X134035331Y-73619790D01*
X134086340Y-73367900D01*
X134086340Y-71666100D01*
X134042062Y-71430783D01*
X133902990Y-71214659D01*
X133690790Y-71069669D01*
X133438900Y-71018660D01*
X131737100Y-71018660D01*
X131501783Y-71062938D01*
X131285659Y-71202010D01*
X131140669Y-71414210D01*
X131133897Y-71447649D01*
X130912404Y-71225769D01*
X130352472Y-70993265D01*
X129746188Y-70992736D01*
X129185851Y-71224262D01*
X128777664Y-71631737D01*
X128372404Y-71225769D01*
X127812472Y-70993265D01*
X127206188Y-70992736D01*
X126645851Y-71224262D01*
X126237664Y-71631737D01*
X125832404Y-71225769D01*
X125272472Y-70993265D01*
X124666188Y-70992736D01*
X124105851Y-71224262D01*
X123676769Y-71652596D01*
X123665595Y-71679506D01*
X123500196Y-71624409D01*
X122607605Y-72517000D01*
X122248395Y-72517000D01*
X121355804Y-71624409D01*
X121190862Y-71679353D01*
X121180738Y-71654851D01*
X120971058Y-71444804D01*
X121535409Y-71444804D01*
X122428000Y-72337395D01*
X123320591Y-71444804D01*
X123235533Y-71189461D01*
X122666035Y-70981484D01*
X122060300Y-71007277D01*
X121620467Y-71189461D01*
X121535409Y-71444804D01*
X120971058Y-71444804D01*
X120752404Y-71225769D01*
X120192472Y-70993265D01*
X119586188Y-70992736D01*
X119025851Y-71224262D01*
X118596769Y-71652596D01*
X118364265Y-72212528D01*
X118363736Y-72818812D01*
X116763000Y-72818812D01*
X116763000Y-69392000D01*
X135713000Y-69392000D01*
X135713000Y-78875927D01*
M02*
