G04 #@! TF.FileFunction,Legend,Top*
%FSLAX46Y46*%
G04 Gerber Fmt 4.6, Leading zero omitted, Abs format (unit mm)*
G04 Created by KiCad (PCBNEW no-vcs-found-product) date Fri 31 Jul 2015 10:51:20 PM CDT*
%MOMM*%
G01*
G04 APERTURE LIST*
%ADD10C,0.100000*%
%ADD11C,0.150000*%
%ADD12C,0.254000*%
G04 APERTURE END LIST*
D10*
D11*
X129063857Y-105481429D02*
X129825762Y-105481429D01*
X129444810Y-105862381D02*
X129444810Y-105100476D01*
X130778143Y-104862381D02*
X130301952Y-104862381D01*
X130254333Y-105338571D01*
X130301952Y-105290952D01*
X130397190Y-105243333D01*
X130635286Y-105243333D01*
X130730524Y-105290952D01*
X130778143Y-105338571D01*
X130825762Y-105433810D01*
X130825762Y-105671905D01*
X130778143Y-105767143D01*
X130730524Y-105814762D01*
X130635286Y-105862381D01*
X130397190Y-105862381D01*
X130301952Y-105814762D01*
X130254333Y-105767143D01*
X127269905Y-105576667D02*
X127746096Y-105576667D01*
X127174667Y-105862381D02*
X127508000Y-104862381D01*
X127841334Y-105862381D01*
X125039429Y-105338571D02*
X125182286Y-105386190D01*
X125229905Y-105433810D01*
X125277524Y-105529048D01*
X125277524Y-105671905D01*
X125229905Y-105767143D01*
X125182286Y-105814762D01*
X125087048Y-105862381D01*
X124706095Y-105862381D01*
X124706095Y-104862381D01*
X125039429Y-104862381D01*
X125134667Y-104910000D01*
X125182286Y-104957619D01*
X125229905Y-105052857D01*
X125229905Y-105148095D01*
X125182286Y-105243333D01*
X125134667Y-105290952D01*
X125039429Y-105338571D01*
X124706095Y-105338571D01*
X121285096Y-104910000D02*
X121189858Y-104862381D01*
X121047001Y-104862381D01*
X120904143Y-104910000D01*
X120808905Y-105005238D01*
X120761286Y-105100476D01*
X120713667Y-105290952D01*
X120713667Y-105433810D01*
X120761286Y-105624286D01*
X120808905Y-105719524D01*
X120904143Y-105814762D01*
X121047001Y-105862381D01*
X121142239Y-105862381D01*
X121285096Y-105814762D01*
X121332715Y-105767143D01*
X121332715Y-105433810D01*
X121142239Y-105433810D01*
X121761286Y-105862381D02*
X121761286Y-104862381D01*
X122332715Y-105862381D01*
X122332715Y-104862381D01*
X122808905Y-105862381D02*
X122808905Y-104862381D01*
X123047000Y-104862381D01*
X123189858Y-104910000D01*
X123285096Y-105005238D01*
X123332715Y-105100476D01*
X123380334Y-105290952D01*
X123380334Y-105433810D01*
X123332715Y-105624286D01*
X123285096Y-105719524D01*
X123189858Y-105814762D01*
X123047000Y-105862381D01*
X122808905Y-105862381D01*
X118210381Y-91218570D02*
X118258000Y-91123332D01*
X118353238Y-91028094D01*
X118496095Y-90885237D01*
X118543714Y-90789998D01*
X118543714Y-90694760D01*
X118305619Y-90742379D02*
X118353238Y-90647141D01*
X118448476Y-90551903D01*
X118638952Y-90504284D01*
X118972286Y-90504284D01*
X119162762Y-90551903D01*
X119258000Y-90647141D01*
X119305619Y-90742379D01*
X119305619Y-90932856D01*
X119258000Y-91028094D01*
X119162762Y-91123332D01*
X118972286Y-91170951D01*
X118638952Y-91170951D01*
X118448476Y-91123332D01*
X118353238Y-91028094D01*
X118305619Y-90932856D01*
X118305619Y-90742379D01*
X118972286Y-92028094D02*
X118305619Y-92028094D01*
X118972286Y-91599522D02*
X118448476Y-91599522D01*
X118353238Y-91647141D01*
X118305619Y-91742379D01*
X118305619Y-91885237D01*
X118353238Y-91980475D01*
X118400857Y-92028094D01*
X118305619Y-92932856D02*
X118829429Y-92932856D01*
X118924667Y-92885237D01*
X118972286Y-92789999D01*
X118972286Y-92599522D01*
X118924667Y-92504284D01*
X118353238Y-92932856D02*
X118305619Y-92837618D01*
X118305619Y-92599522D01*
X118353238Y-92504284D01*
X118448476Y-92456665D01*
X118543714Y-92456665D01*
X118638952Y-92504284D01*
X118686571Y-92599522D01*
X118686571Y-92837618D01*
X118734190Y-92932856D01*
X118305619Y-93837618D02*
X119305619Y-93837618D01*
X118353238Y-93837618D02*
X118305619Y-93742380D01*
X118305619Y-93551903D01*
X118353238Y-93456665D01*
X118400857Y-93409046D01*
X118496095Y-93361427D01*
X118781810Y-93361427D01*
X118877048Y-93409046D01*
X118924667Y-93456665D01*
X118972286Y-93551903D01*
X118972286Y-93742380D01*
X118924667Y-93837618D01*
X118305619Y-94313808D02*
X118972286Y-94313808D01*
X118781810Y-94313808D02*
X118877048Y-94361427D01*
X118924667Y-94409046D01*
X118972286Y-94504284D01*
X118972286Y-94599523D01*
X118305619Y-95361428D02*
X118829429Y-95361428D01*
X118924667Y-95313809D01*
X118972286Y-95218571D01*
X118972286Y-95028094D01*
X118924667Y-94932856D01*
X118353238Y-95361428D02*
X118305619Y-95266190D01*
X118305619Y-95028094D01*
X118353238Y-94932856D01*
X118448476Y-94885237D01*
X118543714Y-94885237D01*
X118638952Y-94932856D01*
X118686571Y-95028094D01*
X118686571Y-95266190D01*
X118734190Y-95361428D01*
X118972286Y-95694761D02*
X118972286Y-96075713D01*
X119305619Y-95837618D02*
X118448476Y-95837618D01*
X118353238Y-95885237D01*
X118305619Y-95980475D01*
X118305619Y-96075713D01*
X118972286Y-96837619D02*
X118305619Y-96837619D01*
X118972286Y-96409047D02*
X118448476Y-96409047D01*
X118353238Y-96456666D01*
X118305619Y-96551904D01*
X118305619Y-96694762D01*
X118353238Y-96790000D01*
X118400857Y-96837619D01*
X118305619Y-97313809D02*
X118972286Y-97313809D01*
X118781810Y-97313809D02*
X118877048Y-97361428D01*
X118924667Y-97409047D01*
X118972286Y-97504285D01*
X118972286Y-97599524D01*
X118353238Y-98313810D02*
X118305619Y-98218572D01*
X118305619Y-98028095D01*
X118353238Y-97932857D01*
X118448476Y-97885238D01*
X118829429Y-97885238D01*
X118924667Y-97932857D01*
X118972286Y-98028095D01*
X118972286Y-98218572D01*
X118924667Y-98313810D01*
X118829429Y-98361429D01*
X118734190Y-98361429D01*
X118638952Y-97885238D01*
X118829429Y-99551905D02*
X118829429Y-99885239D01*
X118305619Y-100028096D02*
X118305619Y-99551905D01*
X119305619Y-99551905D01*
X119305619Y-100028096D01*
X118972286Y-100456667D02*
X118305619Y-100456667D01*
X118877048Y-100456667D02*
X118924667Y-100504286D01*
X118972286Y-100599524D01*
X118972286Y-100742382D01*
X118924667Y-100837620D01*
X118829429Y-100885239D01*
X118305619Y-100885239D01*
X118353238Y-101790001D02*
X118305619Y-101694763D01*
X118305619Y-101504286D01*
X118353238Y-101409048D01*
X118400857Y-101361429D01*
X118496095Y-101313810D01*
X118781810Y-101313810D01*
X118877048Y-101361429D01*
X118924667Y-101409048D01*
X118972286Y-101504286D01*
X118972286Y-101694763D01*
X118924667Y-101790001D01*
X118305619Y-102361429D02*
X118353238Y-102266191D01*
X118400857Y-102218572D01*
X118496095Y-102170953D01*
X118781810Y-102170953D01*
X118877048Y-102218572D01*
X118924667Y-102266191D01*
X118972286Y-102361429D01*
X118972286Y-102504287D01*
X118924667Y-102599525D01*
X118877048Y-102647144D01*
X118781810Y-102694763D01*
X118496095Y-102694763D01*
X118400857Y-102647144D01*
X118353238Y-102599525D01*
X118305619Y-102504287D01*
X118305619Y-102361429D01*
X118305619Y-103551906D02*
X119305619Y-103551906D01*
X118353238Y-103551906D02*
X118305619Y-103456668D01*
X118305619Y-103266191D01*
X118353238Y-103170953D01*
X118400857Y-103123334D01*
X118496095Y-103075715D01*
X118781810Y-103075715D01*
X118877048Y-103123334D01*
X118924667Y-103170953D01*
X118972286Y-103266191D01*
X118972286Y-103456668D01*
X118924667Y-103551906D01*
X118353238Y-104409049D02*
X118305619Y-104313811D01*
X118305619Y-104123334D01*
X118353238Y-104028096D01*
X118448476Y-103980477D01*
X118829429Y-103980477D01*
X118924667Y-104028096D01*
X118972286Y-104123334D01*
X118972286Y-104313811D01*
X118924667Y-104409049D01*
X118829429Y-104456668D01*
X118734190Y-104456668D01*
X118638952Y-103980477D01*
X118305619Y-104885239D02*
X118972286Y-104885239D01*
X118781810Y-104885239D02*
X118877048Y-104932858D01*
X118924667Y-104980477D01*
X118972286Y-105075715D01*
X118972286Y-105170954D01*
X116755619Y-87432856D02*
X117755619Y-87432856D01*
X117755619Y-87813809D01*
X117708000Y-87909047D01*
X117660381Y-87956666D01*
X117565143Y-88004285D01*
X117422286Y-88004285D01*
X117327048Y-87956666D01*
X117279429Y-87909047D01*
X117231810Y-87813809D01*
X117231810Y-87432856D01*
X116755619Y-88432856D02*
X117755619Y-88432856D01*
X117041333Y-88766190D01*
X117755619Y-89099523D01*
X116755619Y-89099523D01*
X117755619Y-89766189D02*
X117755619Y-89956666D01*
X117708000Y-90051904D01*
X117612762Y-90147142D01*
X117422286Y-90194761D01*
X117088952Y-90194761D01*
X116898476Y-90147142D01*
X116803238Y-90051904D01*
X116755619Y-89956666D01*
X116755619Y-89766189D01*
X116803238Y-89670951D01*
X116898476Y-89575713D01*
X117088952Y-89528094D01*
X117422286Y-89528094D01*
X117612762Y-89575713D01*
X117708000Y-89670951D01*
X117755619Y-89766189D01*
X116755619Y-90623332D02*
X117755619Y-90623332D01*
X117755619Y-90861427D01*
X117708000Y-91004285D01*
X117612762Y-91099523D01*
X117517524Y-91147142D01*
X117327048Y-91194761D01*
X117184190Y-91194761D01*
X116993714Y-91147142D01*
X116898476Y-91099523D01*
X116803238Y-91004285D01*
X116755619Y-90861427D01*
X116755619Y-90623332D01*
X117136571Y-91623332D02*
X117136571Y-92385237D01*
X116850857Y-93432856D02*
X116803238Y-93385237D01*
X116755619Y-93242380D01*
X116755619Y-93147142D01*
X116803238Y-93004284D01*
X116898476Y-92909046D01*
X116993714Y-92861427D01*
X117184190Y-92813808D01*
X117327048Y-92813808D01*
X117517524Y-92861427D01*
X117612762Y-92909046D01*
X117708000Y-93004284D01*
X117755619Y-93147142D01*
X117755619Y-93242380D01*
X117708000Y-93385237D01*
X117660381Y-93432856D01*
X116755619Y-94004284D02*
X116803238Y-93909046D01*
X116850857Y-93861427D01*
X116946095Y-93813808D01*
X117231810Y-93813808D01*
X117327048Y-93861427D01*
X117374667Y-93909046D01*
X117422286Y-94004284D01*
X117422286Y-94147142D01*
X117374667Y-94242380D01*
X117327048Y-94289999D01*
X117231810Y-94337618D01*
X116946095Y-94337618D01*
X116850857Y-94289999D01*
X116803238Y-94242380D01*
X116755619Y-94147142D01*
X116755619Y-94004284D01*
X116755619Y-94766189D02*
X117422286Y-94766189D01*
X117327048Y-94766189D02*
X117374667Y-94813808D01*
X117422286Y-94909046D01*
X117422286Y-95051904D01*
X117374667Y-95147142D01*
X117279429Y-95194761D01*
X116755619Y-95194761D01*
X117279429Y-95194761D02*
X117374667Y-95242380D01*
X117422286Y-95337618D01*
X117422286Y-95480475D01*
X117374667Y-95575713D01*
X117279429Y-95623332D01*
X116755619Y-95623332D01*
X117422286Y-96099522D02*
X116422286Y-96099522D01*
X117374667Y-96099522D02*
X117422286Y-96194760D01*
X117422286Y-96385237D01*
X117374667Y-96480475D01*
X117327048Y-96528094D01*
X117231810Y-96575713D01*
X116946095Y-96575713D01*
X116850857Y-96528094D01*
X116803238Y-96480475D01*
X116755619Y-96385237D01*
X116755619Y-96194760D01*
X116803238Y-96099522D01*
X116755619Y-97432856D02*
X117279429Y-97432856D01*
X117374667Y-97385237D01*
X117422286Y-97289999D01*
X117422286Y-97099522D01*
X117374667Y-97004284D01*
X116803238Y-97432856D02*
X116755619Y-97337618D01*
X116755619Y-97099522D01*
X116803238Y-97004284D01*
X116898476Y-96956665D01*
X116993714Y-96956665D01*
X117088952Y-97004284D01*
X117136571Y-97099522D01*
X117136571Y-97337618D01*
X117184190Y-97432856D01*
X117422286Y-97766189D02*
X117422286Y-98147141D01*
X117755619Y-97909046D02*
X116898476Y-97909046D01*
X116803238Y-97956665D01*
X116755619Y-98051903D01*
X116755619Y-98147141D01*
X116755619Y-98480475D02*
X117422286Y-98480475D01*
X117755619Y-98480475D02*
X117708000Y-98432856D01*
X117660381Y-98480475D01*
X117708000Y-98528094D01*
X117755619Y-98480475D01*
X117660381Y-98480475D01*
X116755619Y-98956665D02*
X117755619Y-98956665D01*
X117374667Y-98956665D02*
X117422286Y-99051903D01*
X117422286Y-99242380D01*
X117374667Y-99337618D01*
X117327048Y-99385237D01*
X117231810Y-99432856D01*
X116946095Y-99432856D01*
X116850857Y-99385237D01*
X116803238Y-99337618D01*
X116755619Y-99242380D01*
X116755619Y-99051903D01*
X116803238Y-98956665D01*
X116755619Y-100004284D02*
X116803238Y-99909046D01*
X116898476Y-99861427D01*
X117755619Y-99861427D01*
X116803238Y-100766190D02*
X116755619Y-100670952D01*
X116755619Y-100480475D01*
X116803238Y-100385237D01*
X116898476Y-100337618D01*
X117279429Y-100337618D01*
X117374667Y-100385237D01*
X117422286Y-100480475D01*
X117422286Y-100670952D01*
X117374667Y-100766190D01*
X117279429Y-100813809D01*
X117184190Y-100813809D01*
X117088952Y-100337618D01*
X116755619Y-102004285D02*
X117755619Y-102004285D01*
X117422286Y-102480475D02*
X116755619Y-102480475D01*
X117327048Y-102480475D02*
X117374667Y-102528094D01*
X117422286Y-102623332D01*
X117422286Y-102766190D01*
X117374667Y-102861428D01*
X117279429Y-102909047D01*
X116755619Y-102909047D01*
X117422286Y-103242380D02*
X117422286Y-103623332D01*
X117755619Y-103385237D02*
X116898476Y-103385237D01*
X116803238Y-103432856D01*
X116755619Y-103528094D01*
X116755619Y-103623332D01*
X116803238Y-104337619D02*
X116755619Y-104242381D01*
X116755619Y-104051904D01*
X116803238Y-103956666D01*
X116898476Y-103909047D01*
X117279429Y-103909047D01*
X117374667Y-103956666D01*
X117422286Y-104051904D01*
X117422286Y-104242381D01*
X117374667Y-104337619D01*
X117279429Y-104385238D01*
X117184190Y-104385238D01*
X117088952Y-103909047D01*
X116755619Y-104813809D02*
X117422286Y-104813809D01*
X117231810Y-104813809D02*
X117327048Y-104861428D01*
X117374667Y-104909047D01*
X117422286Y-105004285D01*
X117422286Y-105099524D01*
X117422286Y-105290000D02*
X117422286Y-105670952D01*
X116755619Y-105432857D02*
X117612762Y-105432857D01*
X117708000Y-105480476D01*
X117755619Y-105575714D01*
X117755619Y-105670952D01*
X116755619Y-106432858D02*
X117279429Y-106432858D01*
X117374667Y-106385239D01*
X117422286Y-106290001D01*
X117422286Y-106099524D01*
X117374667Y-106004286D01*
X116803238Y-106432858D02*
X116755619Y-106337620D01*
X116755619Y-106099524D01*
X116803238Y-106004286D01*
X116898476Y-105956667D01*
X116993714Y-105956667D01*
X117088952Y-106004286D01*
X117136571Y-106099524D01*
X117136571Y-106337620D01*
X117184190Y-106432858D01*
X116803238Y-107337620D02*
X116755619Y-107242382D01*
X116755619Y-107051905D01*
X116803238Y-106956667D01*
X116850857Y-106909048D01*
X116946095Y-106861429D01*
X117231810Y-106861429D01*
X117327048Y-106909048D01*
X117374667Y-106956667D01*
X117422286Y-107051905D01*
X117422286Y-107242382D01*
X117374667Y-107337620D01*
X116803238Y-108147144D02*
X116755619Y-108051906D01*
X116755619Y-107861429D01*
X116803238Y-107766191D01*
X116898476Y-107718572D01*
X117279429Y-107718572D01*
X117374667Y-107766191D01*
X117422286Y-107861429D01*
X117422286Y-108051906D01*
X117374667Y-108147144D01*
X117279429Y-108194763D01*
X117184190Y-108194763D01*
X117088952Y-107718572D01*
X117729096Y-85352000D02*
X117633858Y-85304381D01*
X117491001Y-85304381D01*
X117348143Y-85352000D01*
X117252905Y-85447238D01*
X117205286Y-85542476D01*
X117157667Y-85732952D01*
X117157667Y-85875810D01*
X117205286Y-86066286D01*
X117252905Y-86161524D01*
X117348143Y-86256762D01*
X117491001Y-86304381D01*
X117586239Y-86304381D01*
X117729096Y-86256762D01*
X117776715Y-86209143D01*
X117776715Y-85875810D01*
X117586239Y-85875810D01*
X118205286Y-86304381D02*
X118205286Y-85304381D01*
X118776715Y-86304381D01*
X118776715Y-85304381D01*
X119252905Y-86304381D02*
X119252905Y-85304381D01*
X119491000Y-85304381D01*
X119633858Y-85352000D01*
X119729096Y-85447238D01*
X119776715Y-85542476D01*
X119824334Y-85732952D01*
X119824334Y-85875810D01*
X119776715Y-86066286D01*
X119729096Y-86161524D01*
X119633858Y-86256762D01*
X119491000Y-86304381D01*
X119252905Y-86304381D01*
X118689429Y-75366571D02*
X118832286Y-75414190D01*
X118879905Y-75461810D01*
X118927524Y-75557048D01*
X118927524Y-75699905D01*
X118879905Y-75795143D01*
X118832286Y-75842762D01*
X118737048Y-75890381D01*
X118356095Y-75890381D01*
X118356095Y-74890381D01*
X118689429Y-74890381D01*
X118784667Y-74938000D01*
X118832286Y-74985619D01*
X118879905Y-75080857D01*
X118879905Y-75176095D01*
X118832286Y-75271333D01*
X118784667Y-75318952D01*
X118689429Y-75366571D01*
X118356095Y-75366571D01*
X133619905Y-75731667D02*
X134096096Y-75731667D01*
X133524667Y-76017381D02*
X133858000Y-75017381D01*
X134191334Y-76017381D01*
X134077000Y-95585000D02*
X134177000Y-95585000D01*
X132777000Y-95585000D02*
X134077000Y-95585000D01*
X133477000Y-95585000D02*
X132677000Y-96285000D01*
X134277000Y-96285000D02*
X133477000Y-95585000D01*
X134277000Y-96285000D02*
X132677000Y-96285000D01*
X131318000Y-71247000D02*
X131318000Y-73787000D01*
X133858000Y-71247000D02*
X133858000Y-73787000D01*
X133858000Y-73787000D02*
X118618000Y-73787000D01*
X118618000Y-73787000D02*
X118618000Y-71247000D01*
X118618000Y-71247000D02*
X133858000Y-71247000D01*
X127919421Y-81934000D02*
G75*
G03X127919421Y-81934000I-141421J0D01*
G01*
X130278000Y-82334000D02*
X130278000Y-80734000D01*
X130278000Y-80734000D02*
X127278000Y-80734000D01*
X127278000Y-80734000D02*
X127278000Y-82334000D01*
X127278000Y-82334000D02*
X130278000Y-82334000D01*
X122839421Y-81934000D02*
G75*
G03X122839421Y-81934000I-141421J0D01*
G01*
X125198000Y-82334000D02*
X125198000Y-80734000D01*
X125198000Y-80734000D02*
X122198000Y-80734000D01*
X122198000Y-80734000D02*
X122198000Y-82334000D01*
X122198000Y-82334000D02*
X125198000Y-82334000D01*
X127438000Y-103108000D02*
G75*
G03X127438000Y-103108000I-200000J0D01*
G01*
X124738000Y-103608000D02*
X124738000Y-100608000D01*
X124738000Y-100608000D02*
X127738000Y-100608000D01*
X127738000Y-100608000D02*
X127738000Y-103608000D01*
X127738000Y-103608000D02*
X124738000Y-103608000D01*
X123338000Y-88805000D02*
X129138000Y-88805000D01*
X129138000Y-88805000D02*
X129138000Y-92805000D01*
X129138000Y-92805000D02*
X123338000Y-92805000D01*
X123338000Y-88805000D02*
X123338000Y-92805000D01*
X124061607Y-92305000D02*
G75*
G03X124061607Y-92305000I-223607J0D01*
G01*
X116238000Y-109890000D02*
X116238000Y-109390000D01*
X116238000Y-109390000D02*
X136238000Y-109390000D01*
X136238000Y-109390000D02*
X136238000Y-109890000D01*
X136238000Y-125690000D02*
X136238000Y-109890000D01*
X116238000Y-109890000D02*
X116238000Y-125690000D01*
X135338000Y-125690000D02*
X136238000Y-125690000D01*
X117138000Y-125690000D02*
X116238000Y-125690000D01*
X117138000Y-125690000D02*
X135338000Y-125690000D01*
D12*
X121038000Y-108769000D02*
X131438000Y-108769000D01*
X131438000Y-106369000D02*
X121038000Y-106369000D01*
X131438000Y-108769000D02*
X131438000Y-106369000D01*
X128838000Y-106369000D02*
X128838000Y-108769000D01*
X121038000Y-108769000D02*
X121038000Y-106369000D01*
D11*
X135834381Y-96496095D02*
X134834381Y-96496095D01*
X134834381Y-96258000D01*
X134882000Y-96115142D01*
X134977238Y-96019904D01*
X135072476Y-95972285D01*
X135262952Y-95924666D01*
X135405810Y-95924666D01*
X135596286Y-95972285D01*
X135691524Y-96019904D01*
X135786762Y-96115142D01*
X135834381Y-96258000D01*
X135834381Y-96496095D01*
X135834381Y-94972285D02*
X135834381Y-95543714D01*
X135834381Y-95258000D02*
X134834381Y-95258000D01*
X134977238Y-95353238D01*
X135072476Y-95448476D01*
X135120095Y-95543714D01*
X131492667Y-74255381D02*
X131492667Y-74969667D01*
X131445047Y-75112524D01*
X131349809Y-75207762D01*
X131206952Y-75255381D01*
X131111714Y-75255381D01*
X132492667Y-75255381D02*
X131921238Y-75255381D01*
X132206952Y-75255381D02*
X132206952Y-74255381D01*
X132111714Y-74398238D01*
X132016476Y-74493476D01*
X131921238Y-74541095D01*
X131611619Y-81629238D02*
X131564000Y-81724476D01*
X131468762Y-81819714D01*
X131325905Y-81962571D01*
X131278286Y-82057810D01*
X131278286Y-82153048D01*
X131516381Y-82105429D02*
X131468762Y-82200667D01*
X131373524Y-82295905D01*
X131183048Y-82343524D01*
X130849714Y-82343524D01*
X130659238Y-82295905D01*
X130564000Y-82200667D01*
X130516381Y-82105429D01*
X130516381Y-81914952D01*
X130564000Y-81819714D01*
X130659238Y-81724476D01*
X130849714Y-81676857D01*
X131183048Y-81676857D01*
X131373524Y-81724476D01*
X131468762Y-81819714D01*
X131516381Y-81914952D01*
X131516381Y-82105429D01*
X131516381Y-80724476D02*
X131516381Y-81295905D01*
X131516381Y-81010191D02*
X130516381Y-81010191D01*
X130659238Y-81105429D01*
X130754476Y-81200667D01*
X130802095Y-81295905D01*
X121745619Y-81629238D02*
X121698000Y-81724476D01*
X121602762Y-81819714D01*
X121459905Y-81962571D01*
X121412286Y-82057810D01*
X121412286Y-82153048D01*
X121650381Y-82105429D02*
X121602762Y-82200667D01*
X121507524Y-82295905D01*
X121317048Y-82343524D01*
X120983714Y-82343524D01*
X120793238Y-82295905D01*
X120698000Y-82200667D01*
X120650381Y-82105429D01*
X120650381Y-81914952D01*
X120698000Y-81819714D01*
X120793238Y-81724476D01*
X120983714Y-81676857D01*
X121317048Y-81676857D01*
X121507524Y-81724476D01*
X121602762Y-81819714D01*
X121650381Y-81914952D01*
X121650381Y-82105429D01*
X120745619Y-81295905D02*
X120698000Y-81248286D01*
X120650381Y-81153048D01*
X120650381Y-80914952D01*
X120698000Y-80819714D01*
X120745619Y-80772095D01*
X120840857Y-80724476D01*
X120936095Y-80724476D01*
X121078952Y-80772095D01*
X121650381Y-81343524D01*
X121650381Y-80724476D01*
X135707381Y-101512666D02*
X135231190Y-101846000D01*
X135707381Y-102084095D02*
X134707381Y-102084095D01*
X134707381Y-101703142D01*
X134755000Y-101607904D01*
X134802619Y-101560285D01*
X134897857Y-101512666D01*
X135040714Y-101512666D01*
X135135952Y-101560285D01*
X135183571Y-101607904D01*
X135231190Y-101703142D01*
X135231190Y-102084095D01*
X134802619Y-101131714D02*
X134755000Y-101084095D01*
X134707381Y-100988857D01*
X134707381Y-100750761D01*
X134755000Y-100655523D01*
X134802619Y-100607904D01*
X134897857Y-100560285D01*
X134993095Y-100560285D01*
X135135952Y-100607904D01*
X135707381Y-101179333D01*
X135707381Y-100560285D01*
X129611381Y-97829666D02*
X129135190Y-98163000D01*
X129611381Y-98401095D02*
X128611381Y-98401095D01*
X128611381Y-98020142D01*
X128659000Y-97924904D01*
X128706619Y-97877285D01*
X128801857Y-97829666D01*
X128944714Y-97829666D01*
X129039952Y-97877285D01*
X129087571Y-97924904D01*
X129135190Y-98020142D01*
X129135190Y-98401095D01*
X128611381Y-97496333D02*
X128611381Y-96877285D01*
X128992333Y-97210619D01*
X128992333Y-97067761D01*
X129039952Y-96972523D01*
X129087571Y-96924904D01*
X129182810Y-96877285D01*
X129420905Y-96877285D01*
X129516143Y-96924904D01*
X129563762Y-96972523D01*
X129611381Y-97067761D01*
X129611381Y-97353476D01*
X129563762Y-97448714D01*
X129516143Y-97496333D01*
X123896381Y-97829666D02*
X123420190Y-98163000D01*
X123896381Y-98401095D02*
X122896381Y-98401095D01*
X122896381Y-98020142D01*
X122944000Y-97924904D01*
X122991619Y-97877285D01*
X123086857Y-97829666D01*
X123229714Y-97829666D01*
X123324952Y-97877285D01*
X123372571Y-97924904D01*
X123420190Y-98020142D01*
X123420190Y-98401095D01*
X123229714Y-96972523D02*
X123896381Y-96972523D01*
X122848762Y-97210619D02*
X123563048Y-97448714D01*
X123563048Y-96829666D01*
X132278381Y-85256666D02*
X131802190Y-85590000D01*
X132278381Y-85828095D02*
X131278381Y-85828095D01*
X131278381Y-85447142D01*
X131326000Y-85351904D01*
X131373619Y-85304285D01*
X131468857Y-85256666D01*
X131611714Y-85256666D01*
X131706952Y-85304285D01*
X131754571Y-85351904D01*
X131802190Y-85447142D01*
X131802190Y-85828095D01*
X131278381Y-84351904D02*
X131278381Y-84828095D01*
X131754571Y-84875714D01*
X131706952Y-84828095D01*
X131659333Y-84732857D01*
X131659333Y-84494761D01*
X131706952Y-84399523D01*
X131754571Y-84351904D01*
X131849810Y-84304285D01*
X132087905Y-84304285D01*
X132183143Y-84351904D01*
X132230762Y-84399523D01*
X132278381Y-84494761D01*
X132278381Y-84732857D01*
X132230762Y-84828095D01*
X132183143Y-84875714D01*
X121102381Y-85256666D02*
X120626190Y-85590000D01*
X121102381Y-85828095D02*
X120102381Y-85828095D01*
X120102381Y-85447142D01*
X120150000Y-85351904D01*
X120197619Y-85304285D01*
X120292857Y-85256666D01*
X120435714Y-85256666D01*
X120530952Y-85304285D01*
X120578571Y-85351904D01*
X120626190Y-85447142D01*
X120626190Y-85828095D01*
X120102381Y-84399523D02*
X120102381Y-84590000D01*
X120150000Y-84685238D01*
X120197619Y-84732857D01*
X120340476Y-84828095D01*
X120530952Y-84875714D01*
X120911905Y-84875714D01*
X121007143Y-84828095D01*
X121054762Y-84780476D01*
X121102381Y-84685238D01*
X121102381Y-84494761D01*
X121054762Y-84399523D01*
X121007143Y-84351904D01*
X120911905Y-84304285D01*
X120673810Y-84304285D01*
X120578571Y-84351904D01*
X120530952Y-84399523D01*
X120483333Y-84494761D01*
X120483333Y-84685238D01*
X120530952Y-84780476D01*
X120578571Y-84828095D01*
X120673810Y-84875714D01*
X128611334Y-76906381D02*
X128278000Y-76430190D01*
X128039905Y-76906381D02*
X128039905Y-75906381D01*
X128420858Y-75906381D01*
X128516096Y-75954000D01*
X128563715Y-76001619D01*
X128611334Y-76096857D01*
X128611334Y-76239714D01*
X128563715Y-76334952D01*
X128516096Y-76382571D01*
X128420858Y-76430190D01*
X128039905Y-76430190D01*
X128944667Y-75906381D02*
X129611334Y-75906381D01*
X129182762Y-76906381D01*
X123531334Y-76906381D02*
X123198000Y-76430190D01*
X122959905Y-76906381D02*
X122959905Y-75906381D01*
X123340858Y-75906381D01*
X123436096Y-75954000D01*
X123483715Y-76001619D01*
X123531334Y-76096857D01*
X123531334Y-76239714D01*
X123483715Y-76334952D01*
X123436096Y-76382571D01*
X123340858Y-76430190D01*
X122959905Y-76430190D01*
X124102762Y-76334952D02*
X124007524Y-76287333D01*
X123959905Y-76239714D01*
X123912286Y-76144476D01*
X123912286Y-76096857D01*
X123959905Y-76001619D01*
X124007524Y-75954000D01*
X124102762Y-75906381D01*
X124293239Y-75906381D01*
X124388477Y-75954000D01*
X124436096Y-76001619D01*
X124483715Y-76096857D01*
X124483715Y-76144476D01*
X124436096Y-76239714D01*
X124388477Y-76287333D01*
X124293239Y-76334952D01*
X124102762Y-76334952D01*
X124007524Y-76382571D01*
X123959905Y-76430190D01*
X123912286Y-76525429D01*
X123912286Y-76715905D01*
X123959905Y-76811143D01*
X124007524Y-76858762D01*
X124102762Y-76906381D01*
X124293239Y-76906381D01*
X124388477Y-76858762D01*
X124436096Y-76811143D01*
X124483715Y-76715905D01*
X124483715Y-76525429D01*
X124436096Y-76430190D01*
X124388477Y-76382571D01*
X124293239Y-76334952D01*
X130770381Y-102869905D02*
X131579905Y-102869905D01*
X131675143Y-102822286D01*
X131722762Y-102774667D01*
X131770381Y-102679429D01*
X131770381Y-102488952D01*
X131722762Y-102393714D01*
X131675143Y-102346095D01*
X131579905Y-102298476D01*
X130770381Y-102298476D01*
X130865619Y-101869905D02*
X130818000Y-101822286D01*
X130770381Y-101727048D01*
X130770381Y-101488952D01*
X130818000Y-101393714D01*
X130865619Y-101346095D01*
X130960857Y-101298476D01*
X131056095Y-101298476D01*
X131198952Y-101346095D01*
X131770381Y-101917524D01*
X131770381Y-101298476D01*
X129490381Y-91566905D02*
X130299905Y-91566905D01*
X130395143Y-91519286D01*
X130442762Y-91471667D01*
X130490381Y-91376429D01*
X130490381Y-91185952D01*
X130442762Y-91090714D01*
X130395143Y-91043095D01*
X130299905Y-90995476D01*
X129490381Y-90995476D01*
X129490381Y-90614524D02*
X129490381Y-89995476D01*
X129871333Y-90328810D01*
X129871333Y-90185952D01*
X129918952Y-90090714D01*
X129966571Y-90043095D01*
X130061810Y-89995476D01*
X130299905Y-89995476D01*
X130395143Y-90043095D01*
X130442762Y-90090714D01*
X130490381Y-90185952D01*
X130490381Y-90471667D01*
X130442762Y-90566905D01*
X130395143Y-90614524D01*
X120483334Y-98782143D02*
X120435715Y-98829762D01*
X120292858Y-98877381D01*
X120197620Y-98877381D01*
X120054762Y-98829762D01*
X119959524Y-98734524D01*
X119911905Y-98639286D01*
X119864286Y-98448810D01*
X119864286Y-98305952D01*
X119911905Y-98115476D01*
X119959524Y-98020238D01*
X120054762Y-97925000D01*
X120197620Y-97877381D01*
X120292858Y-97877381D01*
X120435715Y-97925000D01*
X120483334Y-97972619D01*
X120816667Y-97877381D02*
X121483334Y-97877381D01*
X121054762Y-98877381D01*
X120721381Y-108307095D02*
X119721381Y-108307095D01*
X119721381Y-107926142D01*
X119769000Y-107830904D01*
X119816619Y-107783285D01*
X119911857Y-107735666D01*
X120054714Y-107735666D01*
X120149952Y-107783285D01*
X120197571Y-107830904D01*
X120245190Y-107926142D01*
X120245190Y-108307095D01*
X120721381Y-106783285D02*
X120721381Y-107354714D01*
X120721381Y-107069000D02*
X119721381Y-107069000D01*
X119864238Y-107164238D01*
X119959476Y-107259476D01*
X120007095Y-107354714D01*
X116609905Y-110688381D02*
X116609905Y-109688381D01*
X116990858Y-109688381D01*
X117086096Y-109736000D01*
X117133715Y-109783619D01*
X117181334Y-109878857D01*
X117181334Y-110021714D01*
X117133715Y-110116952D01*
X117086096Y-110164571D01*
X116990858Y-110212190D01*
X116609905Y-110212190D01*
X117562286Y-109783619D02*
X117609905Y-109736000D01*
X117705143Y-109688381D01*
X117943239Y-109688381D01*
X118038477Y-109736000D01*
X118086096Y-109783619D01*
X118133715Y-109878857D01*
X118133715Y-109974095D01*
X118086096Y-110116952D01*
X117514667Y-110688381D01*
X118133715Y-110688381D01*
M02*
