M48
;DRILL file {KiCad no-vcs-found-product} date Fri 17 Jul 2015 01:59:34 PM CDT
;FORMAT={2:4/ absolute / inch / keep zeros}
FMAT,2
INCH,TZ
T1C0.015
T2C0.030
T3C0.051
T4C0.063
T5C0.094
%
G90
G05
M72
T1
X047400Y-040950
X048200Y-036750
X048750Y-036000
X048850Y-032150
X049700Y-032550
X050800Y-040950
X050800Y-041550
X050850Y-032150
X051550Y-039500
X051775Y-038225
X052550Y-041600
T2
X047200Y-028550
X048200Y-028550
X049200Y-028550
X050200Y-028550
X051200Y-028550
X052200Y-028550
T3
X046747Y-044563
X047731Y-043579
X048716Y-048500
X049700Y-044563
X050684Y-048500
X051669Y-043579
X052653Y-044563
T4
X046700Y-030750
X046750Y-032750
X052700Y-030750
T5
X046747Y-046531
X052653Y-046531
T0
M30
