G04 #@! TF.FileFunction,Legend,Top*
%FSLAX46Y46*%
G04 Gerber Fmt 4.6, Leading zero omitted, Abs format (unit mm)*
G04 Created by KiCad (PCBNEW 4.0.6) date Tue Oct 10 10:25:47 2017*
%MOMM*%
%LPD*%
G01*
G04 APERTURE LIST*
%ADD10C,0.100000*%
%ADD11C,0.150000*%
%ADD12C,0.254000*%
G04 APERTURE END LIST*
D10*
D11*
X129063857Y-105481429D02*
X129825762Y-105481429D01*
X129444810Y-105862381D02*
X129444810Y-105100476D01*
X130778143Y-104862381D02*
X130301952Y-104862381D01*
X130254333Y-105338571D01*
X130301952Y-105290952D01*
X130397190Y-105243333D01*
X130635286Y-105243333D01*
X130730524Y-105290952D01*
X130778143Y-105338571D01*
X130825762Y-105433810D01*
X130825762Y-105671905D01*
X130778143Y-105767143D01*
X130730524Y-105814762D01*
X130635286Y-105862381D01*
X130397190Y-105862381D01*
X130301952Y-105814762D01*
X130254333Y-105767143D01*
X127269905Y-105576667D02*
X127746096Y-105576667D01*
X127174667Y-105862381D02*
X127508000Y-104862381D01*
X127841334Y-105862381D01*
X125039429Y-105338571D02*
X125182286Y-105386190D01*
X125229905Y-105433810D01*
X125277524Y-105529048D01*
X125277524Y-105671905D01*
X125229905Y-105767143D01*
X125182286Y-105814762D01*
X125087048Y-105862381D01*
X124706095Y-105862381D01*
X124706095Y-104862381D01*
X125039429Y-104862381D01*
X125134667Y-104910000D01*
X125182286Y-104957619D01*
X125229905Y-105052857D01*
X125229905Y-105148095D01*
X125182286Y-105243333D01*
X125134667Y-105290952D01*
X125039429Y-105338571D01*
X124706095Y-105338571D01*
X121285096Y-104910000D02*
X121189858Y-104862381D01*
X121047001Y-104862381D01*
X120904143Y-104910000D01*
X120808905Y-105005238D01*
X120761286Y-105100476D01*
X120713667Y-105290952D01*
X120713667Y-105433810D01*
X120761286Y-105624286D01*
X120808905Y-105719524D01*
X120904143Y-105814762D01*
X121047001Y-105862381D01*
X121142239Y-105862381D01*
X121285096Y-105814762D01*
X121332715Y-105767143D01*
X121332715Y-105433810D01*
X121142239Y-105433810D01*
X121761286Y-105862381D02*
X121761286Y-104862381D01*
X122332715Y-105862381D01*
X122332715Y-104862381D01*
X122808905Y-105862381D02*
X122808905Y-104862381D01*
X123047000Y-104862381D01*
X123189858Y-104910000D01*
X123285096Y-105005238D01*
X123332715Y-105100476D01*
X123380334Y-105290952D01*
X123380334Y-105433810D01*
X123332715Y-105624286D01*
X123285096Y-105719524D01*
X123189858Y-105814762D01*
X123047000Y-105862381D01*
X122808905Y-105862381D01*
X118260381Y-91218570D02*
X118308000Y-91123332D01*
X118403238Y-91028094D01*
X118546095Y-90885237D01*
X118593714Y-90789998D01*
X118593714Y-90694760D01*
X118355619Y-90742379D02*
X118403238Y-90647141D01*
X118498476Y-90551903D01*
X118688952Y-90504284D01*
X119022286Y-90504284D01*
X119212762Y-90551903D01*
X119308000Y-90647141D01*
X119355619Y-90742379D01*
X119355619Y-90932856D01*
X119308000Y-91028094D01*
X119212762Y-91123332D01*
X119022286Y-91170951D01*
X118688952Y-91170951D01*
X118498476Y-91123332D01*
X118403238Y-91028094D01*
X118355619Y-90932856D01*
X118355619Y-90742379D01*
X119022286Y-92028094D02*
X118355619Y-92028094D01*
X119022286Y-91599522D02*
X118498476Y-91599522D01*
X118403238Y-91647141D01*
X118355619Y-91742379D01*
X118355619Y-91885237D01*
X118403238Y-91980475D01*
X118450857Y-92028094D01*
X118355619Y-92932856D02*
X118879429Y-92932856D01*
X118974667Y-92885237D01*
X119022286Y-92789999D01*
X119022286Y-92599522D01*
X118974667Y-92504284D01*
X118403238Y-92932856D02*
X118355619Y-92837618D01*
X118355619Y-92599522D01*
X118403238Y-92504284D01*
X118498476Y-92456665D01*
X118593714Y-92456665D01*
X118688952Y-92504284D01*
X118736571Y-92599522D01*
X118736571Y-92837618D01*
X118784190Y-92932856D01*
X118355619Y-93837618D02*
X119355619Y-93837618D01*
X118403238Y-93837618D02*
X118355619Y-93742380D01*
X118355619Y-93551903D01*
X118403238Y-93456665D01*
X118450857Y-93409046D01*
X118546095Y-93361427D01*
X118831810Y-93361427D01*
X118927048Y-93409046D01*
X118974667Y-93456665D01*
X119022286Y-93551903D01*
X119022286Y-93742380D01*
X118974667Y-93837618D01*
X118355619Y-94313808D02*
X119022286Y-94313808D01*
X118831810Y-94313808D02*
X118927048Y-94361427D01*
X118974667Y-94409046D01*
X119022286Y-94504284D01*
X119022286Y-94599523D01*
X118355619Y-95361428D02*
X118879429Y-95361428D01*
X118974667Y-95313809D01*
X119022286Y-95218571D01*
X119022286Y-95028094D01*
X118974667Y-94932856D01*
X118403238Y-95361428D02*
X118355619Y-95266190D01*
X118355619Y-95028094D01*
X118403238Y-94932856D01*
X118498476Y-94885237D01*
X118593714Y-94885237D01*
X118688952Y-94932856D01*
X118736571Y-95028094D01*
X118736571Y-95266190D01*
X118784190Y-95361428D01*
X119022286Y-95694761D02*
X119022286Y-96075713D01*
X119355619Y-95837618D02*
X118498476Y-95837618D01*
X118403238Y-95885237D01*
X118355619Y-95980475D01*
X118355619Y-96075713D01*
X119022286Y-96837619D02*
X118355619Y-96837619D01*
X119022286Y-96409047D02*
X118498476Y-96409047D01*
X118403238Y-96456666D01*
X118355619Y-96551904D01*
X118355619Y-96694762D01*
X118403238Y-96790000D01*
X118450857Y-96837619D01*
X118355619Y-97313809D02*
X119022286Y-97313809D01*
X118831810Y-97313809D02*
X118927048Y-97361428D01*
X118974667Y-97409047D01*
X119022286Y-97504285D01*
X119022286Y-97599524D01*
X118403238Y-98313810D02*
X118355619Y-98218572D01*
X118355619Y-98028095D01*
X118403238Y-97932857D01*
X118498476Y-97885238D01*
X118879429Y-97885238D01*
X118974667Y-97932857D01*
X119022286Y-98028095D01*
X119022286Y-98218572D01*
X118974667Y-98313810D01*
X118879429Y-98361429D01*
X118784190Y-98361429D01*
X118688952Y-97885238D01*
X118879429Y-99551905D02*
X118879429Y-99885239D01*
X118355619Y-100028096D02*
X118355619Y-99551905D01*
X119355619Y-99551905D01*
X119355619Y-100028096D01*
X119022286Y-100456667D02*
X118355619Y-100456667D01*
X118927048Y-100456667D02*
X118974667Y-100504286D01*
X119022286Y-100599524D01*
X119022286Y-100742382D01*
X118974667Y-100837620D01*
X118879429Y-100885239D01*
X118355619Y-100885239D01*
X118403238Y-101790001D02*
X118355619Y-101694763D01*
X118355619Y-101504286D01*
X118403238Y-101409048D01*
X118450857Y-101361429D01*
X118546095Y-101313810D01*
X118831810Y-101313810D01*
X118927048Y-101361429D01*
X118974667Y-101409048D01*
X119022286Y-101504286D01*
X119022286Y-101694763D01*
X118974667Y-101790001D01*
X118355619Y-102361429D02*
X118403238Y-102266191D01*
X118450857Y-102218572D01*
X118546095Y-102170953D01*
X118831810Y-102170953D01*
X118927048Y-102218572D01*
X118974667Y-102266191D01*
X119022286Y-102361429D01*
X119022286Y-102504287D01*
X118974667Y-102599525D01*
X118927048Y-102647144D01*
X118831810Y-102694763D01*
X118546095Y-102694763D01*
X118450857Y-102647144D01*
X118403238Y-102599525D01*
X118355619Y-102504287D01*
X118355619Y-102361429D01*
X118355619Y-103551906D02*
X119355619Y-103551906D01*
X118403238Y-103551906D02*
X118355619Y-103456668D01*
X118355619Y-103266191D01*
X118403238Y-103170953D01*
X118450857Y-103123334D01*
X118546095Y-103075715D01*
X118831810Y-103075715D01*
X118927048Y-103123334D01*
X118974667Y-103170953D01*
X119022286Y-103266191D01*
X119022286Y-103456668D01*
X118974667Y-103551906D01*
X118403238Y-104409049D02*
X118355619Y-104313811D01*
X118355619Y-104123334D01*
X118403238Y-104028096D01*
X118498476Y-103980477D01*
X118879429Y-103980477D01*
X118974667Y-104028096D01*
X119022286Y-104123334D01*
X119022286Y-104313811D01*
X118974667Y-104409049D01*
X118879429Y-104456668D01*
X118784190Y-104456668D01*
X118688952Y-103980477D01*
X118355619Y-104885239D02*
X119022286Y-104885239D01*
X118831810Y-104885239D02*
X118927048Y-104932858D01*
X118974667Y-104980477D01*
X119022286Y-105075715D01*
X119022286Y-105170954D01*
X116705619Y-87432856D02*
X117705619Y-87432856D01*
X117705619Y-87813809D01*
X117658000Y-87909047D01*
X117610381Y-87956666D01*
X117515143Y-88004285D01*
X117372286Y-88004285D01*
X117277048Y-87956666D01*
X117229429Y-87909047D01*
X117181810Y-87813809D01*
X117181810Y-87432856D01*
X116705619Y-88432856D02*
X117705619Y-88432856D01*
X116991333Y-88766190D01*
X117705619Y-89099523D01*
X116705619Y-89099523D01*
X117705619Y-89766189D02*
X117705619Y-89956666D01*
X117658000Y-90051904D01*
X117562762Y-90147142D01*
X117372286Y-90194761D01*
X117038952Y-90194761D01*
X116848476Y-90147142D01*
X116753238Y-90051904D01*
X116705619Y-89956666D01*
X116705619Y-89766189D01*
X116753238Y-89670951D01*
X116848476Y-89575713D01*
X117038952Y-89528094D01*
X117372286Y-89528094D01*
X117562762Y-89575713D01*
X117658000Y-89670951D01*
X117705619Y-89766189D01*
X116705619Y-90623332D02*
X117705619Y-90623332D01*
X117705619Y-90861427D01*
X117658000Y-91004285D01*
X117562762Y-91099523D01*
X117467524Y-91147142D01*
X117277048Y-91194761D01*
X117134190Y-91194761D01*
X116943714Y-91147142D01*
X116848476Y-91099523D01*
X116753238Y-91004285D01*
X116705619Y-90861427D01*
X116705619Y-90623332D01*
X117086571Y-91623332D02*
X117086571Y-92385237D01*
X116800857Y-93432856D02*
X116753238Y-93385237D01*
X116705619Y-93242380D01*
X116705619Y-93147142D01*
X116753238Y-93004284D01*
X116848476Y-92909046D01*
X116943714Y-92861427D01*
X117134190Y-92813808D01*
X117277048Y-92813808D01*
X117467524Y-92861427D01*
X117562762Y-92909046D01*
X117658000Y-93004284D01*
X117705619Y-93147142D01*
X117705619Y-93242380D01*
X117658000Y-93385237D01*
X117610381Y-93432856D01*
X116705619Y-94004284D02*
X116753238Y-93909046D01*
X116800857Y-93861427D01*
X116896095Y-93813808D01*
X117181810Y-93813808D01*
X117277048Y-93861427D01*
X117324667Y-93909046D01*
X117372286Y-94004284D01*
X117372286Y-94147142D01*
X117324667Y-94242380D01*
X117277048Y-94289999D01*
X117181810Y-94337618D01*
X116896095Y-94337618D01*
X116800857Y-94289999D01*
X116753238Y-94242380D01*
X116705619Y-94147142D01*
X116705619Y-94004284D01*
X116705619Y-94766189D02*
X117372286Y-94766189D01*
X117277048Y-94766189D02*
X117324667Y-94813808D01*
X117372286Y-94909046D01*
X117372286Y-95051904D01*
X117324667Y-95147142D01*
X117229429Y-95194761D01*
X116705619Y-95194761D01*
X117229429Y-95194761D02*
X117324667Y-95242380D01*
X117372286Y-95337618D01*
X117372286Y-95480475D01*
X117324667Y-95575713D01*
X117229429Y-95623332D01*
X116705619Y-95623332D01*
X117372286Y-96099522D02*
X116372286Y-96099522D01*
X117324667Y-96099522D02*
X117372286Y-96194760D01*
X117372286Y-96385237D01*
X117324667Y-96480475D01*
X117277048Y-96528094D01*
X117181810Y-96575713D01*
X116896095Y-96575713D01*
X116800857Y-96528094D01*
X116753238Y-96480475D01*
X116705619Y-96385237D01*
X116705619Y-96194760D01*
X116753238Y-96099522D01*
X116705619Y-97432856D02*
X117229429Y-97432856D01*
X117324667Y-97385237D01*
X117372286Y-97289999D01*
X117372286Y-97099522D01*
X117324667Y-97004284D01*
X116753238Y-97432856D02*
X116705619Y-97337618D01*
X116705619Y-97099522D01*
X116753238Y-97004284D01*
X116848476Y-96956665D01*
X116943714Y-96956665D01*
X117038952Y-97004284D01*
X117086571Y-97099522D01*
X117086571Y-97337618D01*
X117134190Y-97432856D01*
X117372286Y-97766189D02*
X117372286Y-98147141D01*
X117705619Y-97909046D02*
X116848476Y-97909046D01*
X116753238Y-97956665D01*
X116705619Y-98051903D01*
X116705619Y-98147141D01*
X116705619Y-98480475D02*
X117372286Y-98480475D01*
X117705619Y-98480475D02*
X117658000Y-98432856D01*
X117610381Y-98480475D01*
X117658000Y-98528094D01*
X117705619Y-98480475D01*
X117610381Y-98480475D01*
X116705619Y-98956665D02*
X117705619Y-98956665D01*
X117324667Y-98956665D02*
X117372286Y-99051903D01*
X117372286Y-99242380D01*
X117324667Y-99337618D01*
X117277048Y-99385237D01*
X117181810Y-99432856D01*
X116896095Y-99432856D01*
X116800857Y-99385237D01*
X116753238Y-99337618D01*
X116705619Y-99242380D01*
X116705619Y-99051903D01*
X116753238Y-98956665D01*
X116705619Y-100004284D02*
X116753238Y-99909046D01*
X116848476Y-99861427D01*
X117705619Y-99861427D01*
X116753238Y-100766190D02*
X116705619Y-100670952D01*
X116705619Y-100480475D01*
X116753238Y-100385237D01*
X116848476Y-100337618D01*
X117229429Y-100337618D01*
X117324667Y-100385237D01*
X117372286Y-100480475D01*
X117372286Y-100670952D01*
X117324667Y-100766190D01*
X117229429Y-100813809D01*
X117134190Y-100813809D01*
X117038952Y-100337618D01*
X116705619Y-102004285D02*
X117705619Y-102004285D01*
X117372286Y-102480475D02*
X116705619Y-102480475D01*
X117277048Y-102480475D02*
X117324667Y-102528094D01*
X117372286Y-102623332D01*
X117372286Y-102766190D01*
X117324667Y-102861428D01*
X117229429Y-102909047D01*
X116705619Y-102909047D01*
X117372286Y-103242380D02*
X117372286Y-103623332D01*
X117705619Y-103385237D02*
X116848476Y-103385237D01*
X116753238Y-103432856D01*
X116705619Y-103528094D01*
X116705619Y-103623332D01*
X116753238Y-104337619D02*
X116705619Y-104242381D01*
X116705619Y-104051904D01*
X116753238Y-103956666D01*
X116848476Y-103909047D01*
X117229429Y-103909047D01*
X117324667Y-103956666D01*
X117372286Y-104051904D01*
X117372286Y-104242381D01*
X117324667Y-104337619D01*
X117229429Y-104385238D01*
X117134190Y-104385238D01*
X117038952Y-103909047D01*
X116705619Y-104813809D02*
X117372286Y-104813809D01*
X117181810Y-104813809D02*
X117277048Y-104861428D01*
X117324667Y-104909047D01*
X117372286Y-105004285D01*
X117372286Y-105099524D01*
X117372286Y-105290000D02*
X117372286Y-105670952D01*
X116705619Y-105432857D02*
X117562762Y-105432857D01*
X117658000Y-105480476D01*
X117705619Y-105575714D01*
X117705619Y-105670952D01*
X116705619Y-106432858D02*
X117229429Y-106432858D01*
X117324667Y-106385239D01*
X117372286Y-106290001D01*
X117372286Y-106099524D01*
X117324667Y-106004286D01*
X116753238Y-106432858D02*
X116705619Y-106337620D01*
X116705619Y-106099524D01*
X116753238Y-106004286D01*
X116848476Y-105956667D01*
X116943714Y-105956667D01*
X117038952Y-106004286D01*
X117086571Y-106099524D01*
X117086571Y-106337620D01*
X117134190Y-106432858D01*
X116753238Y-107337620D02*
X116705619Y-107242382D01*
X116705619Y-107051905D01*
X116753238Y-106956667D01*
X116800857Y-106909048D01*
X116896095Y-106861429D01*
X117181810Y-106861429D01*
X117277048Y-106909048D01*
X117324667Y-106956667D01*
X117372286Y-107051905D01*
X117372286Y-107242382D01*
X117324667Y-107337620D01*
X116753238Y-108147144D02*
X116705619Y-108051906D01*
X116705619Y-107861429D01*
X116753238Y-107766191D01*
X116848476Y-107718572D01*
X117229429Y-107718572D01*
X117324667Y-107766191D01*
X117372286Y-107861429D01*
X117372286Y-108051906D01*
X117324667Y-108147144D01*
X117229429Y-108194763D01*
X117134190Y-108194763D01*
X117038952Y-107718572D01*
X125476096Y-76779500D02*
X125380858Y-76731881D01*
X125238001Y-76731881D01*
X125095143Y-76779500D01*
X124999905Y-76874738D01*
X124952286Y-76969976D01*
X124904667Y-77160452D01*
X124904667Y-77303310D01*
X124952286Y-77493786D01*
X124999905Y-77589024D01*
X125095143Y-77684262D01*
X125238001Y-77731881D01*
X125333239Y-77731881D01*
X125476096Y-77684262D01*
X125523715Y-77636643D01*
X125523715Y-77303310D01*
X125333239Y-77303310D01*
X125952286Y-77731881D02*
X125952286Y-76731881D01*
X126523715Y-77731881D01*
X126523715Y-76731881D01*
X126999905Y-77731881D02*
X126999905Y-76731881D01*
X127238000Y-76731881D01*
X127380858Y-76779500D01*
X127476096Y-76874738D01*
X127523715Y-76969976D01*
X127571334Y-77160452D01*
X127571334Y-77303310D01*
X127523715Y-77493786D01*
X127476096Y-77589024D01*
X127380858Y-77684262D01*
X127238000Y-77731881D01*
X126999905Y-77731881D01*
X118689429Y-77144571D02*
X118832286Y-77192190D01*
X118879905Y-77239810D01*
X118927524Y-77335048D01*
X118927524Y-77477905D01*
X118879905Y-77573143D01*
X118832286Y-77620762D01*
X118737048Y-77668381D01*
X118356095Y-77668381D01*
X118356095Y-76668381D01*
X118689429Y-76668381D01*
X118784667Y-76716000D01*
X118832286Y-76763619D01*
X118879905Y-76858857D01*
X118879905Y-76954095D01*
X118832286Y-77049333D01*
X118784667Y-77096952D01*
X118689429Y-77144571D01*
X118356095Y-77144571D01*
X133619905Y-77255667D02*
X134096096Y-77255667D01*
X133524667Y-77541381D02*
X133858000Y-76541381D01*
X134191334Y-77541381D01*
X134077000Y-95585000D02*
X134177000Y-95585000D01*
X132777000Y-95585000D02*
X134077000Y-95585000D01*
X133477000Y-95585000D02*
X132677000Y-96285000D01*
X134277000Y-96285000D02*
X133477000Y-95585000D01*
X134277000Y-96285000D02*
X132677000Y-96285000D01*
X116238000Y-109890000D02*
X116238000Y-109390000D01*
X116238000Y-109390000D02*
X136238000Y-109390000D01*
X136238000Y-109390000D02*
X136238000Y-109890000D01*
X136238000Y-125690000D02*
X136238000Y-109890000D01*
X116238000Y-109890000D02*
X116238000Y-125690000D01*
X135338000Y-125690000D02*
X136238000Y-125690000D01*
X117138000Y-125690000D02*
X116238000Y-125690000D01*
X117138000Y-125690000D02*
X135338000Y-125690000D01*
D12*
X121038000Y-108769000D02*
X131438000Y-108769000D01*
X131438000Y-106369000D02*
X121038000Y-106369000D01*
X131438000Y-108769000D02*
X131438000Y-106369000D01*
X128838000Y-106369000D02*
X128838000Y-108769000D01*
X121038000Y-108769000D02*
X121038000Y-106369000D01*
D11*
X129446421Y-94345000D02*
G75*
G03X129446421Y-94345000I-141421J0D01*
G01*
X129705000Y-91845000D02*
X128105000Y-91845000D01*
X128105000Y-91845000D02*
X128105000Y-94845000D01*
X128105000Y-94845000D02*
X129705000Y-94845000D01*
X129705000Y-94845000D02*
X129705000Y-91845000D01*
X122771000Y-91845000D02*
X122771000Y-94845000D01*
X124371000Y-91845000D02*
X122771000Y-91845000D01*
X124371000Y-94845000D02*
X124371000Y-91845000D01*
X122771000Y-94845000D02*
X124371000Y-94845000D01*
X123312421Y-92345000D02*
G75*
G03X123312421Y-92345000I-141421J0D01*
G01*
X131318000Y-71247000D02*
X131318000Y-73787000D01*
X133858000Y-71247000D02*
X133858000Y-73787000D01*
X133858000Y-73787000D02*
X118618000Y-73787000D01*
X118618000Y-73787000D02*
X118618000Y-71247000D01*
X118618000Y-71247000D02*
X133858000Y-71247000D01*
X130297421Y-85233000D02*
G75*
G03X130297421Y-85233000I-141421J0D01*
G01*
X129756000Y-87733000D02*
X131356000Y-87733000D01*
X131356000Y-87733000D02*
X131356000Y-84733000D01*
X131356000Y-84733000D02*
X129756000Y-84733000D01*
X129756000Y-84733000D02*
X129756000Y-87733000D01*
X121661421Y-85233000D02*
G75*
G03X121661421Y-85233000I-141421J0D01*
G01*
X121120000Y-87733000D02*
X122720000Y-87733000D01*
X122720000Y-87733000D02*
X122720000Y-84733000D01*
X122720000Y-84733000D02*
X121120000Y-84733000D01*
X121120000Y-84733000D02*
X121120000Y-87733000D01*
X135834381Y-96496095D02*
X134834381Y-96496095D01*
X134834381Y-96258000D01*
X134882000Y-96115142D01*
X134977238Y-96019904D01*
X135072476Y-95972285D01*
X135262952Y-95924666D01*
X135405810Y-95924666D01*
X135596286Y-95972285D01*
X135691524Y-96019904D01*
X135786762Y-96115142D01*
X135834381Y-96258000D01*
X135834381Y-96496095D01*
X135834381Y-94972285D02*
X135834381Y-95543714D01*
X135834381Y-95258000D02*
X134834381Y-95258000D01*
X134977238Y-95353238D01*
X135072476Y-95448476D01*
X135120095Y-95543714D01*
X129674881Y-82653166D02*
X129198690Y-82986500D01*
X129674881Y-83224595D02*
X128674881Y-83224595D01*
X128674881Y-82843642D01*
X128722500Y-82748404D01*
X128770119Y-82700785D01*
X128865357Y-82653166D01*
X129008214Y-82653166D01*
X129103452Y-82700785D01*
X129151071Y-82748404D01*
X129198690Y-82843642D01*
X129198690Y-83224595D01*
X129674881Y-81700785D02*
X129674881Y-82272214D01*
X129674881Y-81986500D02*
X128674881Y-81986500D01*
X128817738Y-82081738D01*
X128912976Y-82176976D01*
X128960595Y-82272214D01*
X135707381Y-101512666D02*
X135231190Y-101846000D01*
X135707381Y-102084095D02*
X134707381Y-102084095D01*
X134707381Y-101703142D01*
X134755000Y-101607904D01*
X134802619Y-101560285D01*
X134897857Y-101512666D01*
X135040714Y-101512666D01*
X135135952Y-101560285D01*
X135183571Y-101607904D01*
X135231190Y-101703142D01*
X135231190Y-102084095D01*
X134802619Y-101131714D02*
X134755000Y-101084095D01*
X134707381Y-100988857D01*
X134707381Y-100750761D01*
X134755000Y-100655523D01*
X134802619Y-100607904D01*
X134897857Y-100560285D01*
X134993095Y-100560285D01*
X135135952Y-100607904D01*
X135707381Y-101179333D01*
X135707381Y-100560285D01*
X129611381Y-99226666D02*
X129135190Y-99560000D01*
X129611381Y-99798095D02*
X128611381Y-99798095D01*
X128611381Y-99417142D01*
X128659000Y-99321904D01*
X128706619Y-99274285D01*
X128801857Y-99226666D01*
X128944714Y-99226666D01*
X129039952Y-99274285D01*
X129087571Y-99321904D01*
X129135190Y-99417142D01*
X129135190Y-99798095D01*
X128611381Y-98893333D02*
X128611381Y-98274285D01*
X128992333Y-98607619D01*
X128992333Y-98464761D01*
X129039952Y-98369523D01*
X129087571Y-98321904D01*
X129182810Y-98274285D01*
X129420905Y-98274285D01*
X129516143Y-98321904D01*
X129563762Y-98369523D01*
X129611381Y-98464761D01*
X129611381Y-98750476D01*
X129563762Y-98845714D01*
X129516143Y-98893333D01*
X123896381Y-99226666D02*
X123420190Y-99560000D01*
X123896381Y-99798095D02*
X122896381Y-99798095D01*
X122896381Y-99417142D01*
X122944000Y-99321904D01*
X122991619Y-99274285D01*
X123086857Y-99226666D01*
X123229714Y-99226666D01*
X123324952Y-99274285D01*
X123372571Y-99321904D01*
X123420190Y-99417142D01*
X123420190Y-99798095D01*
X123229714Y-98369523D02*
X123896381Y-98369523D01*
X122848762Y-98607619D02*
X123563048Y-98845714D01*
X123563048Y-98226666D01*
X133754834Y-83669143D02*
X133707215Y-83716762D01*
X133564358Y-83764381D01*
X133469120Y-83764381D01*
X133326262Y-83716762D01*
X133231024Y-83621524D01*
X133183405Y-83526286D01*
X133135786Y-83335810D01*
X133135786Y-83192952D01*
X133183405Y-83002476D01*
X133231024Y-82907238D01*
X133326262Y-82812000D01*
X133469120Y-82764381D01*
X133564358Y-82764381D01*
X133707215Y-82812000D01*
X133754834Y-82859619D01*
X134088167Y-82764381D02*
X134754834Y-82764381D01*
X134326262Y-83764381D01*
X120721381Y-108307095D02*
X119721381Y-108307095D01*
X119721381Y-107926142D01*
X119769000Y-107830904D01*
X119816619Y-107783285D01*
X119911857Y-107735666D01*
X120054714Y-107735666D01*
X120149952Y-107783285D01*
X120197571Y-107830904D01*
X120245190Y-107926142D01*
X120245190Y-108307095D01*
X120721381Y-106783285D02*
X120721381Y-107354714D01*
X120721381Y-107069000D02*
X119721381Y-107069000D01*
X119864238Y-107164238D01*
X119959476Y-107259476D01*
X120007095Y-107354714D01*
X116609905Y-110688381D02*
X116609905Y-109688381D01*
X116990858Y-109688381D01*
X117086096Y-109736000D01*
X117133715Y-109783619D01*
X117181334Y-109878857D01*
X117181334Y-110021714D01*
X117133715Y-110116952D01*
X117086096Y-110164571D01*
X116990858Y-110212190D01*
X116609905Y-110212190D01*
X117562286Y-109783619D02*
X117609905Y-109736000D01*
X117705143Y-109688381D01*
X117943239Y-109688381D01*
X118038477Y-109736000D01*
X118086096Y-109783619D01*
X118133715Y-109878857D01*
X118133715Y-109974095D01*
X118086096Y-110116952D01*
X117514667Y-110688381D01*
X118133715Y-110688381D01*
X127150834Y-89638143D02*
X127103215Y-89685762D01*
X126960358Y-89733381D01*
X126865120Y-89733381D01*
X126722262Y-89685762D01*
X126627024Y-89590524D01*
X126579405Y-89495286D01*
X126531786Y-89304810D01*
X126531786Y-89161952D01*
X126579405Y-88971476D01*
X126627024Y-88876238D01*
X126722262Y-88781000D01*
X126865120Y-88733381D01*
X126960358Y-88733381D01*
X127103215Y-88781000D01*
X127150834Y-88828619D01*
X127722262Y-89161952D02*
X127627024Y-89114333D01*
X127579405Y-89066714D01*
X127531786Y-88971476D01*
X127531786Y-88923857D01*
X127579405Y-88828619D01*
X127627024Y-88781000D01*
X127722262Y-88733381D01*
X127912739Y-88733381D01*
X128007977Y-88781000D01*
X128055596Y-88828619D01*
X128103215Y-88923857D01*
X128103215Y-88971476D01*
X128055596Y-89066714D01*
X128007977Y-89114333D01*
X127912739Y-89161952D01*
X127722262Y-89161952D01*
X127627024Y-89209571D01*
X127579405Y-89257190D01*
X127531786Y-89352429D01*
X127531786Y-89542905D01*
X127579405Y-89638143D01*
X127627024Y-89685762D01*
X127722262Y-89733381D01*
X127912739Y-89733381D01*
X128007977Y-89685762D01*
X128055596Y-89638143D01*
X128103215Y-89542905D01*
X128103215Y-89352429D01*
X128055596Y-89257190D01*
X128007977Y-89209571D01*
X127912739Y-89161952D01*
X128166905Y-91257381D02*
X128166905Y-90257381D01*
X128405000Y-90257381D01*
X128547858Y-90305000D01*
X128643096Y-90400238D01*
X128690715Y-90495476D01*
X128738334Y-90685952D01*
X128738334Y-90828810D01*
X128690715Y-91019286D01*
X128643096Y-91114524D01*
X128547858Y-91209762D01*
X128405000Y-91257381D01*
X128166905Y-91257381D01*
X129119286Y-90352619D02*
X129166905Y-90305000D01*
X129262143Y-90257381D01*
X129500239Y-90257381D01*
X129595477Y-90305000D01*
X129643096Y-90352619D01*
X129690715Y-90447857D01*
X129690715Y-90543095D01*
X129643096Y-90685952D01*
X129071667Y-91257381D01*
X129690715Y-91257381D01*
X122832905Y-91297381D02*
X122832905Y-90297381D01*
X123071000Y-90297381D01*
X123213858Y-90345000D01*
X123309096Y-90440238D01*
X123356715Y-90535476D01*
X123404334Y-90725952D01*
X123404334Y-90868810D01*
X123356715Y-91059286D01*
X123309096Y-91154524D01*
X123213858Y-91249762D01*
X123071000Y-91297381D01*
X122832905Y-91297381D01*
X123737667Y-90297381D02*
X124356715Y-90297381D01*
X124023381Y-90678333D01*
X124166239Y-90678333D01*
X124261477Y-90725952D01*
X124309096Y-90773571D01*
X124356715Y-90868810D01*
X124356715Y-91106905D01*
X124309096Y-91202143D01*
X124261477Y-91249762D01*
X124166239Y-91297381D01*
X123880524Y-91297381D01*
X123785286Y-91249762D01*
X123737667Y-91202143D01*
X131492667Y-74255381D02*
X131492667Y-74969667D01*
X131445047Y-75112524D01*
X131349809Y-75207762D01*
X131206952Y-75255381D01*
X131111714Y-75255381D01*
X132492667Y-75255381D02*
X131921238Y-75255381D01*
X132206952Y-75255381D02*
X132206952Y-74255381D01*
X132111714Y-74398238D01*
X132016476Y-74493476D01*
X131921238Y-74541095D01*
X129460762Y-88749167D02*
X129936953Y-88749167D01*
X129365524Y-89034881D02*
X129698857Y-88034881D01*
X130032191Y-89034881D01*
X130222667Y-88034881D02*
X130794096Y-88034881D01*
X130508381Y-89034881D02*
X130508381Y-88034881D01*
X131651239Y-89034881D02*
X131079810Y-89034881D01*
X131365524Y-89034881D02*
X131365524Y-88034881D01*
X131270286Y-88177738D01*
X131175048Y-88272976D01*
X131079810Y-88320595D01*
X120824762Y-88749167D02*
X121300953Y-88749167D01*
X120729524Y-89034881D02*
X121062857Y-88034881D01*
X121396191Y-89034881D01*
X121586667Y-88034881D02*
X122158096Y-88034881D01*
X121872381Y-89034881D02*
X121872381Y-88034881D01*
X122443810Y-88130119D02*
X122491429Y-88082500D01*
X122586667Y-88034881D01*
X122824763Y-88034881D01*
X122920001Y-88082500D01*
X122967620Y-88130119D01*
X123015239Y-88225357D01*
X123015239Y-88320595D01*
X122967620Y-88463452D01*
X122396191Y-89034881D01*
X123015239Y-89034881D01*
X124991834Y-89638143D02*
X124944215Y-89685762D01*
X124801358Y-89733381D01*
X124706120Y-89733381D01*
X124563262Y-89685762D01*
X124468024Y-89590524D01*
X124420405Y-89495286D01*
X124372786Y-89304810D01*
X124372786Y-89161952D01*
X124420405Y-88971476D01*
X124468024Y-88876238D01*
X124563262Y-88781000D01*
X124706120Y-88733381D01*
X124801358Y-88733381D01*
X124944215Y-88781000D01*
X124991834Y-88828619D01*
X125468024Y-89733381D02*
X125658500Y-89733381D01*
X125753739Y-89685762D01*
X125801358Y-89638143D01*
X125896596Y-89495286D01*
X125944215Y-89304810D01*
X125944215Y-88923857D01*
X125896596Y-88828619D01*
X125848977Y-88781000D01*
X125753739Y-88733381D01*
X125563262Y-88733381D01*
X125468024Y-88781000D01*
X125420405Y-88828619D01*
X125372786Y-88923857D01*
X125372786Y-89161952D01*
X125420405Y-89257190D01*
X125468024Y-89304810D01*
X125563262Y-89352429D01*
X125753739Y-89352429D01*
X125848977Y-89304810D01*
X125896596Y-89257190D01*
X125944215Y-89161952D01*
X118038643Y-83732643D02*
X117991024Y-83780262D01*
X117848167Y-83827881D01*
X117752929Y-83827881D01*
X117610071Y-83780262D01*
X117514833Y-83685024D01*
X117467214Y-83589786D01*
X117419595Y-83399310D01*
X117419595Y-83256452D01*
X117467214Y-83065976D01*
X117514833Y-82970738D01*
X117610071Y-82875500D01*
X117752929Y-82827881D01*
X117848167Y-82827881D01*
X117991024Y-82875500D01*
X118038643Y-82923119D01*
X118991024Y-83827881D02*
X118419595Y-83827881D01*
X118705309Y-83827881D02*
X118705309Y-82827881D01*
X118610071Y-82970738D01*
X118514833Y-83065976D01*
X118419595Y-83113595D01*
X119610071Y-82827881D02*
X119705310Y-82827881D01*
X119800548Y-82875500D01*
X119848167Y-82923119D01*
X119895786Y-83018357D01*
X119943405Y-83208833D01*
X119943405Y-83446929D01*
X119895786Y-83637405D01*
X119848167Y-83732643D01*
X119800548Y-83780262D01*
X119705310Y-83827881D01*
X119610071Y-83827881D01*
X119514833Y-83780262D01*
X119467214Y-83732643D01*
X119419595Y-83637405D01*
X119371976Y-83446929D01*
X119371976Y-83208833D01*
X119419595Y-83018357D01*
X119467214Y-82923119D01*
X119514833Y-82875500D01*
X119610071Y-82827881D01*
M02*
