G04 #@! TF.FileFunction,Copper,L1,Top,Signal*
%FSLAX46Y46*%
G04 Gerber Fmt 4.6, Leading zero omitted, Abs format (unit mm)*
G04 Created by KiCad (PCBNEW no-vcs-found-product) date Fri 17 Jul 2015 01:59:30 PM CDT*
%MOMM*%
G01*
G04 APERTURE LIST*
%ADD10C,0.100000*%
%ADD11R,2.000000X2.000000*%
%ADD12R,1.524000X1.524000*%
%ADD13C,1.524000*%
%ADD14R,0.600000X0.900000*%
%ADD15R,1.600000X1.500000*%
%ADD16R,1.500000X1.600000*%
%ADD17C,2.540000*%
%ADD18R,2.500000X0.450000*%
%ADD19R,0.700000X1.600000*%
%ADD20C,1.700000*%
%ADD21C,3.000000*%
%ADD22C,0.635000*%
%ADD23C,0.250000*%
G04 APERTURE END LIST*
D10*
D11*
X130226000Y-107442000D03*
X133426000Y-107442000D03*
D12*
X132588000Y-72517000D03*
D13*
X130048000Y-72517000D03*
X127508000Y-72517000D03*
X124968000Y-72517000D03*
X122428000Y-72517000D03*
X119888000Y-72517000D03*
D14*
X128778000Y-80134000D03*
X129728000Y-82934000D03*
X127828000Y-82934000D03*
X123698000Y-80134000D03*
X124648000Y-82934000D03*
X122748000Y-82934000D03*
D15*
X124811000Y-107442000D03*
X127411000Y-107442000D03*
D16*
X127508000Y-96363000D03*
X127508000Y-98963000D03*
X124968000Y-96363000D03*
X124968000Y-98963000D03*
D15*
X127478000Y-85090000D03*
X130078000Y-85090000D03*
X124998000Y-85090000D03*
X122398000Y-85090000D03*
X127478000Y-78105000D03*
X130078000Y-78105000D03*
X124998000Y-78105000D03*
X122398000Y-78105000D03*
D17*
X133858000Y-78105000D03*
X118618000Y-78105000D03*
X118745000Y-83185000D03*
D18*
X128963000Y-103083000D03*
X128963000Y-102433000D03*
X128963000Y-101783000D03*
X128963000Y-101133000D03*
X123513000Y-101133000D03*
X123513000Y-101783000D03*
X123513000Y-102433000D03*
X123513000Y-103083000D03*
D19*
X124333000Y-93905000D03*
X125603000Y-93905000D03*
X126873000Y-93905000D03*
X128143000Y-93905000D03*
X128143000Y-87705000D03*
X126873000Y-87705000D03*
X125603000Y-87705000D03*
X124333000Y-87705000D03*
D15*
X127411000Y-105029000D03*
X124811000Y-105029000D03*
D20*
X133738000Y-113190000D03*
X126238000Y-113190000D03*
X118738000Y-113190000D03*
X131238000Y-110690000D03*
X121238000Y-110690000D03*
X128738000Y-123190000D03*
X123738000Y-123190000D03*
D21*
X133738000Y-118190000D03*
X118738000Y-118190000D03*
D22*
X126238000Y-82677000D03*
X129032000Y-105537000D03*
X130937000Y-100330000D03*
X129159000Y-81661000D03*
X124079000Y-81661000D03*
X123825000Y-91440000D03*
X133477000Y-105664000D03*
X131508500Y-97091500D03*
X122428000Y-93345000D03*
X129032000Y-104013000D03*
X120396000Y-104013000D03*
D23*
X127478000Y-78105000D02*
X126238000Y-79345000D01*
X126238000Y-79345000D02*
X126238000Y-79502000D01*
X126238000Y-83185000D02*
X126238000Y-82677000D01*
X126238000Y-82677000D02*
X126238000Y-81534000D01*
X126238000Y-81534000D02*
X126238000Y-79502000D01*
X126238000Y-79502000D02*
X126238000Y-79345000D01*
X126238000Y-79345000D02*
X124998000Y-78105000D01*
X127478000Y-85090000D02*
X127478000Y-84425000D01*
X127478000Y-84425000D02*
X126238000Y-83185000D01*
X124998000Y-85090000D02*
X124998000Y-84425000D01*
X124998000Y-84425000D02*
X126238000Y-83185000D01*
X127411000Y-105029000D02*
X128524000Y-105029000D01*
X128524000Y-105029000D02*
X129032000Y-105537000D01*
X128963000Y-101133000D02*
X130134000Y-101133000D01*
X130134000Y-101133000D02*
X130937000Y-100330000D01*
X126619000Y-91440000D02*
X128016000Y-92837000D01*
X128016000Y-92837000D02*
X128016000Y-93778000D01*
X128016000Y-93778000D02*
X128143000Y-93905000D01*
X129728000Y-82934000D02*
X129728000Y-82230000D01*
X129728000Y-82230000D02*
X129159000Y-81661000D01*
X124648000Y-82934000D02*
X124648000Y-82230000D01*
X124648000Y-82230000D02*
X124079000Y-81661000D01*
X128143000Y-87705000D02*
X128143000Y-89916000D01*
X128143000Y-89916000D02*
X126619000Y-91440000D01*
X125603000Y-87705000D02*
X125603000Y-90170000D01*
X125603000Y-90170000D02*
X124333000Y-91440000D01*
X126619000Y-91440000D02*
X124333000Y-91440000D01*
X125603000Y-93905000D02*
X125603000Y-92710000D01*
X124333000Y-91440000D02*
X123825000Y-91440000D01*
X125603000Y-92710000D02*
X124333000Y-91440000D01*
X133426000Y-107442000D02*
X133426000Y-105715000D01*
X133426000Y-105715000D02*
X133477000Y-105664000D01*
X131826000Y-110102000D02*
X131826000Y-97536000D01*
X131572000Y-97282000D02*
X131826000Y-97536000D01*
X131572000Y-97155000D02*
X131572000Y-97282000D01*
X131572000Y-97155000D02*
X131508500Y-97091500D01*
X131826000Y-110102000D02*
X131238000Y-110690000D01*
X124811000Y-104902000D02*
X124811000Y-107442000D01*
X123952000Y-104902000D02*
X124811000Y-104902000D01*
X123513000Y-104463000D02*
X123952000Y-104902000D01*
X124811000Y-107442000D02*
X124811000Y-108809000D01*
X124811000Y-108809000D02*
X126692000Y-110690000D01*
X126692000Y-110690000D02*
X131238000Y-110690000D01*
X123513000Y-103083000D02*
X123513000Y-104463000D01*
X127411000Y-107442000D02*
X130226000Y-107442000D01*
X132588000Y-72517000D02*
X132588000Y-76835000D01*
X132588000Y-76835000D02*
X133858000Y-78105000D01*
X133858000Y-78105000D02*
X130078000Y-78105000D01*
X128778000Y-80134000D02*
X128778000Y-79121000D01*
X128778000Y-79121000D02*
X129794000Y-78105000D01*
X129794000Y-78105000D02*
X130078000Y-78105000D01*
X122398000Y-78105000D02*
X122398000Y-76738000D01*
X130048000Y-75184000D02*
X130048000Y-72517000D01*
X129159000Y-76073000D02*
X130048000Y-75184000D01*
X123063000Y-76073000D02*
X129159000Y-76073000D01*
X122398000Y-76738000D02*
X123063000Y-76073000D01*
X118618000Y-78105000D02*
X122398000Y-78105000D01*
X123698000Y-80134000D02*
X123698000Y-79248000D01*
X123698000Y-79248000D02*
X122555000Y-78105000D01*
X122555000Y-78105000D02*
X122398000Y-78105000D01*
X122428000Y-89789000D02*
X116713000Y-84074000D01*
X127508000Y-74549000D02*
X127000000Y-75057000D01*
X127000000Y-75057000D02*
X117729000Y-75057000D01*
X117729000Y-75057000D02*
X116713000Y-76073000D01*
X116713000Y-76073000D02*
X116713000Y-84074000D01*
X127508000Y-72517000D02*
X127508000Y-74549000D01*
X122428000Y-93345000D02*
X122428000Y-89789000D01*
X120396000Y-104013000D02*
X120396000Y-109347000D01*
X120396000Y-109347000D02*
X118738000Y-111005000D01*
X118738000Y-111005000D02*
X118738000Y-113190000D01*
X131064000Y-103632000D02*
X130683000Y-104013000D01*
X130683000Y-104013000D02*
X129032000Y-104013000D01*
X130739000Y-101783000D02*
X128963000Y-101783000D01*
X130739000Y-101783000D02*
X131064000Y-102108000D01*
X131064000Y-102108000D02*
X131064000Y-103632000D01*
X120396000Y-103886000D02*
X120396000Y-104013000D01*
X118832000Y-113284000D02*
X118738000Y-113190000D01*
X123513000Y-101133000D02*
X121625000Y-101133000D01*
X121238000Y-101520000D02*
X121238000Y-110690000D01*
X121625000Y-101133000D02*
X121238000Y-101520000D01*
X130078000Y-85090000D02*
X130078000Y-84358000D01*
X130078000Y-84358000D02*
X129540000Y-83820000D01*
X128714000Y-83820000D02*
X127828000Y-82934000D01*
X129540000Y-83820000D02*
X128714000Y-83820000D01*
X130078000Y-85949000D02*
X130078000Y-85090000D01*
X129667000Y-86360000D02*
X130078000Y-85949000D01*
X127127000Y-86360000D02*
X129667000Y-86360000D01*
X127828000Y-82934000D02*
X127828000Y-82997000D01*
X129921000Y-85090000D02*
X130078000Y-85090000D01*
X126873000Y-86614000D02*
X127127000Y-86360000D01*
X126873000Y-87705000D02*
X126873000Y-86614000D01*
X124333000Y-87705000D02*
X124333000Y-86614000D01*
X124333000Y-86614000D02*
X124079000Y-86360000D01*
X124333000Y-87705000D02*
X124333000Y-86995000D01*
X124079000Y-86360000D02*
X122809000Y-86360000D01*
X122809000Y-86360000D02*
X122398000Y-85949000D01*
X122398000Y-85949000D02*
X122398000Y-85090000D01*
X122428000Y-85090000D02*
X122398000Y-85090000D01*
X122748000Y-82934000D02*
X122748000Y-84740000D01*
X122748000Y-84740000D02*
X122398000Y-85090000D01*
X127508000Y-96363000D02*
X127508000Y-95377000D01*
X127508000Y-95377000D02*
X126873000Y-94742000D01*
X126873000Y-94742000D02*
X126873000Y-93905000D01*
X128963000Y-103083000D02*
X127340000Y-103083000D01*
X127508000Y-99949000D02*
X127508000Y-98963000D01*
X126619000Y-100838000D02*
X127508000Y-99949000D01*
X126619000Y-102362000D02*
X126619000Y-100838000D01*
X127340000Y-103083000D02*
X126619000Y-102362000D01*
X127127000Y-99344000D02*
X127508000Y-98963000D01*
X128963000Y-102433000D02*
X128963000Y-103083000D01*
X124333000Y-94869000D02*
X124333000Y-93905000D01*
X124968000Y-95504000D02*
X124333000Y-94869000D01*
X124968000Y-96363000D02*
X124968000Y-95504000D01*
X123513000Y-102433000D02*
X125532000Y-102433000D01*
X124968000Y-99949000D02*
X124968000Y-98963000D01*
X125857000Y-100838000D02*
X124968000Y-99949000D01*
X125857000Y-102108000D02*
X125857000Y-100838000D01*
X125532000Y-102433000D02*
X125857000Y-102108000D01*
X125349000Y-99344000D02*
X124968000Y-98963000D01*
X123513000Y-101783000D02*
X123513000Y-102433000D01*
M02*
