G04 #@! TF.FileFunction,Soldermask,Top*
%FSLAX46Y46*%
G04 Gerber Fmt 4.6, Leading zero omitted, Abs format (unit mm)*
G04 Created by KiCad (PCBNEW 4.0.6) date Tue Oct 10 10:25:47 2017*
%MOMM*%
%LPD*%
G01*
G04 APERTURE LIST*
%ADD10C,0.100000*%
G04 APERTURE END LIST*
D10*
G36*
X123835286Y-122264415D02*
X124013207Y-122300937D01*
X124180658Y-122371327D01*
X124331241Y-122472897D01*
X124459229Y-122601781D01*
X124559743Y-122753069D01*
X124628962Y-122921005D01*
X124664172Y-123098827D01*
X124664172Y-123098842D01*
X124664239Y-123099181D01*
X124661342Y-123306645D01*
X124661266Y-123306979D01*
X124661266Y-123306992D01*
X124621102Y-123483772D01*
X124547226Y-123649702D01*
X124442523Y-123798127D01*
X124310985Y-123923388D01*
X124157623Y-124020716D01*
X123988279Y-124086400D01*
X123809403Y-124117941D01*
X123627804Y-124114136D01*
X123450402Y-124075132D01*
X123283955Y-124002413D01*
X123134807Y-123898753D01*
X123008631Y-123768094D01*
X122910236Y-123615413D01*
X122843368Y-123446527D01*
X122810581Y-123267880D01*
X122813116Y-123086259D01*
X122850882Y-122908588D01*
X122922435Y-122741640D01*
X123025055Y-122591768D01*
X123154829Y-122464684D01*
X123306819Y-122365225D01*
X123475231Y-122297182D01*
X123653648Y-122263147D01*
X123835286Y-122264415D01*
X123835286Y-122264415D01*
G37*
G36*
X128835286Y-122264415D02*
X129013207Y-122300937D01*
X129180658Y-122371327D01*
X129331241Y-122472897D01*
X129459229Y-122601781D01*
X129559743Y-122753069D01*
X129628962Y-122921005D01*
X129664172Y-123098827D01*
X129664172Y-123098842D01*
X129664239Y-123099181D01*
X129661342Y-123306645D01*
X129661266Y-123306979D01*
X129661266Y-123306992D01*
X129621102Y-123483772D01*
X129547226Y-123649702D01*
X129442523Y-123798127D01*
X129310985Y-123923388D01*
X129157623Y-124020716D01*
X128988279Y-124086400D01*
X128809403Y-124117941D01*
X128627804Y-124114136D01*
X128450402Y-124075132D01*
X128283955Y-124002413D01*
X128134807Y-123898753D01*
X128008631Y-123768094D01*
X127910236Y-123615413D01*
X127843368Y-123446527D01*
X127810581Y-123267880D01*
X127813116Y-123086259D01*
X127850882Y-122908588D01*
X127922435Y-122741640D01*
X128025055Y-122591768D01*
X128154829Y-122464684D01*
X128306819Y-122365225D01*
X128475231Y-122297182D01*
X128653648Y-122263147D01*
X128835286Y-122264415D01*
X128835286Y-122264415D01*
G37*
G36*
X118903559Y-116614848D02*
X119206347Y-116677002D01*
X119491310Y-116796789D01*
X119747572Y-116969640D01*
X119965380Y-117188974D01*
X120136436Y-117446436D01*
X120254229Y-117732221D01*
X120314199Y-118035096D01*
X120314268Y-118035446D01*
X120309338Y-118388506D01*
X120309261Y-118388844D01*
X120309261Y-118388853D01*
X120240856Y-118689937D01*
X120115132Y-118972318D01*
X119936950Y-119224906D01*
X119713102Y-119438074D01*
X119452113Y-119603703D01*
X119163920Y-119715485D01*
X118859512Y-119769161D01*
X118550469Y-119762687D01*
X118248569Y-119696310D01*
X117965312Y-119572558D01*
X117711494Y-119396150D01*
X117496764Y-119173790D01*
X117329318Y-118913965D01*
X117215525Y-118626558D01*
X117159727Y-118322534D01*
X117164042Y-118013454D01*
X117228310Y-117711097D01*
X117350080Y-117426985D01*
X117524717Y-117171935D01*
X117745566Y-116955663D01*
X118004219Y-116786406D01*
X118290821Y-116670610D01*
X118594451Y-116612690D01*
X118903559Y-116614848D01*
X118903559Y-116614848D01*
G37*
G36*
X133903559Y-116614848D02*
X134206347Y-116677002D01*
X134491310Y-116796789D01*
X134747572Y-116969640D01*
X134965380Y-117188974D01*
X135136436Y-117446436D01*
X135254229Y-117732221D01*
X135314199Y-118035096D01*
X135314268Y-118035446D01*
X135309338Y-118388506D01*
X135309261Y-118388844D01*
X135309261Y-118388853D01*
X135240856Y-118689937D01*
X135115132Y-118972318D01*
X134936950Y-119224906D01*
X134713102Y-119438074D01*
X134452113Y-119603703D01*
X134163920Y-119715485D01*
X133859512Y-119769161D01*
X133550469Y-119762687D01*
X133248569Y-119696310D01*
X132965312Y-119572558D01*
X132711494Y-119396150D01*
X132496764Y-119173790D01*
X132329318Y-118913965D01*
X132215525Y-118626558D01*
X132159727Y-118322534D01*
X132164042Y-118013454D01*
X132228310Y-117711097D01*
X132350080Y-117426985D01*
X132524717Y-117171935D01*
X132745566Y-116955663D01*
X133004219Y-116786406D01*
X133290821Y-116670610D01*
X133594451Y-116612690D01*
X133903559Y-116614848D01*
X133903559Y-116614848D01*
G37*
G36*
X133835286Y-112264415D02*
X134013207Y-112300937D01*
X134180658Y-112371327D01*
X134331241Y-112472897D01*
X134459229Y-112601781D01*
X134559743Y-112753069D01*
X134628962Y-112921005D01*
X134664172Y-113098827D01*
X134664172Y-113098842D01*
X134664239Y-113099181D01*
X134661342Y-113306645D01*
X134661266Y-113306979D01*
X134661266Y-113306992D01*
X134621102Y-113483772D01*
X134547226Y-113649702D01*
X134442523Y-113798127D01*
X134310985Y-113923388D01*
X134157623Y-114020716D01*
X133988279Y-114086400D01*
X133809403Y-114117941D01*
X133627804Y-114114136D01*
X133450402Y-114075132D01*
X133283955Y-114002413D01*
X133134807Y-113898753D01*
X133008631Y-113768094D01*
X132910236Y-113615413D01*
X132843368Y-113446527D01*
X132810581Y-113267880D01*
X132813116Y-113086259D01*
X132850882Y-112908588D01*
X132922435Y-112741640D01*
X133025055Y-112591768D01*
X133154829Y-112464684D01*
X133306819Y-112365225D01*
X133475231Y-112297182D01*
X133653648Y-112263147D01*
X133835286Y-112264415D01*
X133835286Y-112264415D01*
G37*
G36*
X126335286Y-112264415D02*
X126513207Y-112300937D01*
X126680658Y-112371327D01*
X126831241Y-112472897D01*
X126959229Y-112601781D01*
X127059743Y-112753069D01*
X127128962Y-112921005D01*
X127164172Y-113098827D01*
X127164172Y-113098842D01*
X127164239Y-113099181D01*
X127161342Y-113306645D01*
X127161266Y-113306979D01*
X127161266Y-113306992D01*
X127121102Y-113483772D01*
X127047226Y-113649702D01*
X126942523Y-113798127D01*
X126810985Y-113923388D01*
X126657623Y-114020716D01*
X126488279Y-114086400D01*
X126309403Y-114117941D01*
X126127804Y-114114136D01*
X125950402Y-114075132D01*
X125783955Y-114002413D01*
X125634807Y-113898753D01*
X125508631Y-113768094D01*
X125410236Y-113615413D01*
X125343368Y-113446527D01*
X125310581Y-113267880D01*
X125313116Y-113086259D01*
X125350882Y-112908588D01*
X125422435Y-112741640D01*
X125525055Y-112591768D01*
X125654829Y-112464684D01*
X125806819Y-112365225D01*
X125975231Y-112297182D01*
X126153648Y-112263147D01*
X126335286Y-112264415D01*
X126335286Y-112264415D01*
G37*
G36*
X118835286Y-112264415D02*
X119013207Y-112300937D01*
X119180658Y-112371327D01*
X119331241Y-112472897D01*
X119459229Y-112601781D01*
X119559743Y-112753069D01*
X119628962Y-112921005D01*
X119664172Y-113098827D01*
X119664172Y-113098842D01*
X119664239Y-113099181D01*
X119661342Y-113306645D01*
X119661266Y-113306979D01*
X119661266Y-113306992D01*
X119621102Y-113483772D01*
X119547226Y-113649702D01*
X119442523Y-113798127D01*
X119310985Y-113923388D01*
X119157623Y-114020716D01*
X118988279Y-114086400D01*
X118809403Y-114117941D01*
X118627804Y-114114136D01*
X118450402Y-114075132D01*
X118283955Y-114002413D01*
X118134807Y-113898753D01*
X118008631Y-113768094D01*
X117910236Y-113615413D01*
X117843368Y-113446527D01*
X117810581Y-113267880D01*
X117813116Y-113086259D01*
X117850882Y-112908588D01*
X117922435Y-112741640D01*
X118025055Y-112591768D01*
X118154829Y-112464684D01*
X118306819Y-112365225D01*
X118475231Y-112297182D01*
X118653648Y-112263147D01*
X118835286Y-112264415D01*
X118835286Y-112264415D01*
G37*
G36*
X121335286Y-109764415D02*
X121513207Y-109800937D01*
X121680658Y-109871327D01*
X121831241Y-109972897D01*
X121959229Y-110101781D01*
X122059743Y-110253069D01*
X122128962Y-110421005D01*
X122164172Y-110598827D01*
X122164172Y-110598842D01*
X122164239Y-110599181D01*
X122161342Y-110806645D01*
X122161266Y-110806979D01*
X122161266Y-110806992D01*
X122121102Y-110983772D01*
X122047226Y-111149702D01*
X121942523Y-111298127D01*
X121810985Y-111423388D01*
X121657623Y-111520716D01*
X121488279Y-111586400D01*
X121309403Y-111617941D01*
X121127804Y-111614136D01*
X120950402Y-111575132D01*
X120783955Y-111502413D01*
X120634807Y-111398753D01*
X120508631Y-111268094D01*
X120410236Y-111115413D01*
X120343368Y-110946527D01*
X120310581Y-110767880D01*
X120313116Y-110586259D01*
X120350882Y-110408588D01*
X120422435Y-110241640D01*
X120525055Y-110091768D01*
X120654829Y-109964684D01*
X120806819Y-109865225D01*
X120975231Y-109797182D01*
X121153648Y-109763147D01*
X121335286Y-109764415D01*
X121335286Y-109764415D01*
G37*
G36*
X131335286Y-109764415D02*
X131513207Y-109800937D01*
X131680658Y-109871327D01*
X131831241Y-109972897D01*
X131959229Y-110101781D01*
X132059743Y-110253069D01*
X132128962Y-110421005D01*
X132164172Y-110598827D01*
X132164172Y-110598842D01*
X132164239Y-110599181D01*
X132161342Y-110806645D01*
X132161266Y-110806979D01*
X132161266Y-110806992D01*
X132121102Y-110983772D01*
X132047226Y-111149702D01*
X131942523Y-111298127D01*
X131810985Y-111423388D01*
X131657623Y-111520716D01*
X131488279Y-111586400D01*
X131309403Y-111617941D01*
X131127804Y-111614136D01*
X130950402Y-111575132D01*
X130783955Y-111502413D01*
X130634807Y-111398753D01*
X130508631Y-111268094D01*
X130410236Y-111115413D01*
X130343368Y-110946527D01*
X130310581Y-110767880D01*
X130313116Y-110586259D01*
X130350882Y-110408588D01*
X130422435Y-110241640D01*
X130525055Y-110091768D01*
X130654829Y-109964684D01*
X130806819Y-109865225D01*
X130975231Y-109797182D01*
X131153648Y-109763147D01*
X131335286Y-109764415D01*
X131335286Y-109764415D01*
G37*
G36*
X125049374Y-106855774D02*
X125198190Y-106886322D01*
X125338252Y-106945199D01*
X125464201Y-107030153D01*
X125571259Y-107137959D01*
X125655330Y-107264498D01*
X125713225Y-107404961D01*
X125742665Y-107553648D01*
X125742665Y-107553653D01*
X125742733Y-107553997D01*
X125740310Y-107727525D01*
X125740233Y-107727863D01*
X125740233Y-107727872D01*
X125706652Y-107875680D01*
X125644860Y-108014468D01*
X125557283Y-108138614D01*
X125447261Y-108243387D01*
X125318985Y-108324794D01*
X125177338Y-108379735D01*
X125027724Y-108406116D01*
X124875828Y-108402934D01*
X124727445Y-108370311D01*
X124588223Y-108309486D01*
X124463475Y-108222783D01*
X124357933Y-108113491D01*
X124275634Y-107985788D01*
X124219704Y-107844526D01*
X124192280Y-107695101D01*
X124194400Y-107543188D01*
X124225989Y-107394579D01*
X124285838Y-107254939D01*
X124371673Y-107129582D01*
X124480219Y-107023285D01*
X124607348Y-106940094D01*
X124748212Y-106883181D01*
X124897445Y-106854714D01*
X125049374Y-106855774D01*
X125049374Y-106855774D01*
G37*
G36*
X130822700Y-108404660D02*
X129273300Y-108404660D01*
X129273300Y-106855260D01*
X130822700Y-106855260D01*
X130822700Y-108404660D01*
X130822700Y-108404660D01*
G37*
G36*
X122509374Y-106733854D02*
X122658190Y-106764402D01*
X122798252Y-106823279D01*
X122924201Y-106908233D01*
X123031259Y-107016039D01*
X123115330Y-107142578D01*
X123173225Y-107283041D01*
X123202665Y-107431728D01*
X123202665Y-107431733D01*
X123202733Y-107432077D01*
X123200310Y-107605605D01*
X123200233Y-107605943D01*
X123200233Y-107605952D01*
X123166652Y-107753760D01*
X123104860Y-107892548D01*
X123017283Y-108016694D01*
X122907261Y-108121467D01*
X122778985Y-108202874D01*
X122637338Y-108257815D01*
X122487724Y-108284196D01*
X122335828Y-108281014D01*
X122187445Y-108248391D01*
X122048223Y-108187566D01*
X121923475Y-108100863D01*
X121817933Y-107991571D01*
X121735634Y-107863868D01*
X121679704Y-107722606D01*
X121652280Y-107573181D01*
X121654400Y-107421268D01*
X121685989Y-107272659D01*
X121745838Y-107133019D01*
X121831673Y-107007662D01*
X121940219Y-106901365D01*
X122067348Y-106818174D01*
X122208212Y-106761261D01*
X122357445Y-106732794D01*
X122509374Y-106733854D01*
X122509374Y-106733854D01*
G37*
G36*
X127589374Y-106733854D02*
X127738190Y-106764402D01*
X127878252Y-106823279D01*
X128004201Y-106908233D01*
X128111259Y-107016039D01*
X128195330Y-107142578D01*
X128253225Y-107283041D01*
X128282665Y-107431728D01*
X128282665Y-107431733D01*
X128282733Y-107432077D01*
X128280310Y-107605605D01*
X128280233Y-107605943D01*
X128280233Y-107605952D01*
X128246652Y-107753760D01*
X128184860Y-107892548D01*
X128097283Y-108016694D01*
X127987261Y-108121467D01*
X127858985Y-108202874D01*
X127717338Y-108257815D01*
X127567724Y-108284196D01*
X127415828Y-108281014D01*
X127267445Y-108248391D01*
X127128223Y-108187566D01*
X127003475Y-108100863D01*
X126897933Y-107991571D01*
X126815634Y-107863868D01*
X126759704Y-107722606D01*
X126732280Y-107573181D01*
X126734400Y-107421268D01*
X126765989Y-107272659D01*
X126825838Y-107133019D01*
X126911673Y-107007662D01*
X127020219Y-106901365D01*
X127147348Y-106818174D01*
X127288212Y-106761261D01*
X127437445Y-106732794D01*
X127589374Y-106733854D01*
X127589374Y-106733854D01*
G37*
G36*
X134303200Y-103522200D02*
X132650800Y-103522200D01*
X132650800Y-101769800D01*
X134303200Y-101769800D01*
X134303200Y-103522200D01*
X134303200Y-103522200D01*
G37*
G36*
X125794200Y-101236200D02*
X124141800Y-101236200D01*
X124141800Y-99483800D01*
X125794200Y-99483800D01*
X125794200Y-101236200D01*
X125794200Y-101236200D01*
G37*
G36*
X128334200Y-101236200D02*
X126681800Y-101236200D01*
X126681800Y-99483800D01*
X128334200Y-99483800D01*
X128334200Y-101236200D01*
X128334200Y-101236200D01*
G37*
G36*
X134303200Y-100922200D02*
X132650800Y-100922200D01*
X132650800Y-99169800D01*
X134303200Y-99169800D01*
X134303200Y-100922200D01*
X134303200Y-100922200D01*
G37*
G36*
X128334200Y-98636200D02*
X126681800Y-98636200D01*
X126681800Y-96883800D01*
X128334200Y-96883800D01*
X128334200Y-98636200D01*
X128334200Y-98636200D01*
G37*
G36*
X125794200Y-98636200D02*
X124141800Y-98636200D01*
X124141800Y-96883800D01*
X125794200Y-96883800D01*
X125794200Y-98636200D01*
X125794200Y-98636200D01*
G37*
G36*
X134553200Y-98561200D02*
X132400800Y-98561200D01*
X132400800Y-96408800D01*
X134553200Y-96408800D01*
X134553200Y-98561200D01*
X134553200Y-98561200D01*
G37*
G36*
X134553200Y-95361200D02*
X132400800Y-95361200D01*
X132400800Y-93208800D01*
X134553200Y-93208800D01*
X134553200Y-95361200D01*
X134553200Y-95361200D01*
G37*
G36*
X122697200Y-94671200D02*
X121644800Y-94671200D01*
X121644800Y-93918800D01*
X122697200Y-93918800D01*
X122697200Y-94671200D01*
X122697200Y-94671200D01*
G37*
G36*
X130831200Y-94671200D02*
X129778800Y-94671200D01*
X129778800Y-93918800D01*
X130831200Y-93918800D01*
X130831200Y-94671200D01*
X130831200Y-94671200D01*
G37*
G36*
X125497200Y-93721200D02*
X124444800Y-93721200D01*
X124444800Y-92968800D01*
X125497200Y-92968800D01*
X125497200Y-93721200D01*
X125497200Y-93721200D01*
G37*
G36*
X128031200Y-93721200D02*
X126978800Y-93721200D01*
X126978800Y-92968800D01*
X128031200Y-92968800D01*
X128031200Y-93721200D01*
X128031200Y-93721200D01*
G37*
G36*
X122697200Y-92771200D02*
X121644800Y-92771200D01*
X121644800Y-92018800D01*
X122697200Y-92018800D01*
X122697200Y-92771200D01*
X122697200Y-92771200D01*
G37*
G36*
X130831200Y-92771200D02*
X129778800Y-92771200D01*
X129778800Y-92018800D01*
X130831200Y-92018800D01*
X130831200Y-92771200D01*
X130831200Y-92771200D01*
G37*
G36*
X125984700Y-88472700D02*
X124332300Y-88472700D01*
X124332300Y-86720300D01*
X125984700Y-86720300D01*
X125984700Y-88472700D01*
X125984700Y-88472700D01*
G37*
G36*
X128143700Y-88472700D02*
X126491300Y-88472700D01*
X126491300Y-86720300D01*
X128143700Y-86720300D01*
X128143700Y-88472700D01*
X128143700Y-88472700D01*
G37*
G36*
X134747700Y-88409200D02*
X133095300Y-88409200D01*
X133095300Y-86656800D01*
X134747700Y-86656800D01*
X134747700Y-88409200D01*
X134747700Y-88409200D01*
G37*
G36*
X119507700Y-88409200D02*
X117855300Y-88409200D01*
X117855300Y-86656800D01*
X119507700Y-86656800D01*
X119507700Y-88409200D01*
X119507700Y-88409200D01*
G37*
G36*
X132482200Y-87559200D02*
X131429800Y-87559200D01*
X131429800Y-86806800D01*
X132482200Y-86806800D01*
X132482200Y-87559200D01*
X132482200Y-87559200D01*
G37*
G36*
X121046200Y-87559200D02*
X119993800Y-87559200D01*
X119993800Y-86806800D01*
X121046200Y-86806800D01*
X121046200Y-87559200D01*
X121046200Y-87559200D01*
G37*
G36*
X123846200Y-87559200D02*
X122793800Y-87559200D01*
X122793800Y-86806800D01*
X123846200Y-86806800D01*
X123846200Y-87559200D01*
X123846200Y-87559200D01*
G37*
G36*
X129682200Y-87559200D02*
X128629800Y-87559200D01*
X128629800Y-86806800D01*
X129682200Y-86806800D01*
X129682200Y-87559200D01*
X129682200Y-87559200D01*
G37*
G36*
X129682200Y-86609200D02*
X128629800Y-86609200D01*
X128629800Y-85856800D01*
X129682200Y-85856800D01*
X129682200Y-86609200D01*
X129682200Y-86609200D01*
G37*
G36*
X132482200Y-86609200D02*
X131429800Y-86609200D01*
X131429800Y-85856800D01*
X132482200Y-85856800D01*
X132482200Y-86609200D01*
X132482200Y-86609200D01*
G37*
G36*
X121046200Y-86609200D02*
X119993800Y-86609200D01*
X119993800Y-85856800D01*
X121046200Y-85856800D01*
X121046200Y-86609200D01*
X121046200Y-86609200D01*
G37*
G36*
X123846200Y-86609200D02*
X122793800Y-86609200D01*
X122793800Y-85856800D01*
X123846200Y-85856800D01*
X123846200Y-86609200D01*
X123846200Y-86609200D01*
G37*
G36*
X125984700Y-85872700D02*
X124332300Y-85872700D01*
X124332300Y-84120300D01*
X125984700Y-84120300D01*
X125984700Y-85872700D01*
X125984700Y-85872700D01*
G37*
G36*
X128143700Y-85872700D02*
X126491300Y-85872700D01*
X126491300Y-84120300D01*
X128143700Y-84120300D01*
X128143700Y-85872700D01*
X128143700Y-85872700D01*
G37*
G36*
X134747700Y-85809200D02*
X133095300Y-85809200D01*
X133095300Y-84056800D01*
X134747700Y-84056800D01*
X134747700Y-85809200D01*
X134747700Y-85809200D01*
G37*
G36*
X119507700Y-85809200D02*
X117855300Y-85809200D01*
X117855300Y-84056800D01*
X119507700Y-84056800D01*
X119507700Y-85809200D01*
X119507700Y-85809200D01*
G37*
G36*
X132482200Y-85659200D02*
X131429800Y-85659200D01*
X131429800Y-84906800D01*
X132482200Y-84906800D01*
X132482200Y-85659200D01*
X132482200Y-85659200D01*
G37*
G36*
X121046200Y-85659200D02*
X119993800Y-85659200D01*
X119993800Y-84906800D01*
X121046200Y-84906800D01*
X121046200Y-85659200D01*
X121046200Y-85659200D01*
G37*
G36*
X123846200Y-85659200D02*
X122793800Y-85659200D01*
X122793800Y-84906800D01*
X123846200Y-84906800D01*
X123846200Y-85659200D01*
X123846200Y-85659200D01*
G37*
G36*
X129682200Y-85659200D02*
X128629800Y-85659200D01*
X128629800Y-84906800D01*
X129682200Y-84906800D01*
X129682200Y-85659200D01*
X129682200Y-85659200D01*
G37*
G36*
X128414200Y-83503200D02*
X126661800Y-83503200D01*
X126661800Y-81850800D01*
X128414200Y-81850800D01*
X128414200Y-83503200D01*
X128414200Y-83503200D01*
G37*
G36*
X125814200Y-83503200D02*
X124061800Y-83503200D01*
X124061800Y-81850800D01*
X125814200Y-81850800D01*
X125814200Y-83503200D01*
X125814200Y-83503200D01*
G37*
G36*
X133999401Y-78029695D02*
X134258005Y-78082779D01*
X134501387Y-78185087D01*
X134720255Y-78332716D01*
X134906280Y-78520044D01*
X135052376Y-78739937D01*
X135152980Y-78984020D01*
X135200539Y-79224214D01*
X135204258Y-79242998D01*
X135200047Y-79544540D01*
X135199970Y-79544878D01*
X135199970Y-79544887D01*
X135141558Y-79801986D01*
X135034180Y-80043161D01*
X134881999Y-80258891D01*
X134690814Y-80440954D01*
X134467909Y-80582414D01*
X134221770Y-80677885D01*
X133961781Y-80723729D01*
X133697833Y-80718199D01*
X133439987Y-80661508D01*
X133198063Y-80555814D01*
X132981280Y-80405146D01*
X132797887Y-80215238D01*
X132654874Y-79993324D01*
X132557685Y-79747854D01*
X132510029Y-79488195D01*
X132513714Y-79224215D01*
X132568605Y-78965979D01*
X132672606Y-78723325D01*
X132821760Y-78505491D01*
X133010382Y-78320778D01*
X133231293Y-78176219D01*
X133476074Y-78077320D01*
X133735398Y-78027852D01*
X133999401Y-78029695D01*
X133999401Y-78029695D01*
G37*
G36*
X118759401Y-78029695D02*
X119018005Y-78082779D01*
X119261387Y-78185087D01*
X119480255Y-78332716D01*
X119666280Y-78520044D01*
X119812376Y-78739937D01*
X119912980Y-78984020D01*
X119960539Y-79224214D01*
X119964258Y-79242998D01*
X119960047Y-79544540D01*
X119959970Y-79544878D01*
X119959970Y-79544887D01*
X119901558Y-79801986D01*
X119794180Y-80043161D01*
X119641999Y-80258891D01*
X119450814Y-80440954D01*
X119227909Y-80582414D01*
X118981770Y-80677885D01*
X118721781Y-80723729D01*
X118457833Y-80718199D01*
X118199987Y-80661508D01*
X117958063Y-80555814D01*
X117741280Y-80405146D01*
X117557887Y-80215238D01*
X117414874Y-79993324D01*
X117317685Y-79747854D01*
X117270029Y-79488195D01*
X117273714Y-79224215D01*
X117328605Y-78965979D01*
X117432606Y-78723325D01*
X117581760Y-78505491D01*
X117770382Y-78320778D01*
X117991293Y-78176219D01*
X118236074Y-78077320D01*
X118495398Y-78027852D01*
X118759401Y-78029695D01*
X118759401Y-78029695D01*
G37*
G36*
X126379401Y-78029695D02*
X126638005Y-78082779D01*
X126881387Y-78185087D01*
X127100255Y-78332716D01*
X127286280Y-78520044D01*
X127432376Y-78739937D01*
X127532980Y-78984020D01*
X127580539Y-79224214D01*
X127584258Y-79242998D01*
X127580047Y-79544540D01*
X127579970Y-79544878D01*
X127579970Y-79544887D01*
X127521558Y-79801986D01*
X127414180Y-80043161D01*
X127261999Y-80258891D01*
X127070814Y-80440954D01*
X126847909Y-80582414D01*
X126601770Y-80677885D01*
X126341781Y-80723729D01*
X126077833Y-80718199D01*
X125819987Y-80661508D01*
X125578063Y-80555814D01*
X125361280Y-80405146D01*
X125177887Y-80215238D01*
X125034874Y-79993324D01*
X124937685Y-79747854D01*
X124890029Y-79488195D01*
X124893714Y-79224215D01*
X124948605Y-78965979D01*
X125052606Y-78723325D01*
X125201760Y-78505491D01*
X125390382Y-78320778D01*
X125611293Y-78176219D01*
X125856074Y-78077320D01*
X126115398Y-78027852D01*
X126379401Y-78029695D01*
X126379401Y-78029695D01*
G37*
G36*
X127609383Y-71552441D02*
X127794795Y-71590501D01*
X127969297Y-71663855D01*
X128126221Y-71769702D01*
X128259598Y-71904012D01*
X128364345Y-72061671D01*
X128436477Y-72236674D01*
X128473174Y-72422008D01*
X128473174Y-72422018D01*
X128473241Y-72422357D01*
X128470222Y-72638557D01*
X128470146Y-72638891D01*
X128470146Y-72638904D01*
X128428288Y-72823142D01*
X128351300Y-72996059D01*
X128242188Y-73150735D01*
X128105113Y-73281270D01*
X127945294Y-73382694D01*
X127768816Y-73451145D01*
X127582410Y-73484014D01*
X127393162Y-73480049D01*
X127208293Y-73439404D01*
X127034836Y-73363622D01*
X126879408Y-73255597D01*
X126747919Y-73119436D01*
X126645381Y-72960328D01*
X126575698Y-72784330D01*
X126541529Y-72598158D01*
X126544171Y-72408891D01*
X126583527Y-72223739D01*
X126658093Y-72049761D01*
X126765035Y-71893578D01*
X126900273Y-71761142D01*
X127058663Y-71657496D01*
X127234166Y-71586587D01*
X127420096Y-71551120D01*
X127609383Y-71552441D01*
X127609383Y-71552441D01*
G37*
G36*
X130149383Y-71552441D02*
X130334795Y-71590501D01*
X130509297Y-71663855D01*
X130666221Y-71769702D01*
X130799598Y-71904012D01*
X130904345Y-72061671D01*
X130976477Y-72236674D01*
X131013174Y-72422008D01*
X131013174Y-72422018D01*
X131013241Y-72422357D01*
X131010222Y-72638557D01*
X131010146Y-72638891D01*
X131010146Y-72638904D01*
X130968288Y-72823142D01*
X130891300Y-72996059D01*
X130782188Y-73150735D01*
X130645113Y-73281270D01*
X130485294Y-73382694D01*
X130308816Y-73451145D01*
X130122410Y-73484014D01*
X129933162Y-73480049D01*
X129748293Y-73439404D01*
X129574836Y-73363622D01*
X129419408Y-73255597D01*
X129287919Y-73119436D01*
X129185381Y-72960328D01*
X129115698Y-72784330D01*
X129081529Y-72598158D01*
X129084171Y-72408891D01*
X129123527Y-72223739D01*
X129198093Y-72049761D01*
X129305035Y-71893578D01*
X129440273Y-71761142D01*
X129598663Y-71657496D01*
X129774166Y-71586587D01*
X129960096Y-71551120D01*
X130149383Y-71552441D01*
X130149383Y-71552441D01*
G37*
G36*
X125069383Y-71552441D02*
X125254795Y-71590501D01*
X125429297Y-71663855D01*
X125586221Y-71769702D01*
X125719598Y-71904012D01*
X125824345Y-72061671D01*
X125896477Y-72236674D01*
X125933174Y-72422008D01*
X125933174Y-72422018D01*
X125933241Y-72422357D01*
X125930222Y-72638557D01*
X125930146Y-72638891D01*
X125930146Y-72638904D01*
X125888288Y-72823142D01*
X125811300Y-72996059D01*
X125702188Y-73150735D01*
X125565113Y-73281270D01*
X125405294Y-73382694D01*
X125228816Y-73451145D01*
X125042410Y-73484014D01*
X124853162Y-73480049D01*
X124668293Y-73439404D01*
X124494836Y-73363622D01*
X124339408Y-73255597D01*
X124207919Y-73119436D01*
X124105381Y-72960328D01*
X124035698Y-72784330D01*
X124001529Y-72598158D01*
X124004171Y-72408891D01*
X124043527Y-72223739D01*
X124118093Y-72049761D01*
X124225035Y-71893578D01*
X124360273Y-71761142D01*
X124518663Y-71657496D01*
X124694166Y-71586587D01*
X124880096Y-71551120D01*
X125069383Y-71552441D01*
X125069383Y-71552441D01*
G37*
G36*
X122529383Y-71552441D02*
X122714795Y-71590501D01*
X122889297Y-71663855D01*
X123046221Y-71769702D01*
X123179598Y-71904012D01*
X123284345Y-72061671D01*
X123356477Y-72236674D01*
X123393174Y-72422008D01*
X123393174Y-72422018D01*
X123393241Y-72422357D01*
X123390222Y-72638557D01*
X123390146Y-72638891D01*
X123390146Y-72638904D01*
X123348288Y-72823142D01*
X123271300Y-72996059D01*
X123162188Y-73150735D01*
X123025113Y-73281270D01*
X122865294Y-73382694D01*
X122688816Y-73451145D01*
X122502410Y-73484014D01*
X122313162Y-73480049D01*
X122128293Y-73439404D01*
X121954836Y-73363622D01*
X121799408Y-73255597D01*
X121667919Y-73119436D01*
X121565381Y-72960328D01*
X121495698Y-72784330D01*
X121461529Y-72598158D01*
X121464171Y-72408891D01*
X121503527Y-72223739D01*
X121578093Y-72049761D01*
X121685035Y-71893578D01*
X121820273Y-71761142D01*
X121978663Y-71657496D01*
X122154166Y-71586587D01*
X122340096Y-71551120D01*
X122529383Y-71552441D01*
X122529383Y-71552441D01*
G37*
G36*
X119989383Y-71552441D02*
X120174795Y-71590501D01*
X120349297Y-71663855D01*
X120506221Y-71769702D01*
X120639598Y-71904012D01*
X120744345Y-72061671D01*
X120816477Y-72236674D01*
X120853174Y-72422008D01*
X120853174Y-72422018D01*
X120853241Y-72422357D01*
X120850222Y-72638557D01*
X120850146Y-72638891D01*
X120850146Y-72638904D01*
X120808288Y-72823142D01*
X120731300Y-72996059D01*
X120622188Y-73150735D01*
X120485113Y-73281270D01*
X120325294Y-73382694D01*
X120148816Y-73451145D01*
X119962410Y-73484014D01*
X119773162Y-73480049D01*
X119588293Y-73439404D01*
X119414836Y-73363622D01*
X119259408Y-73255597D01*
X119127919Y-73119436D01*
X119025381Y-72960328D01*
X118955698Y-72784330D01*
X118921529Y-72598158D01*
X118924171Y-72408891D01*
X118963527Y-72223739D01*
X119038093Y-72049761D01*
X119145035Y-71893578D01*
X119280273Y-71761142D01*
X119438663Y-71657496D01*
X119614166Y-71586587D01*
X119800096Y-71551120D01*
X119989383Y-71552441D01*
X119989383Y-71552441D01*
G37*
G36*
X133515100Y-73444100D02*
X131660900Y-73444100D01*
X131660900Y-71589900D01*
X133515100Y-71589900D01*
X133515100Y-73444100D01*
X133515100Y-73444100D01*
G37*
M02*
